<?xml version="1.0" encoding="UTF-8"?>
<svg width="142px" height="142px" viewBox="0 0 142 142" version="1.1" xmlns="http://www.w3.org/2000/svg" xmlns:xlink="http://www.w3.org/1999/xlink">
    <title>next level</title>
    <defs>
        <circle id="path-1" cx="71" cy="71" r="71"></circle>
    </defs>
    <g id="Page-1" stroke="none" stroke-width="1" fill="none" fill-rule="evenodd">
        <g id="Desktop-HD-Copy-6" transform="translate(-1009.000000, -1827.000000)">
            <g id="cvbf" transform="translate(1009.000000, 1827.000000)">
                <mask id="mask-2" fill="white">
                    <use xlink:href="#path-1"></use>
                </mask>
                <use id="Mask" fill="#E3F8FE" xlink:href="#path-1"></use>
                <g mask="url(#mask-2)" fill-rule="nonzero" id="Path">
                    <g transform="translate(5.000000, 18.000000)">
                        <path d="M89.248008,19.0840017 C89.248008,19.0840017 86.2940077,13.8340012 89.248008,12.7660011 C92.2020082,11.698001 93.5380084,12.6840011 93.6780084,13.8800012 C93.8180084,15.0760013 92.5520083,19.7880018 92.5520083,19.7880018 L89.248008,19.0840017 Z" fill="#FFB792"></path>
                        <path d="M91.6140082,52.6580047 C86.727838,53.549984 81.7794486,54.0588657 76.8140069,54.1800048 C73.0127559,54.2704209 69.2097863,54.0993508 65.4320059,53.6680048 C64.5360058,53.5640048 63.6780057,53.4500048 62.8520056,53.3240048 C54.1320048,52.0020046 49.3160044,49.6560044 49.3160044,49.6560044 C49.3160044,49.6560044 57.2840051,32.9780029 63.7160057,33.618003 C71.2660064,34.3700031 84.0620075,41.1480037 85.3340076,39.2460035 C86.7660078,37.1060033 87.9640079,18.7440017 87.9640079,18.7440017 C91.3120082,16.4500015 93.3120083,18.8680017 93.3120083,18.8680017 C93.3120083,18.8680017 99.8500089,51.1720046 91.6140082,52.6580047 Z" fill="#FF7042"></path>
                        <path d="M91.6140082,52.6580047 C86.727838,53.549984 81.7794486,54.0588657 76.8140069,54.1800048 C73.0127559,54.2704209 69.2097863,54.0993508 65.4320059,53.6680048 C63.4220057,47.2780042 61.9780055,40.7520036 66.0180059,44.686004 C73.1400065,51.6260046 91.6140082,52.6580047 91.6140082,52.6580047 Z" fill="#FF4A1E"></path>
                        <path d="M61.8740055,107.07401 C61.7860055,111.41001 61.5760055,115.87401 61.1680055,119.900011 C59.2320053,138.972012 58.5500052,162.014014 58.2720052,166.456015 C57.7900052,174.168016 56.272005,186.488017 56.272005,186.488017 C56.272005,186.488017 53.2500048,189.356017 47.3600042,187.988017 C47.3600042,187.988017 42.4800038,170.242015 41.3900037,151.558014 C41.3740037,151.252014 41.3560037,150.944013 41.3420037,150.636013 C41.2140037,148.166013 41.0820037,145.340013 40.9420037,142.296013 C40.0440036,121.896011 39.0700035,91.5900082 39.0700035,91.5900082 L61.5760055,86.3040077 C61.5760055,86.3040077 62.0940056,96.2660086 61.8740055,107.07401 Z" fill="#5B36A1"></path>
                        <path d="M61.8740055,107.07401 C56.170005,116.91401 45.296004,135.046012 40.9420037,142.296013 C40.0440036,121.896011 39.0700035,91.5900082 39.0700035,91.5900082 L61.5760055,86.3040077 C61.5760055,86.3040077 62.0940056,96.2660086 61.8740055,107.07401 Z" fill="#4F326E"></path>
                        <path d="M4.88400044,88.0100079 C4.88400044,88.0100079 1.22200011,92.3160083 0.884000079,93.5100079 C0.546000049,94.7040085 -0.0240000021,99.0000089 0.290000026,100.300009 C0.604000054,101.600009 3.04000027,96.7000086 3.92400035,96.1720086 C4.80800043,95.6440086 3.26000029,98.1200088 3.56200032,98.5320088 C3.86400035,98.9440088 5.6140005,97.0900087 6.29600056,96.4620086 C6.97800062,95.8340086 6.91000062,92.4620083 7.73000069,90.4620081 C8.55000076,88.4620079 4.88400044,88.0100079 4.88400044,88.0100079 Z" fill="#FFB792"></path>
                        <path d="M58.0300052,92.0520082 C58.0300052,92.0520082 36.9600033,137.132012 25.7480023,156.912014 C14.5360013,176.692016 11.0320004,182.212016 11.0320004,182.212016 C11.0320004,182.212016 4.60800041,179.682016 4.03200036,177.958016 C4.03200036,177.958016 8.32000074,139.770012 15.8320014,130.462012 C20.0760018,125.202011 25.0600022,109.41601 25.2920023,103.896009 C25.5240023,98.3760088 30.4360027,85.2000076 30.4360027,85.2000076 L58.0300052,92.0520082 Z" fill="#5B36A1"></path>
                        <path d="M64.2000057,94.1780084 C64.2000057,94.1780084 55.822005,99.7780089 43.9620039,99.2580089 C38.7620035,99.0320089 28.4360025,97.5560087 26.7620024,93.4180084 C26.3720024,92.4460083 26.6580024,91.2180082 27.2460024,89.320008 C28.7680026,84.4000075 32.3180029,75.0320067 31.2460028,54.2580049 C31.1465988,52.4405209 31.1934161,50.6179876 31.3860028,48.8080044 C32.5020029,38.5760034 38.3660034,32.5180029 44.0340039,30.5380027 C57.8560052,25.7060023 62.4620056,32.3980029 62.4620056,32.3980029 C62.4620056,32.3980029 68.5720061,37.2400033 69.4940062,47.3400042 C71.3300064,67.546006 64.2000057,94.1780084 64.2000057,94.1780084 Z" fill="#FF7042"></path>
                        <path d="M48.0800043,29.3760026 C48.0800043,29.3760026 54.4220049,33.234003 61.3000055,32.1440029 C61.3000055,32.1440029 62.6600056,31.7980028 61.9920055,30.2000027 C62.2327588,29.501431 62.4357194,28.7904015 62.6000056,28.0700025 C62.9309618,26.9291044 63.1980431,25.7706395 63.4000057,24.6000022 L59.4960053,20.4980018 L55.788005,16.5720015 C54.7680049,25.9440023 48.0800043,29.3760026 48.0800043,29.3760026 Z" fill="#FFB792"></path>
                        <path d="M55.2000049,20.1260018 C55.2000049,20.1260018 57.3200051,25.8000023 62.6000056,28.0700025 C63.2000049,25.8700023 63.6000057,23.5620021 63.6000057,23.5620021 L59.4880053,20.4940018 L55.2000049,20.1260018 Z" fill="#F3B396"></path>
                        <path d="M67.7700061,24.4000022 C67.7700061,24.4000022 55.664005,25.9140023 54.8140049,18.4740017 C53.9640048,11.034001 51.8300046,6.22000056 59.5220053,4.94000044 C67.214006,3.66000033 69.0440062,6.34000057 69.9420063,8.74000078 C70.8400063,11.140001 70.8960063,23.8120021 67.7700061,24.4000022 Z" fill="#FFB792"></path>
                        <path d="M51.0000046,3.72800033 C50.8960046,3.59800032 50.6480045,3.48800031 50.0880045,3.43600031 C50.414977,3.26711638 50.7779983,3.17996382 51.1460046,3.18200028 C51.2940046,2.40600022 51.7600046,1.04200009 53.1140047,0.758000068 C52.6619702,1.00010361 52.3452577,1.4353991 52.2540047,1.94000017 C53.8600048,0.400000036 57.2340051,-0.634000057 66.4260059,0.44200004 C78.542007,1.86200017 74.2440066,9.49000085 72.6260065,10.3580009 C71.0080063,11.226001 67.154006,8.53400076 64.2140057,8.65600077 C61.2740055,8.77800078 60.5660054,13.0000012 59.5500053,13.5360012 C58.5340052,14.0720013 58.9620053,13.0660012 57.6400052,12.4080011 C56.318005,11.7500011 56.106005,13.9720012 56.440005,15.4360014 C56.7740051,16.9000015 54.8520049,18.7440017 54.8520049,18.7440017 L53.0520047,16.6600015 C51.2680046,14.5780013 49.8300045,6.00000054 50.7480045,4.20000038 L51.0000046,3.72800033 Z" fill="#533771"></path>
                        <polygon fill="#5B36A1" points="87.9620079 15.6020014 67.412006 15.7840014 67.272006 12.6940011 87.7580078 11.106001"></polygon>
                        <polygon fill="#5B36A1" points="103.476009 16.1180014 81.1000073 16.4420015 80.8460072 10.820001 103.156009 9.09200081"></polygon>
                        <polygon fill="#4F326E" points="118.564011 16.5600015 99.6960089 16.5820015 99.3500089 8.9940008 118.142011 7.28400065"></polygon>
                        <path d="M118.834011,17.8400016 L118.834011,17.8400016 C119.413506,17.8098147 119.860074,17.3176967 119.834011,16.7380015 L119.400011,7.00000063 C119.369824,6.42050556 118.877706,5.97393745 118.298011,6.00000054 L118.298011,6.00000054 C117.718516,6.0301874 117.271947,6.52230547 117.29801,7.10200063 L117.742011,16.8500015 C117.777425,17.4214745 118.261813,17.8606173 118.834011,17.8400016 Z" fill="#4F326E"></path>
                        <path d="M67.348006,16.4440015 L67.348006,16.4440015 C66.830518,16.4677419 66.3917617,16.0674887 66.3680059,15.5500014 L66.2540059,13.0200012 C66.2426134,12.7716932 66.3304577,12.5290512 66.4981671,12.345584 C66.6658764,12.1621167 66.8996756,12.0528936 67.148006,12.0420011 L67.148006,12.0420011 C67.665494,12.0182606 68.1042503,12.4185138 68.1280061,12.9360012 L68.2420061,15.4660014 C68.2533986,15.7143094 68.1655543,15.9569513 67.997845,16.1404186 C67.8301356,16.3238858 67.5963364,16.4331089 67.348006,16.4440015 L67.348006,16.4440015 Z" fill="#5B36A1"></path>
                        <path d="M27.2420024,89.320008 C28.7640026,84.4000075 32.3140029,75.0320067 31.2420024,54.2580049 C31.1425988,52.4405209 31.1894161,50.6179876 31.3820028,48.8080044 L31.3820028,48.8080044 C35.9300032,48.4080043 42.8820038,53.3340048 42.8820038,53.3340048 C42.8820038,53.3340048 38.6000035,79.4400071 27.2420024,89.320008 Z" fill="#FF4A1E"></path>
                        <path d="M48.0800043,29.3760026 C48.0800043,29.3760026 36.4160033,31.3760026 30.3320027,38.8080035 C24.2480022,46.2400041 14.4640013,56.7060051 12.1500011,60.3720054 C9.83600088,64.0380057 3.41400031,89.000008 3.41400031,89.000008 C3.41400031,89.000008 3.83800034,89.800008 5.6140005,90.2700081 C6.58702513,90.5441826 7.62641329,90.4567973 8.54000076,90.024008 C8.54000076,90.024008 17.0480015,75.4600067 20.2520018,68.1840061 C21.5820019,65.1620058 44.594004,53.1840048 53.2520048,54.4320049 C56.6380051,54.9120049 48.0800043,29.3760026 48.0800043,29.3760026 Z" fill="#FF7042"></path>
                        <path d="M87.8400079,10.2200009 C87.8400079,10.2200009 90.3500081,11.7540011 91.8500082,11.106001 C93.3500083,10.4580009 93.2180083,9.86200088 93.2180083,9.86200088 C93.2180083,9.86200088 88.6840079,8.60000077 87.8400079,10.2200009 Z" fill="#FFB792"></path>
                        <path d="M59.4000053,37.5120034 C59.4000053,37.5120034 54.2780049,69.8280062 17.9620016,79.2360071 L14.0000013,87.0420078 L20.9500019,88.2180079 C20.9500019,88.2180079 62.3020056,76.2400068 61.7440055,36.9400033 L59.4000053,37.5120034 Z" fill="#FFDD71"></path>
                        <polygon fill="#FF9F23" points="58.6040052 32.3540029 56.9280051 32.5180029 56.9280051 34.9440031 59.3980053 37.5120034 61.7460055 36.9420033 61.7460055 33.574003 60.0580054 32.3540029"></polygon>
                        <path d="M52.0260047,25.9280023 C52.0260047,25.9280023 50.4040045,26.2940024 46.6940042,29.3760026 C46.6940042,29.3760026 50.3820045,37.2080033 58.1660052,38.1460034 C58.1660052,38.1460034 58.0420052,34.5120031 58.6040052,32.3460029 C58.6000052,32.3540029 52.4340047,30.1460027 52.0260047,25.9280023 Z" fill="#FF4A1E"></path>
                        <path d="M58.6000052,32.3540029 C58.6000052,32.3540029 62.4000056,34.3700031 62.6800056,37.5120034 C62.6800056,37.5120034 64.1320057,35.2120031 63.7100057,33.620003 C63.2880057,32.0280029 62.0000055,30.2000027 62.0000055,30.2000027 C62.0000055,30.2000027 62.1200056,32.1200029 58.6000052,32.3540029 Z" fill="#FF4A1E"></path>
                    </g>
                </g>
            </g>
        </g>
    </g>
</svg>