<?xml version="1.0" encoding="UTF-8"?>
<svg width="116px" height="74px" viewBox="0 0 116 74" version="1.1" xmlns="http://www.w3.org/2000/svg" xmlns:xlink="http://www.w3.org/1999/xlink">
    <title>logo</title>
    <defs>
        <linearGradient x1="24.0426609%" y1="50.0013022%" x2="89.301044%" y2="50.0013022%" id="linearGradient-1">
            <stop stop-color="#FF8741" offset="0%"></stop>
            <stop stop-color="#ED2D7B" offset="100%"></stop>
        </linearGradient>
        <linearGradient x1="24.0426609%" y1="50.0013022%" x2="89.301044%" y2="50.0013022%" id="linearGradient-2">
            <stop stop-color="#FF8741" offset="0%"></stop>
            <stop stop-color="#ED2D7B" offset="100%"></stop>
        </linearGradient>
    </defs>
    <g id="logo" stroke="none" stroke-width="1" fill="none" fill-rule="evenodd">
        <g id="Group-35" transform="translate(5.000000, 3.000000)">
            <g id="Group-3">
                <g id="Group-35-Copy">
                    <g id="Group-43" transform="translate(0.000000, 0.300000)">
                        <path d="M84.506894,31.6465296 C85.5348968,31.6465296 86.3771051,32.4420105 86.4515455,33.4509989 L86.4568941,33.5965297 L86.4453539,40.6530132 L86.422352,44.5300676 L86.3903055,47.4645962 L86.3535116,49.667031 L86.3064199,51.6736425 L86.2606226,53.1537462 C85.9053693,63.3864176 74.9103479,66.3694962 67.8269693,59.1083101 C67.0749441,58.3374075 67.0902472,57.1028306 67.8611498,56.3508053 C68.6320524,55.5987801 69.8666294,55.6140833 70.6186546,56.3849859 C75.4684634,61.3565349 82.1362982,59.547473 82.3629706,53.0184292 L82.4081291,51.5572474 L82.4461487,49.9832771 L82.4709561,48.6118992 C80.8294604,50.3365305 78.5806462,51.4000016 76.1000041,51.4000016 C71.0742126,51.4000016 67.0000036,47.0347788 67.0000036,41.6500022 C67.0000036,36.2652256 71.0742126,31.9000016 76.1000041,31.9000016 C78.6246095,31.9000016 80.909097,33.0015019 82.5576563,34.78042 L82.5568939,33.5965297 C82.5568939,32.5195744 83.4299387,31.6465296 84.506894,31.6465296 Z M24.6836672,30.5313985 C25.71167,30.5313985 26.5538783,31.3268794 26.6283187,32.3358678 L26.6336673,32.4813986 L26.6333274,33.969713 C27.3181542,33.433683 28.0172342,33.0038352 28.7328876,32.6818617 C30.6038572,31.8401096 32.0368144,31.5586317 33.279537,31.5747897 L33.5563482,31.5845742 C34.6333035,31.5845742 35.5063483,32.457619 35.5063483,33.5345743 C35.5063483,34.6115296 34.6333035,35.4845744 33.5563482,35.4845744 L33.343215,35.4776591 C33.0910096,35.466839 32.8378578,35.4793694 32.4605902,35.5455211 C31.8567743,35.6513968 31.1509904,35.87048 30.3330187,36.2384868 C29.169271,36.7620587 27.9230165,37.8737348 26.632773,39.6016052 L26.6336673,51.6711682 C26.6336673,52.7481235 25.7606225,53.6211683 24.6836672,53.6211683 C23.6556644,53.6211683 22.8134561,52.8256874 22.7390157,51.816699 L22.7336671,51.6711682 L22.7336671,32.4813986 C22.7336671,31.4044433 23.6067119,30.5313985 24.6836672,30.5313985 Z M36.0676876,1.85313241 C36.1488003,2.92702881 35.3439902,3.86334872 34.2700937,3.94446145 C21.7265498,4.89189092 13.3826169,9.36826027 8.98959545,17.3410505 C6.40534628,22.0311429 5.08117018,25.7761798 4.52800082,29.6823024 C4.29515521,31.3265068 4.18476998,32.6504065 4.17483132,34.6223661 L4.17752499,35.6061887 L4.18208813,35.8848651 C5.85112444,33.794441 8.33114932,32.4694991 11.1000005,32.4694991 C16.125792,32.4694991 20.200001,36.8347231 20.200001,42.2194997 C20.200001,47.6042763 16.125792,51.9694991 11.1000005,51.9694991 C8.54213961,51.9694991 6.2307642,50.8387889 4.57753309,49.0184311 L4.58011151,49.13679 L4.59120972,50.138162 L4.5973617,51.6711682 C4.5973617,52.7481235 3.72431691,53.6211683 2.64736159,53.6211683 C1.57040627,53.6211683 0.697361482,52.7481235 0.697361482,51.6711682 L0.691315946,50.1691913 L0.680401805,49.187105 L0.653305266,47.7023475 L0.596316665,45.6159658 L0.537230911,43.9003184 L0.364404931,39.2611045 L0.320861345,37.8461772 L0.290863193,36.5893084 L0.277610306,35.7369645 L0.272742809,34.703025 L0.27596276,34.2237185 L0.294080492,33.326491 L0.318178602,32.696304 L0.351562943,32.09229 L0.41095281,31.3113869 L0.466977394,30.7318478 L0.509933733,30.3431835 L0.582963382,29.749759 L0.666529454,29.1354563 C1.28960904,24.7356732 2.77132242,20.5450891 5.57379913,15.4589407 C10.6652841,6.21852563 20.2157038,1.09489792 33.9763586,0.0555385504 C35.050255,-0.0255741804 35.9865749,0.779236004 36.0676876,1.85313241 Z M43.5522227,4.41071709 C43.9371244,3.40489234 45.064531,2.90153479 46.0703557,3.28643653 C52.6269496,5.79546643 58.4403167,11.5070705 61.5539158,18.1867497 C62.7054244,20.657117 63.4997684,22.9585983 64.0200114,25.3088254 L64.0200114,25.3088254 L64.155653,25.9403586 L64.3161703,26.7554302 L64.4543784,27.5556182 L64.5440072,28.156454 L64.6220904,28.7660376 L64.6890581,29.391706 L64.7453402,30.0407963 L64.7771376,30.4901586 L64.8045043,30.9553654 L64.8375258,31.6876398 L64.861295,32.467793 L64.8762421,33.303162 L64.8831914,34.5155598 L64.8792257,35.5082986 L64.8625188,36.9571538 L64.8150587,39.434056 L64.6829653,44.8034666 L64.6487139,46.4792147 L64.6238443,48.0589139 L64.6047296,50.1080202 L64.6005152,51.6711682 C64.6005152,52.7481235 63.7274705,53.6211683 62.6505151,53.6211683 C61.5735598,53.6211683 60.700515,52.7481235 60.700515,51.6711682 L60.700515,51.6711682 L60.7047772,50.0873036 L60.7166068,48.7979548 C59.0527328,50.747045 56.6596103,51.9694991 54.0000029,51.9694991 C48.9742114,51.9694991 44.9000024,47.6042763 44.9000024,42.2194997 C44.9000024,36.8347231 48.9742114,32.4694991 54.0000029,32.4694991 C56.8004243,32.4694991 59.3053955,33.824827 60.9746889,35.9566675 L60.976135,35.7955031 L60.9821755,34.5616074 L60.9723432,33.1846807 L60.9495903,32.1969243 L60.9233135,31.5124826 L60.9012204,31.0794625 L60.8753497,30.6628401 L60.8292406,30.0644858 L60.7740662,29.4923128 L60.7320794,29.1222352 L60.6610419,28.5794139 L60.5775337,28.030231 C60.4773535,27.4141959 60.3563647,26.803053 60.2121866,26.1517203 C59.7549256,24.0860181 59.0533367,22.0532723 58.0190748,19.8344453 C55.3186202,14.041095 50.2507911,9.06197831 44.6765032,6.92885014 C43.6706785,6.5439484 43.1673209,5.41654183 43.5522227,4.41071709 Z M39.4208882,30.519499 C40.448891,30.519499 41.2910993,31.3149799 41.3655397,32.3239683 L41.3708883,32.4694991 L41.3708883,51.6711682 C41.3708883,52.7481235 40.4978435,53.6211683 39.4208882,53.6211683 C38.3928854,53.6211683 37.5506771,52.8256874 37.4762367,51.816699 L37.4708881,51.6711682 L37.4708881,32.4694991 C37.4708881,31.3925438 38.3439329,30.519499 39.4208882,30.519499 Z M99.4166144,31.8194991 C105.01676,31.8194991 108.620032,35.1089531 109.861597,41.1695003 C110.109303,42.3786457 109.185528,43.5108502 107.951271,43.5108502 L107.951271,43.5108502 L92.9710767,43.5111917 C93.3800354,45.7059357 94.6887189,47.1496966 97.0123708,48.0365783 C100.065653,49.2019422 102.845723,48.778563 105.596983,46.7084133 C106.45754,46.0608987 107.680073,46.2336033 108.327588,47.0941599 C108.975102,47.9547165 108.802398,49.1772497 107.941841,49.8247643 C104.131468,52.6918297 99.9432833,53.3296518 95.6216873,51.6802031 C91.1609233,49.9776373 88.8553235,46.4992407 88.9322003,41.6278746 C88.9276941,41.4743542 88.9402791,41.3225435 88.9716315,41.1695003 C90.2131966,35.1089531 93.8164692,31.8194991 99.4166144,31.8194991 Z M11.1000005,36.3694993 C8.29054776,36.3694993 5.90000021,38.9308003 5.90000021,42.2194997 C5.90000021,45.5081987 8.29054743,48.0694989 11.1000005,48.0694989 C13.9094536,48.0694989 16.3000008,45.5081987 16.3000008,42.2194997 C16.3000008,38.9308003 13.9094532,36.3694993 11.1000005,36.3694993 Z M54.0000029,36.3694993 C51.1905501,36.3694993 48.8000026,38.9308003 48.8000026,42.2194997 C48.8000026,45.5081987 51.1905498,48.0694989 54.0000029,48.0694989 C56.8094559,48.0694989 59.2000031,45.5081987 59.2000031,42.2194997 C59.2000031,38.9308003 56.8094556,36.3694993 54.0000029,36.3694993 Z M76.1000041,35.8000019 C73.2905513,35.8000019 70.9000038,38.3613028 70.9000038,41.6500022 C70.9000038,44.9387012 73.290551,47.5000014 76.1000041,47.5000014 C78.9094572,47.5000014 81.3000044,44.9387012 81.3000044,41.6500022 C81.3000044,38.3613028 78.9094568,35.8000019 76.1000041,35.8000019 Z M99.4166144,35.7194993 C96.5296086,35.7194993 94.6208667,36.9103731 93.5100341,39.5483704 L93.5100341,39.5483704 L93.485,39.61 L105.348,39.61 L105.323195,39.5483704 C104.245034,36.9879612 102.415209,35.7908025 99.668816,35.7225963 L99.668816,35.7225963 Z" id="Combined-Shape" fill="#262626" fill-rule="nonzero"></path>
                        <g id="Group-42" transform="translate(53.600003, 28.600000) scale(-1, 1) translate(-53.600003, -28.600000) translate(44.100003, 4.600000)"></g>
                    </g>
                    <circle id="Oval" fill="url(#linearGradient-1)" fill-rule="nonzero" cx="39.7000021" cy="3.60000014" r="2.60000014"></circle>
                </g>
                <g id="Group-36-Copy" transform="translate(67.000004, 32.200002)"></g>
            </g>
            <g id="HDTJNFTD" transform="translate(10.000000, 10.000000)" fill="url(#linearGradient-2)" fill-rule="nonzero">
                <path d="M44.2000012,18.2750005 C43.6242407,16.0555594 42.7065943,13.9392376 41.4800012,12.0020003 C37.5494458,5.79971652 30.7178604,2.0407409 23.3750007,2.04000006 C20.8440417,2.05881755 18.3357701,2.51905086 15.9630004,3.4000001 C11.5266576,5.04731115 7.74460986,8.08965237 5.18500015,12.0700003 C3.95555409,14.0036419 3.04304607,16.1213492 2.48200007,18.3430005 L6.27300018,18.3430005 C6.72109339,16.4707003 7.47342474,14.6846312 8.5,13.0560004 C9.49550927,11.4717446 10.7413466,10.0594129 12.1890003,8.87400025 C16.9764821,4.94137824 23.4781968,3.81353596 29.3104874,5.90396269 C35.1427779,7.99438941 39.4477065,12.9955805 40.6470011,19.0740005 C40.6470011,19.4650005 40.8000011,19.8730006 40.8680011,20.2640006 L33.0990009,20.2640006 L32.9460009,19.4480005 C32.7336562,18.3309635 32.3250022,17.2604052 31.7390009,16.2860005 C31.1583657,15.3473017 30.4292184,14.5090694 29.5800008,13.8040004 C25.9690317,10.8546711 20.7809697,10.8546711 17.1700005,13.8040004 C15.7449332,14.9724224 14.6832845,16.5236091 14.1100004,18.2750005 L12.0020003,18.2750005 C12.3042257,17.0678933 12.8039658,15.9190656 13.4810004,14.8750004 C14.150608,13.8871317 14.9577416,12.9998573 15.8780004,12.2400003 C20.2279282,8.65832267 26.5050731,8.65832267 30.8550009,12.2400003 C32.7374004,13.8078973 34.0957205,15.9135901 34.748001,18.2750005 L38.3690011,18.2750005 C37.9470898,16.7340697 37.2813415,15.2705713 36.397001,13.9400004 C33.9773711,10.2366938 30.0968563,7.73727246 25.7244127,7.0658364 C21.3519692,6.39440033 16.9003084,7.61432588 13.4810004,10.4210003 C12.1292449,11.56333 10.9797963,12.9254265 10.0810003,14.4500004 C9.13485046,16.0185491 8.48378952,17.7470294 8.16000023,19.5500005 L8.00700022,20.3660006 L0,20.3660006 C0,19.9750006 0.136000004,19.5670005 0.221000006,19.1760005 C1.26734239,13.7949296 4.1520257,8.94505573 8.38100024,5.45700015 C14.816949,0.114203784 23.6017691,-1.41893492 31.4670009,1.42800004 C38.9530072,4.17014114 44.5481257,10.5070124 46.3420013,18.2750005 L44.2000012,18.2750005 Z" id="Path"></path>
            </g>
        </g>
    </g>
</svg>