<?xml version="1.0" encoding="UTF-8"?>
<svg width="560px" height="560px" viewBox="0 0 560 560" version="1.1" xmlns="http://www.w3.org/2000/svg" xmlns:xlink="http://www.w3.org/1999/xlink">
    <title>possible</title>
    <defs>
        <linearGradient x1="50%" y1="0%" x2="50%" y2="90.0073998%" id="linearGradient-1">
            <stop stop-color="#2170E3" offset="0%"></stop>
            <stop stop-color="#114289" stop-opacity="0" offset="100%"></stop>
        </linearGradient>
        <linearGradient x1="50%" y1="0%" x2="50%" y2="90.0073998%" id="linearGradient-2">
            <stop stop-color="#2170E3" offset="0%"></stop>
            <stop stop-color="#114289" stop-opacity="0" offset="100%"></stop>
        </linearGradient>
        <linearGradient x1="50%" y1="0%" x2="50%" y2="90.0073998%" id="linearGradient-3">
            <stop stop-color="#2170E3" offset="0%"></stop>
            <stop stop-color="#114289" stop-opacity="0" offset="100%"></stop>
        </linearGradient>
        <linearGradient x1="50%" y1="0%" x2="50%" y2="90.0073998%" id="linearGradient-4">
            <stop stop-color="#2170E3" offset="0%"></stop>
            <stop stop-color="#114289" stop-opacity="0" offset="100%"></stop>
        </linearGradient>
        <linearGradient x1="50%" y1="0%" x2="50%" y2="90.0073998%" id="linearGradient-5">
            <stop stop-color="#0DE4FF" offset="0%"></stop>
            <stop stop-color="#114289" stop-opacity="0" offset="100%"></stop>
        </linearGradient>
    </defs>
    <g id="possible" stroke="none" stroke-width="1" fill="none" fill-rule="evenodd">
        <g id="Group-15" transform="translate(6.000000, 15.000000)">
            <g id="ghlu" transform="translate(449.000000, 50.000000)" fill-rule="nonzero">
                <path d="M59.8840009,119.610002 C60.345711,119.610002 60.7200009,119.298497 60.7200009,118.914237 L60.7200009,1.2317649 C60.7200009,0.847504559 60.345711,0.536000008 59.8840009,0.536000008 C59.4222908,0.536000008 59.0479985,0.847504559 59.0479985,1.2317649 L59.0479985,118.912573 C59.0474696,119.097389 59.1353133,119.274788 59.2921514,119.405629 C59.4489894,119.536471 59.6619329,119.610002 59.8840009,119.610002 L59.8840009,119.610002 Z" id="Path" fill="#FFD261"></path>
                <path d="M0,23.5480004 C14.1800002,32.8220005 28.3600004,22.3320003 42.5400006,20.1580003 L42.5400006,6.9720001 C28.3600004,9.14600014 14.1800002,19.6360003 0,10.3620002 C6.4000001,16.7420002 12.7860002,19.1020003 19.1800003,20.0200003 C12.7860002,23.4980004 6.4000001,25.5320004 0,23.5480004 Z" id="Path" fill="#33F65C"></path>
                <path d="M24.4540004,18.6880003 C36.2640005,15.2160002 48.0740007,9.23200014 59.8840009,16.9560003 L59.8840009,3.76800006 C48.0740007,-3.95600006 36.2640005,2.03000003 24.4540004,5.50200008 L24.4540004,18.6880003 Z" id="Path" fill="#33F65C"></path>
                <path d="M42.5400006,20.1580003 L42.5400006,13.5580002 C36.5120005,14.4820002 30.4840005,16.9100003 24.4540004,18.6820003 C30.4840005,19.1140003 36.5120005,18.8840003 42.5400006,20.1580003 Z" id="Path" fill="#13B035"></path>
            </g>
            <g id="Group-14" transform="translate(0.000000, 168.000000)">
                <rect id="Rectangle" fill="url(#linearGradient-1)" x="0" y="180" width="78" height="112" rx="4"></rect>
                <rect id="Rectangle" fill="url(#linearGradient-2)" x="100" y="140" width="78" height="182" rx="4"></rect>
                <rect id="Rectangle" fill="url(#linearGradient-3)" x="200" y="90" width="78" height="242" rx="4"></rect>
                <rect id="Rectangle" fill="url(#linearGradient-4)" x="300" y="50" width="78" height="302" rx="4"></rect>
                <rect id="Rectangle" fill="url(#linearGradient-5)" x="470" y="0" width="78" height="382" rx="4"></rect>
            </g>
            <path d="M372.043583,373.025118 C372.662072,373.025118 373.260217,372.89491 373.838016,372.634493 C374.415816,372.374076 374.928511,372.024141 375.376102,371.584688 C375.823693,371.145235 376.177697,370.648816 376.438114,370.09543 C376.698531,369.542045 376.828739,368.956108 376.828739,368.337618 C376.845015,368.060925 376.808394,367.633679 376.718876,367.05588 C376.629357,366.47808 376.49508,365.859591 376.316044,365.200411 C376.137007,364.541231 375.933557,363.89019 375.705692,363.247286 C375.477827,362.604382 375.237756,362.07948 374.985477,361.672579 C374.733199,361.265678 374.48092,361.025606 374.228641,360.952364 C373.976363,360.879122 373.744429,361.070365 373.53284,361.526095 C373.53284,362.128308 373.630497,362.718315 373.825809,363.296114 C374.021122,363.873914 374.240848,364.451713 374.484989,365.029513 C374.72913,365.607312 374.948856,366.18918 375.144169,366.775118 C375.339481,367.361055 375.437137,367.963269 375.437137,368.581759 C375.437137,368.972384 375.339481,369.338595 375.144169,369.680391 C374.948856,370.022188 374.700646,370.323295 374.39954,370.583712 C374.098433,370.844128 373.756636,371.047579 373.374149,371.194063 C372.991662,371.340548 372.621382,371.41379 372.263309,371.41379 C371.595991,371.41379 371.010054,371.230684 370.505497,370.864473 C370.000939,370.498263 369.573693,370.042533 369.223758,369.497286 C368.873824,368.952039 368.593062,368.362032 368.381473,367.727266 C368.169885,367.092501 368.0234,366.514701 367.94202,365.993868 C367.86064,365.766003 367.771122,365.582898 367.673465,365.444552 C367.575809,365.306205 367.478153,365.220756 367.380497,365.188204 C367.28284,365.155652 367.177046,365.184135 367.063114,365.273653 C366.949182,365.363171 366.851525,365.521863 366.770145,365.749727 C366.786421,365.94504 366.798628,366.181042 366.806766,366.457735 C366.814904,366.734428 366.814904,367.027397 366.806766,367.336641 C366.798628,367.645886 366.774214,367.946993 366.733524,368.239962 C366.692834,368.53293 366.623661,368.793347 366.526005,369.021212 C366.37952,369.183972 366.212691,369.387423 366.025516,369.631563 C365.838342,369.875704 365.630822,370.111707 365.402958,370.339571 C365.175093,370.567436 364.926883,370.762748 364.658329,370.925509 C364.389774,371.088269 364.109012,371.169649 363.816044,371.169649 C363.457971,371.169649 363.152795,371.019096 362.900516,370.717989 C362.648238,370.416882 362.436649,370.018119 362.265751,369.5217 C362.094852,369.025281 361.956506,368.459688 361.850712,367.824923 C361.744917,367.190157 361.663537,366.539115 361.606571,365.871798 C361.549605,365.20448 361.496708,364.553438 361.44788,363.918673 C361.399051,363.283907 361.354292,362.722384 361.313602,362.234102 C361.272912,361.745821 361.228153,361.347058 361.179325,361.037813 C361.130497,360.728569 361.049116,360.573946 360.935184,360.573946 C360.674768,360.573946 360.463179,360.712292 360.300419,360.988985 C360.17021,361.265678 360.080692,361.574923 360.031864,361.91672 C359.983036,362.258516 359.958622,362.579968 359.958622,362.881075 L359.958622,362.881075 L359.958622,363.405977 C359.958622,363.829154 359.978967,364.349988 360.019657,364.968477 C360.060347,365.586967 360.12952,366.246147 360.227176,366.946016 C360.324833,367.645886 360.467248,368.349825 360.654422,369.057833 C360.841597,369.765841 361.085738,370.396537 361.386844,370.949923 C361.687951,371.503308 362.0623,371.954968 362.509891,372.304903 C362.957482,372.654838 363.490523,372.829805 364.109012,372.829805 C364.15784,372.829805 364.239221,372.817598 364.353153,372.793184 C364.467085,372.76877 364.65426,372.671114 364.914676,372.500216 C365.175093,372.329317 365.525028,372.064832 365.964481,371.706759 C366.403934,371.348686 366.981734,370.844128 367.69788,370.193087 L367.69788,370.193087 L367.81995,370.193087 C367.950158,370.193087 368.14954,370.339571 368.418094,370.63254 C368.686649,370.925509 369.004032,371.251029 369.370243,371.609102 C369.736454,371.967175 370.151493,372.292696 370.61536,372.585665 C371.079227,372.878634 371.555301,373.025118 372.043583,373.025118 Z M384.665653,373.025118 C385.056278,373.025118 385.471317,372.992566 385.91077,372.927462 C386.350223,372.862358 386.793745,372.760632 387.241337,372.622286 C387.688928,372.48394 388.112105,372.300834 388.510868,372.07297 C388.909631,371.845105 389.239221,371.552136 389.499637,371.194063 L389.499637,371.194063 L385.12952,371.487032 C384.120406,371.438204 383.274051,371.320203 382.590458,371.133028 C381.906864,370.945854 381.341271,370.709851 380.89368,370.42502 C380.446089,370.14019 380.104292,369.8106 379.86829,369.436251 C379.632287,369.061902 379.461389,368.671277 379.355594,368.264376 C379.2498,367.857475 379.188765,367.442436 379.172489,367.019259 C379.156213,366.596082 379.148075,366.172904 379.148075,365.749727 C379.148075,365.196342 379.237593,364.667371 379.41663,364.162813 C379.595666,363.658256 379.847945,363.198458 380.173465,362.783419 C380.498986,362.36838 380.89368,362.030652 381.357547,361.770235 C381.821415,361.509819 382.338179,361.355196 382.90784,361.306368 C383.265913,361.273816 383.587365,361.330782 383.872196,361.477266 C384.157027,361.623751 384.405236,361.819063 384.616825,362.063204 C384.828413,362.307345 384.987105,362.588106 385.092899,362.905489 C385.198693,363.222872 385.25159,363.544324 385.25159,363.869845 C385.25159,364.179089 385.08883,364.492403 384.763309,364.809786 C384.437788,365.127169 384.051232,365.40793 383.603641,365.652071 C383.15605,365.896212 382.716597,366.095593 382.285282,366.250216 C381.853967,366.404838 381.524377,366.482149 381.296512,366.482149 C380.905887,366.417045 380.596643,366.368217 380.368778,366.335665 C380.140913,366.319389 379.970015,366.323458 379.856083,366.347872 C379.74215,366.372286 379.672977,366.412976 379.648563,366.469942 C379.624149,366.526908 379.611942,366.596082 379.611942,366.677462 C379.611942,366.937878 379.66077,367.133191 379.758426,367.263399 C379.856083,367.393608 379.986291,367.491264 380.149051,367.556368 C380.311812,367.621472 380.494917,367.654024 380.698368,367.654024 L380.698368,367.654024 L381.296512,367.654024 C381.817346,367.654024 382.378869,367.568575 382.981083,367.397677 C383.583296,367.226778 384.14482,366.982638 384.665653,366.665255 C385.186486,366.347872 385.617801,365.953178 385.959598,365.481173 C386.301395,365.009167 386.472294,364.480196 386.472294,363.894259 C386.472294,363.405977 386.423465,362.950248 386.325809,362.527071 C386.211877,362.087618 386.028771,361.701062 385.776493,361.367403 C385.524214,361.033744 385.198693,360.752983 384.79993,360.525118 C384.401167,360.297253 383.933231,360.150769 383.396122,360.085665 C382.484663,360.085665 381.683068,360.260632 380.991337,360.610567 C380.299605,360.960502 379.713667,361.428438 379.233524,362.014376 C378.753381,362.600313 378.38717,363.279838 378.134891,364.05295 C377.882613,364.826062 377.756473,365.635795 377.756473,366.482149 C377.756473,367.491264 377.939579,368.398653 378.30579,369.204317 C378.672001,370.009981 379.172489,370.693575 379.807255,371.255098 C380.44202,371.816622 381.174442,372.252006 382.00452,372.561251 C382.834598,372.870496 383.721643,373.025118 384.665653,373.025118 Z M408.289423,373.048628 L408.371708,373.037325 C408.615848,372.980359 408.811161,372.776908 408.957645,372.426973 C409.10413,372.077039 409.213993,371.613171 409.287235,371.035372 C409.360477,370.457572 409.376753,369.826876 409.336063,369.143282 C409.295373,368.459688 409.205855,367.75168 409.067508,367.019259 C408.929162,366.286837 408.729781,365.595105 408.469364,364.944063 C408.208947,364.293022 407.879357,363.707084 407.480594,363.186251 C407.081831,362.665417 406.613895,362.278861 406.076786,362.026583 C405.539676,361.774304 404.925256,361.672579 404.233524,361.721407 C403.541792,361.770235 402.772749,362.055066 401.926395,362.575899 C401.877567,362.185274 401.845015,361.851615 401.828739,361.574923 C401.812463,361.29823 401.788049,361.029675 401.755497,360.769259 C401.722945,360.508842 401.682255,360.240287 401.633426,359.963595 C401.584598,359.686902 401.503218,359.345105 401.389286,358.938204 C401.275353,358.531303 401.1248,358.047091 400.937626,357.485567 C400.750451,356.924044 400.502241,356.236381 400.192997,355.422579 C400.127893,355.422579 400.042443,355.434786 399.936649,355.4592 C399.830855,355.483614 399.72506,355.520235 399.619266,355.569063 C399.513472,355.617891 399.419885,355.670789 399.338505,355.727755 C399.257124,355.784721 399.216434,355.845756 399.216434,355.91086 L399.216434,355.91086 L399.216434,356.008516 C399.281538,356.382865 399.338505,356.704317 399.387333,356.972872 C399.436161,357.241427 399.493127,357.501843 399.558231,357.754122 C399.623335,358.006401 399.692508,358.291231 399.765751,358.608614 C399.838993,358.925997 399.940718,359.312553 400.070926,359.768282 C400.331343,360.940157 400.530725,362.083549 400.669071,363.198458 C400.807417,364.313367 400.913212,365.36724 400.986454,366.360079 C401.059696,367.352917 401.116662,368.264376 401.157352,369.094454 C401.198042,369.924532 401.242801,370.63254 401.29163,371.218477 C401.340458,371.804415 401.4137,372.252006 401.511356,372.561251 C401.609012,372.870496 401.755497,373.008842 401.950809,372.97629 C402.146122,372.97629 402.312951,372.947807 402.451297,372.890841 C402.589644,372.833875 402.707645,372.691459 402.805301,372.463595 L402.805301,372.463595 L402.805301,372.243868 C402.805301,372.146212 402.80937,372.040417 402.817508,371.926485 L402.826664,371.76169 L402.826664,371.76169 L402.829715,371.609102 L402.829715,371.609102 L402.829715,371.41379 C402.829715,371.039441 402.789025,370.55116 402.707645,369.948946 C402.626265,369.346733 402.544885,368.724174 402.463505,368.08127 C402.382124,367.438367 402.304813,366.819877 402.231571,366.225802 C402.158329,365.631726 402.121708,365.155652 402.121708,364.797579 C402.121708,364.781303 402.125777,364.728406 402.133915,364.638888 C402.142053,364.549369 402.146122,364.488334 402.146122,364.455782 C402.406538,364.276746 402.634403,364.122123 402.829715,363.991915 C403.025028,363.877983 403.204064,363.784395 403.366825,363.711153 C403.529585,363.637911 403.692346,363.585014 403.855106,363.552462 C404.017866,363.51991 404.213179,363.503634 404.441044,363.503634 C405.010705,363.503634 405.503055,363.605359 405.918094,363.808809 C406.333133,364.01226 406.678999,364.288953 406.955692,364.638888 C407.232385,364.988822 407.443973,365.399792 407.590458,365.871798 C407.736942,366.343803 407.810184,366.840222 407.810184,367.361055 C407.810184,367.719128 407.806115,368.117891 407.797977,368.557345 C407.789839,368.996798 407.773563,369.444389 407.749149,369.900118 C407.724735,370.355847 407.696252,370.811576 407.6637,371.267305 C407.631148,371.723035 407.598596,372.162488 407.566044,372.585665 C407.859012,372.943738 408.127567,373.094291 408.371708,373.037325 L408.289423,373.048628 Z M417.624637,373.025118 C418.015262,373.025118 418.430301,372.992566 418.869755,372.927462 C419.309208,372.862358 419.75273,372.760632 420.200321,372.622286 C420.647912,372.48394 421.071089,372.300834 421.469852,372.07297 C421.868615,371.845105 422.198205,371.552136 422.458622,371.194063 L422.458622,371.194063 L418.088505,371.487032 C417.07939,371.438204 416.233036,371.320203 415.549442,371.133028 C414.865848,370.945854 414.300256,370.709851 413.852665,370.42502 C413.405074,370.14019 413.063277,369.8106 412.827274,369.436251 C412.591271,369.061902 412.420373,368.671277 412.314579,368.264376 C412.208784,367.857475 412.147749,367.442436 412.131473,367.019259 C412.115197,366.596082 412.107059,366.172904 412.107059,365.749727 C412.107059,365.196342 412.196577,364.667371 412.375614,364.162813 C412.55465,363.658256 412.806929,363.198458 413.13245,362.783419 C413.457971,362.36838 413.852665,362.030652 414.316532,361.770235 C414.780399,361.509819 415.297163,361.355196 415.866825,361.306368 C416.224898,361.273816 416.54635,361.330782 416.83118,361.477266 C417.116011,361.623751 417.364221,361.819063 417.575809,362.063204 C417.787398,362.307345 417.946089,362.588106 418.051883,362.905489 C418.157678,363.222872 418.210575,363.544324 418.210575,363.869845 C418.210575,364.179089 418.047814,364.492403 417.722294,364.809786 C417.396773,365.127169 417.010217,365.40793 416.562626,365.652071 C416.115034,365.896212 415.675581,366.095593 415.244266,366.250216 C414.812951,366.404838 414.483361,366.482149 414.255497,366.482149 C413.864872,366.417045 413.555627,366.368217 413.327762,366.335665 C413.099898,366.319389 412.928999,366.323458 412.815067,366.347872 C412.701135,366.372286 412.631962,366.412976 412.607547,366.469942 C412.583133,366.526908 412.570926,366.596082 412.570926,366.677462 C412.570926,366.937878 412.619755,367.133191 412.717411,367.263399 C412.815067,367.393608 412.945275,367.491264 413.108036,367.556368 C413.270796,367.621472 413.453902,367.654024 413.657352,367.654024 L413.657352,367.654024 L414.255497,367.654024 C414.77633,367.654024 415.337853,367.568575 415.940067,367.397677 C416.542281,367.226778 417.103804,366.982638 417.624637,366.665255 C418.145471,366.347872 418.576786,365.953178 418.918583,365.481173 C419.26038,365.009167 419.431278,364.480196 419.431278,363.894259 C419.431278,363.405977 419.38245,362.950248 419.284794,362.527071 C419.170861,362.087618 418.987756,361.701062 418.735477,361.367403 C418.483199,361.033744 418.157678,360.752983 417.758915,360.525118 C417.360152,360.297253 416.892215,360.150769 416.355106,360.085665 C415.443648,360.085665 414.642053,360.260632 413.950321,360.610567 C413.258589,360.960502 412.672652,361.428438 412.192508,362.014376 C411.712365,362.600313 411.346154,363.279838 411.093876,364.05295 C410.841597,364.826062 410.715458,365.635795 410.715458,366.482149 C410.715458,367.491264 410.898563,368.398653 411.264774,369.204317 C411.630985,370.009981 412.131473,370.693575 412.766239,371.255098 C413.401005,371.816622 414.133426,372.252006 414.963505,372.561251 C415.793583,372.870496 416.680627,373.025118 417.624637,373.025118 Z M424.619266,372.927462 C424.773889,372.960014 424.908166,372.89491 425.022098,372.732149 C425.136031,372.569389 425.229618,372.260144 425.30286,371.804415 C425.376102,371.348686 425.428999,370.644747 425.461551,369.692598 C425.494103,368.74045 425.494103,367.487195 425.461551,365.932833 C425.428999,364.378471 425.363895,362.437553 425.266239,360.110079 C425.266239,360.012423 425.245894,359.886283 425.205204,359.731661 C425.164514,359.577039 425.103478,359.422416 425.022098,359.267794 C424.940718,359.113171 424.843062,358.982963 424.72913,358.877169 C424.615197,358.771375 424.484989,358.718477 424.338505,358.718477 C424.208296,358.718477 424.094364,358.742891 423.996708,358.79172 C423.899051,358.840548 423.850223,358.930066 423.850223,359.060274 C423.866499,360.199597 423.858361,361.33892 423.825809,362.478243 C423.793257,363.617566 423.776981,364.765027 423.776981,365.920626 C423.776981,367.076225 423.797326,368.227755 423.838016,369.375216 C423.878706,370.522677 423.980432,371.674207 424.143192,372.829805 C424.305952,372.862358 424.464644,372.89491 424.619266,372.927462 Z M430.149051,381.911837 C430.181603,381.879285 430.262984,381.81418 430.393192,381.716524 C430.507124,381.602592 430.580366,381.521212 430.612919,381.472384 L430.612919,381.472384 L430.612919,381.423555 L430.637333,381.374727 L430.637333,381.374727 L430.637333,381.350313 C430.637333,381.334037 430.633264,381.313692 430.625126,381.289278 C430.616988,381.264864 430.612919,381.236381 430.612919,381.203829 C430.56409,380.959688 430.494917,380.569063 430.405399,380.031954 L430.350223,379.701388 C430.274702,379.249565 430.191369,378.753471 430.100223,378.213106 C429.986291,377.537651 429.86829,376.825574 429.746219,376.076876 C429.624149,375.328178 429.514286,374.616101 429.41663,373.940645 C429.318973,373.26519 429.229455,372.654838 429.148075,372.109591 C429.066695,371.564343 429.009728,371.161511 428.977176,370.901095 C428.977176,370.868542 428.9609,370.738334 428.928348,370.51047 C428.895796,370.282605 428.871382,370.018119 428.855106,369.717013 C428.83883,369.415906 428.818485,369.114799 428.794071,368.813692 C428.769657,368.512585 428.749312,368.272514 428.733036,368.093477 L428.733036,368.093477 L428.733036,367.800509 C428.733036,367.556368 428.830692,367.336641 429.026005,367.141329 C429.221317,366.946016 429.469527,366.771049 429.770633,366.616427 C430.07174,366.461804 430.40133,366.331596 430.759403,366.225802 C431.117476,366.120007 431.459273,366.030489 431.784794,365.957247 C432.110314,365.884005 432.399214,365.831108 432.651493,365.798555 C432.903771,365.766003 433.062463,365.749727 433.127567,365.749727 C433.615848,365.749727 434.10413,365.82297 434.592411,365.969454 C435.080692,366.115938 435.520145,366.323458 435.91077,366.592013 C436.301395,366.860567 436.618778,367.198295 436.862919,367.605196 C437.107059,368.012097 437.22913,368.49224 437.22913,369.045626 C437.22913,369.419975 437.090783,369.72922 436.81409,369.97336 C436.537398,370.217501 436.207808,370.408744 435.825321,370.547091 C435.442834,370.685437 435.035933,370.779024 434.604618,370.827852 C434.173303,370.87668 433.827437,370.901095 433.56702,370.901095 C433.208947,370.901095 432.875288,370.827852 432.566044,370.681368 C432.240523,370.55116 431.915002,370.408744 431.589481,370.254122 C431.26396,370.0995 430.942508,369.953015 430.625126,369.814669 C430.307743,369.676322 429.978153,369.607149 429.636356,369.607149 C429.636356,370.258191 429.78284,370.762748 430.075809,371.120821 C430.368778,371.478894 430.743127,371.747449 431.198856,371.926485 C431.654585,372.105522 432.155074,372.219454 432.700321,372.268282 C433.245568,372.31711 433.778609,372.341524 434.299442,372.341524 C434.836551,372.341524 435.361454,372.292696 435.874149,372.19504 C436.386844,372.097384 436.854781,371.930554 437.277958,371.694552 C437.701135,371.458549 438.034794,371.133028 438.278934,370.717989 C438.523075,370.30295 438.645145,369.76991 438.645145,369.118868 C438.645145,368.37017 438.490523,367.702852 438.181278,367.116915 C437.872033,366.530977 437.456994,366.034558 436.936161,365.627657 C436.415327,365.220756 435.825321,364.903373 435.166141,364.675509 C434.506962,364.447644 433.827437,364.333712 433.127567,364.333712 C432.264937,364.333712 431.438928,364.431368 430.64954,364.62668 C429.860152,364.821993 429.16842,365.131238 428.574344,365.554415 C427.980269,365.977592 427.504195,366.539115 427.146122,367.238985 C426.788049,367.938855 426.609012,368.801485 426.609012,369.826876 C426.609012,370.005912 426.637495,370.315157 426.694462,370.75461 C426.751428,371.194063 426.836877,371.714897 426.950809,372.31711 C427.064741,372.919324 427.19495,373.570365 427.341434,374.270235 C427.487919,374.970105 427.650679,375.678113 427.829715,376.394259 C428.008752,377.110404 428.191857,377.802136 428.379032,378.469454 C428.566206,379.136772 428.753381,379.726778 428.940555,380.239473 C429.12773,380.752169 429.310835,381.15907 429.489872,381.460177 C429.668908,381.761283 429.839807,381.911837 430.002567,381.911837 L430.002567,381.911837 L430.149051,381.911837 Z M455.905887,385.232149 C456.719689,385.199597 457.403283,384.882214 457.956669,384.280001 C458.510054,383.677787 458.957645,382.892468 459.299442,381.924044 C459.641239,380.955619 459.889449,379.844779 460.044071,378.591524 C460.198693,377.338269 460.284143,376.040255 460.300419,374.697481 C460.316695,373.354708 460.280074,372.016003 460.190555,370.681368 C460.101037,369.346733 459.978967,368.113822 459.824344,366.982638 C459.669722,365.851453 459.502893,364.862683 459.323856,364.016329 C459.14482,363.169975 458.973921,362.567761 458.811161,362.209688 C458.6484,361.851615 458.510054,361.782442 458.396122,362.002169 C458.282189,362.221895 458.208947,362.828178 458.176395,363.821016 C458.176395,363.886121 458.180464,364.040743 458.188602,364.284884 C458.19674,364.529024 458.208947,364.817924 458.225223,365.151583 C458.241499,365.485242 458.257775,365.839246 458.274051,366.213595 C458.290327,366.587944 458.306603,366.933809 458.32288,367.251192 C458.339156,367.568575 458.355432,367.849337 458.371708,368.093477 C458.387984,368.337618 458.396122,368.49224 458.396122,368.557345 C458.233361,368.866589 458.005497,369.183972 457.712528,369.509493 C457.419559,369.818738 457.098107,370.09543 456.748172,370.339571 C456.398238,370.583712 456.027958,370.783093 455.637333,370.937716 C455.246708,371.092338 454.872359,371.169649 454.514286,371.169649 C453.9609,371.169649 453.46855,371.039441 453.037235,370.779024 C452.60592,370.518608 452.23564,370.18088 451.926395,369.765841 C451.61715,369.350802 451.356734,368.874727 451.145145,368.337618 C450.933557,367.800509 450.75452,367.255261 450.608036,366.701876 C450.461551,366.14849 450.34355,365.603243 450.254032,365.066134 C450.164514,364.529024 450.091271,364.05295 450.034305,363.637911 C449.977339,363.222872 449.928511,362.885144 449.887821,362.624727 C449.847131,362.364311 449.794234,362.234102 449.72913,362.234102 C449.484989,362.234102 449.305952,362.339897 449.19202,362.551485 C449.078088,362.763074 449.004846,363.007214 448.972294,363.283907 C448.939741,363.5606 448.935672,363.829154 448.960087,364.089571 C448.984501,364.349988 448.996708,364.537162 448.996708,364.651095 C448.996708,365.171928 449.049605,365.725313 449.155399,366.311251 C449.261193,366.897188 449.423954,367.483126 449.64368,368.069063 C449.863407,368.655001 450.136031,369.220593 450.461551,369.765841 C450.787072,370.311088 451.161421,370.787162 451.584598,371.194063 C452.007775,371.600964 452.475712,371.930554 452.988407,372.182833 C453.501102,372.435111 454.066695,372.561251 454.685184,372.561251 C455.010705,372.561251 455.344364,372.479871 455.686161,372.31711 C456.027958,372.15435 456.365685,371.971244 456.699344,371.767794 C457.033003,371.564343 457.354455,371.381238 457.6637,371.218477 C457.972945,371.055717 458.265913,370.974337 458.542606,370.974337 C458.737919,370.974337 458.884403,371.108614 458.982059,371.377169 C459.079715,371.645723 459.14482,371.98752 459.177372,372.402559 C459.209924,372.817598 459.213993,373.277397 459.189579,373.781954 C459.165165,374.286511 459.132613,374.770723 459.091922,375.234591 C459.051232,375.698458 459.010542,376.121635 458.969852,376.504122 C458.929162,376.886609 458.892541,377.159233 458.859989,377.321993 C458.811161,377.647514 458.766402,378.030001 458.725712,378.469454 C458.685021,378.908907 458.619917,379.364636 458.530399,379.836641 C458.440881,380.308647 458.32288,380.772514 458.176395,381.228243 C458.029911,381.683972 457.842736,382.090873 457.614872,382.448946 C457.387007,382.807019 457.110314,383.095919 456.784794,383.315645 C456.459273,383.535372 456.068648,383.653373 455.612919,383.669649 C455.059533,383.669649 454.514286,383.515027 453.977176,383.205782 C453.440067,382.896537 452.927372,382.538464 452.43909,382.131563 C451.950809,381.724662 451.515425,381.305554 451.132938,380.874239 C450.750451,380.442924 450.437137,380.08892 450.192997,379.812227 C450.062788,379.812227 449.948856,379.828503 449.8512,379.861055 C449.786096,379.909884 449.737268,379.970919 449.704715,380.044161 C449.672163,380.117403 449.655887,380.206921 449.655887,380.312716 L449.655887,380.312716 L449.655887,380.642305 C449.655887,381.016654 449.765751,381.391003 449.985477,381.765352 C450.205204,382.139701 450.490034,382.497774 450.839969,382.839571 C451.189904,383.181368 451.588667,383.498751 452.036258,383.79172 C452.48385,384.084688 452.93551,384.336967 453.391239,384.548555 C453.846968,384.760144 454.298628,384.926973 454.746219,385.049044 C455.19381,385.171114 455.580366,385.232149 455.905887,385.232149 Z M466.355106,373.049532 C467.087528,373.049532 467.803674,372.931531 468.503544,372.695528 C469.203413,372.459526 469.830041,372.117729 470.383426,371.670138 C470.936812,371.222546 471.376265,370.67323 471.701786,370.022188 C472.027307,369.371147 472.190067,368.630587 472.190067,367.800509 C472.190067,367.442436 472.141239,367.072156 472.043583,366.689669 C471.945926,366.307182 471.803511,365.928764 471.616337,365.554415 C471.429162,365.180066 471.205366,364.817924 470.94495,364.467989 C470.684533,364.118054 470.387495,363.808809 470.053837,363.540255 C469.720178,363.2717 469.370243,363.060111 469.004032,362.905489 C468.637821,362.750867 468.243127,362.673555 467.81995,362.673555 C467.022424,362.673555 466.228967,362.783419 465.439579,363.003145 C464.650191,363.222872 463.938114,363.5606 463.303348,364.016329 C462.668583,364.472058 462.155887,365.033582 461.765262,365.700899 C461.374637,366.368217 461.179325,367.149467 461.179325,368.044649 C461.179325,368.809623 461.309533,369.505424 461.56995,370.132052 C461.830366,370.758679 462.192508,371.283582 462.656376,371.706759 C463.120243,372.129936 463.66549,372.459526 464.292118,372.695528 C464.918745,372.931531 465.606408,373.049532 466.355106,373.049532 Z M466.229984,371.64335 L466.086551,371.633516 C465.565718,371.633516 465.077437,371.531791 464.621708,371.328341 C464.165978,371.12489 463.771284,370.852266 463.437626,370.51047 C463.103967,370.168673 462.84355,369.765841 462.656376,369.301973 C462.469201,368.838106 462.375614,368.353894 462.375614,367.849337 C462.375614,367.230847 462.530236,366.6856 462.839481,366.213595 C463.148726,365.741589 463.539351,365.350964 464.011356,365.04172 C464.483361,364.732475 465.008264,364.500541 465.586063,364.345919 C466.163863,364.191296 466.721317,364.113985 467.258426,364.113985 C468.202437,364.455782 468.942997,364.826062 469.480106,365.224825 C470.017215,365.623588 470.387495,366.038627 470.590946,366.469942 C470.794396,366.901257 470.867639,367.332572 470.810672,367.763888 C470.753706,368.195203 470.603153,368.610242 470.359012,369.009005 C470.114872,369.407768 469.809696,369.773979 469.443485,370.107638 C469.077274,370.441296 468.694787,370.726127 468.296024,370.96213 C467.897261,371.198132 467.498498,371.377169 467.099735,371.499239 C466.700972,371.621309 466.363244,371.666069 466.086551,371.633516 L466.229984,371.64335 Z M484.323856,372.903048 C484.535445,372.903048 484.710412,372.878634 484.848758,372.829805 C484.987105,372.780977 485.056278,372.634493 485.056278,372.390352 C485.056278,372.227592 484.999312,371.98752 484.88538,371.670138 C484.771447,371.352755 484.641239,371.00282 484.494755,370.620333 C484.34827,370.237846 484.197717,369.843152 484.043094,369.436251 C483.888472,369.02935 483.770471,368.663139 483.68909,368.337618 C483.656538,368.223686 483.632124,367.99989 483.615848,367.666231 C483.599572,367.332572 483.583296,366.946016 483.56702,366.506563 C483.550744,366.06711 483.52633,365.611381 483.493778,365.139376 C483.461226,364.667371 483.40426,364.227917 483.32288,363.821016 C483.241499,363.414115 483.135705,363.080457 483.005497,362.82004 C482.875288,362.559623 482.712528,362.429415 482.517215,362.429415 C482.354455,362.429415 482.216109,362.474174 482.102176,362.563692 C481.988244,362.65321 481.88245,362.77935 481.784794,362.94211 C481.784794,363.088595 481.788863,363.349011 481.797001,363.72336 C481.805139,364.097709 481.809208,364.496472 481.809208,364.919649 C481.809208,365.342826 481.805139,365.741589 481.797001,366.115938 C481.788863,366.490287 481.784794,366.758842 481.784794,366.921602 C481.784794,367.214571 481.666792,367.572644 481.43079,367.995821 C481.194787,368.418998 480.909956,368.829968 480.576297,369.228731 C480.242639,369.627494 479.888635,369.969291 479.514286,370.254122 C479.139937,370.538953 478.806278,370.681368 478.513309,370.681368 C478.05758,370.681368 477.638472,370.559298 477.255985,370.315157 C476.873498,370.071016 476.53577,369.753634 476.242801,369.363009 C475.949833,368.972384 475.697554,368.528861 475.485965,368.032442 C475.274377,367.536023 475.099409,367.035535 474.961063,366.530977 C474.822717,366.02642 474.720991,365.542208 474.655887,365.078341 C474.590783,364.614473 474.558231,364.211641 474.558231,363.869845 C474.558231,363.821016 474.566369,363.731498 474.582645,363.60129 C474.598921,363.471082 474.615197,363.332735 474.631473,363.186251 C474.647749,363.039766 474.664025,362.897351 474.680301,362.759005 C474.696577,362.620658 474.720991,362.518933 474.753544,362.453829 C474.883752,361.949272 474.859338,361.595268 474.680301,361.391817 C474.501265,361.188367 474.285607,361.155815 474.033329,361.294161 C473.78105,361.432507 473.565393,361.74989 473.386356,362.246309 C473.20732,362.742729 473.182906,363.430391 473.313114,364.309298 C473.313114,364.765027 473.357873,365.273653 473.447391,365.835177 C473.536909,366.3967 473.667118,366.966361 473.838016,367.544161 C474.008915,368.12196 474.228641,368.683484 474.497196,369.228731 C474.765751,369.773979 475.083133,370.26226 475.449344,370.693575 C475.815555,371.12489 476.234663,371.466687 476.706669,371.718966 C477.178674,371.971244 477.707645,372.097384 478.293583,372.097384 C478.814416,372.097384 479.241662,371.999727 479.575321,371.804415 C479.90898,371.609102 480.214156,371.377169 480.490848,371.108614 C480.767541,370.840059 481.040165,370.555229 481.308719,370.254122 C481.577274,369.953015 481.898726,369.696667 482.273075,369.485079 C482.533491,369.631563 482.732873,369.818738 482.871219,370.046602 C483.009566,370.274467 483.11536,370.518608 483.188602,370.779024 C483.261844,371.039441 483.314741,371.29172 483.347294,371.53586 C483.379846,371.780001 483.424605,372.003796 483.481571,372.207247 C483.538537,372.410697 483.628055,372.577527 483.750126,372.707735 C483.872196,372.837944 484.063439,372.903048 484.323856,372.903048 Z M356.015751,404.049532 C356.243615,404.049532 356.508101,404.037325 356.809208,404.012911 C357.110314,403.988497 357.41549,403.960014 357.724735,403.927462 C358.03398,403.89491 358.31881,403.837944 358.579227,403.756563 C358.839644,403.675183 359.05937,403.569389 359.238407,403.43918 C359.417443,403.308972 359.506962,403.15435 359.506962,402.975313 C359.506962,402.959037 359.502893,402.950899 359.494755,402.950899 C359.486616,402.950899 359.482547,402.934623 359.482547,402.902071 L359.482547,402.902071 L359.482547,402.828829 C359.433719,402.812553 359.352339,402.771863 359.238407,402.706759 C359.124475,402.641654 359.043094,402.609102 358.994266,402.609102 C358.424605,402.641654 357.830529,402.666069 357.21204,402.682345 C356.59355,402.698621 355.97506,402.682345 355.356571,402.633516 C354.738081,402.584688 354.152144,402.487032 353.598758,402.340548 C353.045373,402.194063 352.557092,401.970268 352.133915,401.669161 C351.710738,401.368054 351.377079,400.97336 351.132938,400.485079 C350.888797,399.996798 350.766727,399.378308 350.766727,398.62961 C350.766727,398.076225 350.852176,397.535046 351.023075,397.006075 C351.193973,396.477104 351.442183,396.001029 351.767704,395.577852 C352.093225,395.154675 352.500126,394.812878 352.988407,394.552462 C353.476688,394.292045 354.030074,394.161837 354.648563,394.161837 C355.462365,394.161837 356.080855,394.418184 356.504032,394.93088 C356.927209,395.443575 357.138797,396.08241 357.138797,396.847384 C357.203902,396.847384 357.281213,396.770072 357.370731,396.61545 C357.460249,396.460828 357.53756,396.28586 357.602665,396.090548 C357.667769,395.895235 357.720666,395.699923 357.761356,395.50461 C357.802046,395.309298 357.822391,395.179089 357.822391,395.113985 C357.822391,394.707084 357.716597,394.369356 357.505008,394.100802 C357.29342,393.832247 357.024865,393.616589 356.699344,393.453829 C356.373824,393.291069 356.027958,393.173067 355.661747,393.099825 C355.295536,393.026583 354.94967,392.989962 354.624149,392.989962 C353.908003,392.989962 353.232547,393.144584 352.597782,393.453829 C351.963016,393.763074 351.405562,394.178113 350.925419,394.698946 C350.445275,395.219779 350.066857,395.817924 349.790165,396.49338 C349.513472,397.168835 349.375126,397.864636 349.375126,398.580782 C349.375126,399.524792 349.52161,400.342664 349.814579,401.034395 C350.107547,401.726127 350.518518,402.295789 351.047489,402.74338 C351.57646,403.190971 352.219364,403.520561 352.9762,403.732149 C353.733036,403.943738 354.583459,404.049532 355.527469,404.049532 L355.527469,404.049532 L356.015751,404.049532 Z M362.827274,404.025118 C363.055139,404.025118 363.258589,403.931531 363.437626,403.744356 C363.616662,403.557182 363.70618,403.382214 363.70618,403.219454 C363.673628,402.780001 363.600386,402.348686 363.486454,401.925509 C363.372521,401.502332 363.246382,401.075085 363.108036,400.64377 C362.969689,400.212455 362.823205,399.78114 362.668583,399.349825 C362.51396,398.91851 362.387821,398.487195 362.290165,398.05588 C362.192508,397.624565 362.135542,397.181042 362.119266,396.725313 C362.10299,396.269584 362.151818,395.805717 362.265751,395.333712 C362.526167,394.910535 362.827274,394.617566 363.169071,394.454805 C363.494592,394.259493 363.844527,394.153699 364.218876,394.137423 C364.593225,394.121147 364.98385,394.153699 365.390751,394.235079 C365.797652,394.316459 366.192346,394.414115 366.574833,394.528048 C366.95732,394.64198 367.323531,394.735567 367.673465,394.808809 C368.0234,394.882052 368.328576,394.902397 368.588993,394.869845 C368.588993,394.609428 368.564579,394.397839 368.515751,394.235079 C368.466922,394.072319 368.397749,393.933972 368.308231,393.82004 C368.218713,393.706108 368.121057,393.604382 368.015262,393.514864 C367.909468,393.425346 367.791467,393.331759 367.661258,393.234102 C367.400842,393.152722 367.172977,393.083549 366.977665,393.026583 C366.782352,392.969617 366.599247,392.920789 366.428348,392.880098 C366.25745,392.839408 366.086551,392.810925 365.915653,392.794649 C365.744755,392.778373 365.545373,392.770235 365.317508,392.770235 C365.008264,392.770235 364.690881,392.810925 364.36536,392.892305 C364.039839,392.973686 363.718387,393.075411 363.401005,393.197481 C363.083622,393.319552 362.770308,393.44976 362.461063,393.588106 C362.151818,393.726453 361.850712,393.844454 361.557743,393.94211 C361.525191,393.909558 361.44381,393.868868 361.313602,393.82004 C361.183394,393.771212 361.102014,393.73866 361.069462,393.722384 L361.069462,393.722384 L361.020633,393.722384 C360.988081,393.722384 360.971805,393.718315 360.971805,393.710177 C360.971805,393.702039 360.963667,393.69797 360.947391,393.69797 C360.931115,393.69797 360.922977,393.702039 360.922977,393.710177 C360.922977,393.718315 360.914839,393.722384 360.898563,393.722384 L360.898563,393.722384 L360.849735,393.722384 C360.752079,393.82004 360.682906,393.933972 360.642215,394.06418 C360.601525,394.194389 360.577111,394.332735 360.568973,394.47922 C360.560835,394.625704 360.564904,394.768119 360.58118,394.906466 C360.597456,395.044812 360.605594,395.170951 360.605594,395.284884 C360.638146,395.887097 360.70732,396.558484 360.813114,397.299044 C360.918908,398.039604 361.061324,398.800509 361.24036,399.581759 C361.419396,400.363009 361.639123,401.136121 361.89954,401.901095 C362.159956,402.666069 362.469201,403.374076 362.827274,404.025118 Z M374.448368,404.049532 C375.18079,404.049532 375.896935,403.931531 376.596805,403.695528 C377.296675,403.459526 377.923303,403.117729 378.476688,402.670138 C379.030074,402.222546 379.469527,401.67323 379.795047,401.022188 C380.120568,400.371147 380.283329,399.630587 380.283329,398.800509 C380.283329,398.442436 380.234501,398.072156 380.136844,397.689669 C380.039188,397.307182 379.896773,396.928764 379.709598,396.554415 C379.522424,396.180066 379.298628,395.817924 379.038212,395.467989 C378.777795,395.118054 378.480757,394.808809 378.147098,394.540255 C377.813439,394.2717 377.463505,394.060111 377.097294,393.905489 C376.731083,393.750867 376.336389,393.673555 375.913212,393.673555 C375.115685,393.673555 374.322228,393.783419 373.53284,394.003145 C372.743452,394.222872 372.031376,394.5606 371.39661,395.016329 C370.761844,395.472058 370.249149,396.033582 369.858524,396.700899 C369.467899,397.368217 369.272587,398.149467 369.272587,399.044649 C369.272587,399.809623 369.402795,400.505424 369.663212,401.132052 C369.923628,401.758679 370.28577,402.283582 370.749637,402.706759 C371.213505,403.129936 371.758752,403.459526 372.38538,403.695528 C373.012007,403.931531 373.69967,404.049532 374.448368,404.049532 Z M374.323246,402.64335 L374.179813,402.633516 C373.65898,402.633516 373.170699,402.531791 372.714969,402.328341 C372.25924,402.12489 371.864546,401.852266 371.530887,401.51047 C371.197228,401.168673 370.936812,400.765841 370.749637,400.301973 C370.562463,399.838106 370.468876,399.353894 370.468876,398.849337 C370.468876,398.230847 370.623498,397.6856 370.932743,397.213595 C371.241988,396.741589 371.632613,396.350964 372.104618,396.04172 C372.576623,395.732475 373.101525,395.500541 373.679325,395.345919 C374.257124,395.191296 374.814579,395.113985 375.351688,395.113985 C376.295699,395.455782 377.036258,395.826062 377.573368,396.224825 C378.110477,396.623588 378.480757,397.038627 378.684208,397.469942 C378.887658,397.901257 378.9609,398.332572 378.903934,398.763888 C378.846968,399.195203 378.696415,399.610242 378.452274,400.009005 C378.208133,400.407768 377.902958,400.773979 377.536747,401.107638 C377.170536,401.441296 376.788049,401.726127 376.389286,401.96213 C375.990523,402.198132 375.59176,402.377169 375.192997,402.499239 C374.794234,402.621309 374.456506,402.666069 374.179813,402.633516 L374.323246,402.64335 Z M389.121219,404.025118 C389.544396,404.025118 389.991988,403.968152 390.463993,403.85422 C390.935998,403.740287 391.371382,403.561251 391.770145,403.31711 C392.168908,403.07297 392.498498,402.767794 392.758915,402.401583 C393.019331,402.035372 393.14954,401.599988 393.14954,401.09543 C393.14954,400.428113 393.011193,399.886934 392.734501,399.471895 C392.457808,399.056856 392.083459,398.727266 391.611454,398.483126 C391.139449,398.238985 390.610477,398.064018 390.02454,397.958223 C389.438602,397.852429 388.83232,397.771049 388.205692,397.714083 C387.579064,397.657117 386.968713,397.596082 386.374637,397.530977 C385.780562,397.465873 385.255659,397.360079 384.79993,397.213595 C384.344201,397.06711 383.973921,396.859591 383.68909,396.591036 C383.40426,396.322481 383.261844,395.944063 383.261844,395.455782 C383.229292,395.179089 383.331018,394.934949 383.56702,394.72336 C383.803023,394.511772 384.112268,394.340873 384.494755,394.210665 C384.877241,394.080457 385.300419,393.995007 385.764286,393.954317 C386.228153,393.913627 386.663537,393.929903 387.070438,394.003145 C387.477339,394.076388 387.835412,394.202527 388.144657,394.381563 C388.453902,394.5606 388.641076,394.80474 388.70618,395.113985 C388.527144,395.42323 388.433557,395.679578 388.425419,395.883028 C388.417281,396.086479 388.453902,396.241101 388.535282,396.346895 C388.616662,396.45269 388.730594,396.509656 388.877079,396.517794 C389.023563,396.525932 389.165978,396.477104 389.304325,396.371309 C389.442671,396.265515 389.552534,396.106824 389.633915,395.895235 C389.715295,395.683647 389.739709,395.415092 389.707157,395.089571 C389.690881,394.536186 389.499637,394.072319 389.133426,393.69797 C388.767215,393.323621 388.311486,393.050997 387.766239,392.880098 C387.220991,392.7092 386.622847,392.62782 385.971805,392.635958 C385.320764,392.644096 384.706343,392.741752 384.128544,392.928927 C383.550744,393.116101 383.054325,393.384656 382.639286,393.734591 C382.224247,394.084526 381.967899,394.51991 381.870243,395.040743 C381.886519,395.756889 382.033003,396.342826 382.309696,396.798555 C382.586389,397.254285 382.9526,397.612358 383.408329,397.872774 C383.864058,398.133191 384.380822,398.324434 384.958622,398.446505 C385.536421,398.568575 386.126428,398.662162 386.728641,398.727266 C387.330855,398.792371 387.916792,398.853406 388.486454,398.910372 C389.056115,398.967338 389.56881,399.069063 390.02454,399.215548 C390.480269,399.362032 390.842411,399.569552 391.110965,399.838106 C391.37952,400.106661 391.505659,400.476941 391.489383,400.948946 C391.489383,401.437227 391.334761,401.799369 391.025516,402.035372 C390.716271,402.271375 390.341922,402.434135 389.902469,402.523653 C389.463016,402.613171 388.999149,402.653861 388.510868,402.645723 C388.022587,402.637585 387.607547,402.633516 387.265751,402.633516 C386.826297,402.633516 386.468225,402.625378 386.191532,402.609102 C385.914839,402.592826 385.670699,402.552136 385.45911,402.487032 C385.247521,402.421928 385.015588,402.33241 384.763309,402.218477 C384.511031,402.104545 384.173303,401.958061 383.750126,401.779024 C383.603641,401.71392 383.465295,401.63254 383.335087,401.534884 C383.204878,401.437227 383.078739,401.335502 382.956669,401.229708 C382.834598,401.123914 382.700321,401.034395 382.553837,400.961153 C382.407352,400.887911 382.260868,400.85129 382.114383,400.85129 C381.984175,400.85129 381.866174,400.863497 381.76038,400.887911 C381.654585,400.912325 381.536584,400.97336 381.406376,401.071016 C381.617964,401.59185 381.894657,402.023165 382.236454,402.364962 C382.578251,402.706759 382.964807,402.98752 383.396122,403.207247 C383.827437,403.426973 384.295373,403.589734 384.79993,403.695528 C385.304488,403.801322 385.804976,403.878634 386.301395,403.927462 C386.797814,403.97629 387.286096,404.004773 387.766239,404.012911 C388.246382,404.021049 388.698042,404.025118 389.121219,404.025118 Z M401.98743,404.025118 C402.410607,404.025118 402.858199,403.968152 403.330204,403.85422 C403.802209,403.740287 404.237593,403.561251 404.636356,403.31711 C405.035119,403.07297 405.364709,402.767794 405.625126,402.401583 C405.885542,402.035372 406.015751,401.599988 406.015751,401.09543 C406.015751,400.428113 405.877404,399.886934 405.600712,399.471895 C405.324019,399.056856 404.94967,398.727266 404.477665,398.483126 C404.005659,398.238985 403.476688,398.064018 402.890751,397.958223 C402.304813,397.852429 401.698531,397.771049 401.071903,397.714083 C400.445275,397.657117 399.834924,397.596082 399.240848,397.530977 C398.646773,397.465873 398.12187,397.360079 397.666141,397.213595 C397.210412,397.06711 396.840132,396.859591 396.555301,396.591036 C396.270471,396.322481 396.128055,395.944063 396.128055,395.455782 C396.095503,395.179089 396.197228,394.934949 396.433231,394.72336 C396.669234,394.511772 396.978478,394.340873 397.360965,394.210665 C397.743452,394.080457 398.16663,393.995007 398.630497,393.954317 C399.094364,393.913627 399.529748,393.929903 399.936649,394.003145 C400.34355,394.076388 400.701623,394.202527 401.010868,394.381563 C401.320113,394.5606 401.507287,394.80474 401.572391,395.113985 C401.393355,395.42323 401.299768,395.679578 401.29163,395.883028 C401.283491,396.086479 401.320113,396.241101 401.401493,396.346895 C401.482873,396.45269 401.596805,396.509656 401.74329,396.517794 C401.889774,396.525932 402.032189,396.477104 402.170536,396.371309 C402.308882,396.265515 402.418745,396.106824 402.500126,395.895235 C402.581506,395.683647 402.60592,395.415092 402.573368,395.089571 C402.557092,394.536186 402.365848,394.072319 401.999637,393.69797 C401.633426,393.323621 401.177697,393.050997 400.63245,392.880098 C400.087202,392.7092 399.489058,392.62782 398.838016,392.635958 C398.186975,392.644096 397.572554,392.741752 396.994755,392.928927 C396.416955,393.116101 395.920536,393.384656 395.505497,393.734591 C395.090458,394.084526 394.83411,394.51991 394.736454,395.040743 C394.75273,395.756889 394.899214,396.342826 395.175907,396.798555 C395.4526,397.254285 395.81881,397.612358 396.27454,397.872774 C396.730269,398.133191 397.247033,398.324434 397.824833,398.446505 C398.402632,398.568575 398.992639,398.662162 399.594852,398.727266 C400.197066,398.792371 400.783003,398.853406 401.352665,398.910372 C401.922326,398.967338 402.435021,399.069063 402.890751,399.215548 C403.34648,399.362032 403.708622,399.569552 403.977176,399.838106 C404.245731,400.106661 404.37187,400.476941 404.355594,400.948946 C404.355594,401.437227 404.200972,401.799369 403.891727,402.035372 C403.582482,402.271375 403.208133,402.434135 402.76868,402.523653 C402.329227,402.613171 401.86536,402.653861 401.377079,402.645723 C400.888797,402.637585 400.473758,402.633516 400.131962,402.633516 C399.692508,402.633516 399.334435,402.625378 399.057743,402.609102 C398.78105,402.592826 398.536909,402.552136 398.325321,402.487032 C398.113732,402.421928 397.881799,402.33241 397.62952,402.218477 C397.377241,402.104545 397.039514,401.958061 396.616337,401.779024 C396.469852,401.71392 396.331506,401.63254 396.201297,401.534884 C396.071089,401.437227 395.94495,401.335502 395.82288,401.229708 C395.700809,401.123914 395.566532,401.034395 395.420047,400.961153 C395.273563,400.887911 395.127079,400.85129 394.980594,400.85129 C394.850386,400.85129 394.732385,400.863497 394.62659,400.887911 C394.520796,400.912325 394.402795,400.97336 394.272587,401.071016 C394.484175,401.59185 394.760868,402.023165 395.102665,402.364962 C395.444462,402.706759 395.831018,402.98752 396.262333,403.207247 C396.693648,403.426973 397.161584,403.589734 397.666141,403.695528 C398.170699,403.801322 398.671187,403.878634 399.167606,403.927462 C399.664025,403.97629 400.152307,404.004773 400.63245,404.012911 C401.112593,404.021049 401.564253,404.025118 401.98743,404.025118 Z M420.273563,403.964083 C420.501428,404.232638 420.802534,404.252983 421.176883,404.025118 C421.176883,403.97629 421.172814,403.748425 421.164676,403.341524 C421.156538,402.934623 421.144331,402.442273 421.128055,401.864473 C421.111779,401.286674 421.091434,400.655977 421.06702,399.972384 C421.042606,399.28879 421.022261,398.645886 421.005985,398.043673 C420.989709,397.441459 420.973433,396.920626 420.957157,396.481173 C420.940881,396.04172 420.932743,395.773165 420.932743,395.675509 C421.160607,395.529024 421.421024,395.451713 421.713993,395.443575 C422.006962,395.435437 422.303999,395.435437 422.605106,395.443575 C422.906213,395.451713 423.195113,395.435437 423.471805,395.394747 C423.748498,395.354057 423.984501,395.227917 424.179813,395.016329 C424.163537,394.64198 424.037398,394.385632 423.801395,394.247286 C423.565393,394.10894 423.309045,394.056042 423.032352,394.088595 L423.032352,394.088595 L420.932743,393.990938 L420.73743,389.425509 C420.73743,389.327852 420.713016,389.226127 420.664188,389.120333 C420.61536,389.014539 420.550256,388.912813 420.468876,388.815157 C420.387495,388.717501 420.293908,388.636121 420.188114,388.571016 C420.08232,388.505912 419.980594,388.47336 419.882938,388.47336 C419.83411,388.47336 419.764937,388.481498 419.675419,388.497774 C419.5859,388.51405 419.50452,388.538464 419.431278,388.571016 C419.358036,388.603569 419.297001,388.652397 419.248172,388.717501 C419.199344,388.782605 419.17493,388.872123 419.17493,388.986055 C419.191206,389.571993 419.211551,390.048067 419.235965,390.414278 C419.26038,390.780489 419.280725,391.130424 419.297001,391.464083 C419.313277,391.797742 419.305139,392.155815 419.272587,392.538302 C419.240034,392.920789 419.191206,393.413139 419.126102,394.015352 L419.126102,394.015352 L416.611454,394.235079 C416.481245,394.235079 416.403934,394.296114 416.37952,394.418184 C416.355106,394.540255 416.342899,394.633842 416.342899,394.698946 C416.342899,394.943087 416.485314,395.130261 416.770145,395.26047 C417.054976,395.390678 417.372359,395.484265 417.722294,395.541231 C418.072228,395.598197 418.409956,395.62668 418.735477,395.62668 L418.735477,395.62668 L419.419071,395.62668 C419.386519,395.887097 419.362105,396.310274 419.345829,396.896212 C419.329553,397.482149 419.325484,398.120984 419.333622,398.812716 C419.34176,399.504447 419.374312,400.204317 419.431278,400.912325 C419.488244,401.620333 419.5859,402.238822 419.724247,402.767794 C419.862593,403.296765 420.045699,403.695528 420.273563,403.964083 Z M433.033076,404.048628 L433.11536,404.037325 C433.359501,403.980359 433.554813,403.776908 433.701297,403.426973 C433.847782,403.077039 433.957645,402.613171 434.030887,402.035372 C434.10413,401.457572 434.120406,400.826876 434.079715,400.143282 C434.039025,399.459688 433.949507,398.75168 433.811161,398.019259 C433.672814,397.286837 433.473433,396.595105 433.213016,395.944063 C432.9526,395.293022 432.62301,394.707084 432.224247,394.186251 C431.825484,393.665417 431.357547,393.278861 430.820438,393.026583 C430.283329,392.774304 429.668908,392.672579 428.977176,392.721407 C428.285445,392.770235 427.516402,393.055066 426.670047,393.575899 C426.621219,393.185274 426.588667,392.851615 426.572391,392.574923 C426.556115,392.29823 426.531701,392.029675 426.499149,391.769259 C426.466597,391.508842 426.425907,391.240287 426.377079,390.963595 C426.328251,390.686902 426.24687,390.345105 426.132938,389.938204 C426.019006,389.531303 425.868452,389.047091 425.681278,388.485567 C425.494103,387.924044 425.245894,387.236381 424.936649,386.422579 C424.871545,386.422579 424.786096,386.434786 424.680301,386.4592 C424.574507,386.483614 424.468713,386.520235 424.362919,386.569063 C424.257124,386.617891 424.163537,386.670789 424.082157,386.727755 C424.000777,386.784721 423.960087,386.845756 423.960087,386.91086 L423.960087,386.91086 L423.960087,387.008516 C424.025191,387.382865 424.082157,387.704317 424.130985,387.972872 C424.179813,388.241427 424.236779,388.501843 424.301883,388.754122 C424.366988,389.006401 424.436161,389.291231 424.509403,389.608614 C424.582645,389.925997 424.68437,390.312553 424.814579,390.768282 C425.074995,391.940157 425.274377,393.083549 425.412723,394.198458 C425.55107,395.313367 425.656864,396.36724 425.730106,397.360079 C425.803348,398.352917 425.860314,399.264376 425.901005,400.094454 C425.941695,400.924532 425.986454,401.63254 426.035282,402.218477 C426.08411,402.804415 426.157352,403.252006 426.255008,403.561251 C426.352665,403.870496 426.499149,404.008842 426.694462,403.97629 C426.889774,403.97629 427.056603,403.947807 427.19495,403.890841 C427.333296,403.833875 427.451297,403.691459 427.548954,403.463595 L427.548954,403.463595 L427.548954,403.243868 C427.548954,403.146212 427.553023,403.040417 427.561161,402.926485 L427.570316,402.76169 L427.570316,402.76169 L427.573368,402.609102 L427.573368,402.609102 L427.573368,402.41379 C427.573368,402.039441 427.532678,401.55116 427.451297,400.948946 C427.369917,400.346733 427.288537,399.724174 427.207157,399.08127 C427.125777,398.438367 427.048465,397.819877 426.975223,397.225802 C426.901981,396.631726 426.86536,396.155652 426.86536,395.797579 C426.86536,395.781303 426.869429,395.728406 426.877567,395.638888 C426.885705,395.549369 426.889774,395.488334 426.889774,395.455782 C427.150191,395.276746 427.378055,395.122123 427.573368,394.991915 C427.76868,394.877983 427.947717,394.784395 428.110477,394.711153 C428.273238,394.637911 428.435998,394.585014 428.598758,394.552462 C428.761519,394.51991 428.956831,394.503634 429.184696,394.503634 C429.754357,394.503634 430.246708,394.605359 430.661747,394.808809 C431.076786,395.01226 431.422652,395.288953 431.699344,395.638888 C431.976037,395.988822 432.187626,396.399792 432.33411,396.871798 C432.480594,397.343803 432.553837,397.840222 432.553837,398.361055 C432.553837,398.719128 432.549768,399.117891 432.54163,399.557345 C432.533491,399.996798 432.517215,400.444389 432.492801,400.900118 C432.468387,401.355847 432.439904,401.811576 432.407352,402.267305 C432.3748,402.723035 432.342248,403.162488 432.309696,403.585665 C432.602665,403.943738 432.871219,404.094291 433.11536,404.037325 L433.033076,404.048628 Z M436.655399,390.597384 C436.915816,390.564832 437.037886,390.450899 437.02161,390.255587 C437.005334,390.092826 436.936161,389.91379 436.81409,389.718477 C436.69202,389.523165 436.537398,389.348197 436.350223,389.193575 C436.163049,389.038953 436.012495,388.969779 435.898563,388.986055 C435.719527,388.986055 435.573042,389.014539 435.45911,389.071505 C435.345178,389.128471 435.288212,389.25461 435.288212,389.449923 C435.288212,389.710339 435.308557,389.91379 435.349247,390.060274 C435.389937,390.206759 435.455041,390.316622 435.544559,390.389864 C435.634077,390.463106 435.760217,390.516003 435.922977,390.548555 C436.085738,390.581108 436.289188,390.597384 436.533329,390.597384 L436.533329,390.597384 L436.655399,390.597384 Z M438.071415,404.049532 C438.348107,404.049532 438.555627,403.9356 438.693973,403.707735 C438.83232,403.479871 438.901493,403.252006 438.901493,403.024141 C438.901493,402.177787 438.83232,401.363985 438.693973,400.582735 C438.555627,399.801485 438.409143,399.024304 438.25452,398.251192 C438.099898,397.47808 437.961551,396.69683 437.839481,395.907442 C437.717411,395.118054 437.68079,394.300183 437.729618,393.453829 C437.631962,393.291069 437.526167,393.168998 437.412235,393.087618 C437.298303,393.006238 437.159956,392.965548 436.997196,392.965548 C436.639123,392.965548 436.492639,393.217826 436.557743,393.722384 L436.557743,393.722384 L436.557743,394.088595 C436.557743,394.267631 436.553674,394.454805 436.545536,394.650118 C436.537398,394.84543 436.533329,395.032605 436.533329,395.211641 L436.533329,395.211641 L436.533329,395.577852 C436.533329,395.756889 436.541467,396.094617 436.557743,396.591036 C436.574019,397.087455 436.602502,397.648979 436.643192,398.275606 C436.683882,398.902234 436.744917,399.557345 436.826297,400.240938 C436.907678,400.924532 437.005334,401.547091 437.119266,402.108614 C437.233199,402.670138 437.367476,403.134005 437.522098,403.500216 C437.676721,403.866427 437.859826,404.049532 438.071415,404.049532 Z M447.495243,404.025118 C447.91842,404.025118 448.366011,403.968152 448.838016,403.85422 C449.310021,403.740287 449.745406,403.561251 450.144169,403.31711 C450.542932,403.07297 450.872521,402.767794 451.132938,402.401583 C451.393355,402.035372 451.523563,401.599988 451.523563,401.09543 C451.523563,400.428113 451.385217,399.886934 451.108524,399.471895 C450.831831,399.056856 450.457482,398.727266 449.985477,398.483126 C449.513472,398.238985 448.984501,398.064018 448.398563,397.958223 C447.812626,397.852429 447.206343,397.771049 446.579715,397.714083 C445.953088,397.657117 445.342736,397.596082 444.748661,397.530977 C444.154585,397.465873 443.629683,397.360079 443.173954,397.213595 C442.718225,397.06711 442.347945,396.859591 442.063114,396.591036 C441.778283,396.322481 441.635868,395.944063 441.635868,395.455782 C441.603316,395.179089 441.705041,394.934949 441.941044,394.72336 C442.177046,394.511772 442.486291,394.340873 442.868778,394.210665 C443.251265,394.080457 443.674442,393.995007 444.138309,393.954317 C444.602176,393.913627 445.03756,393.929903 445.444462,394.003145 C445.851363,394.076388 446.209435,394.202527 446.51868,394.381563 C446.827925,394.5606 447.0151,394.80474 447.080204,395.113985 C446.901167,395.42323 446.80758,395.679578 446.799442,395.883028 C446.791304,396.086479 446.827925,396.241101 446.909305,396.346895 C446.990685,396.45269 447.104618,396.509656 447.251102,396.517794 C447.397587,396.525932 447.540002,396.477104 447.678348,396.371309 C447.816695,396.265515 447.926558,396.106824 448.007938,395.895235 C448.089318,395.683647 448.113732,395.415092 448.08118,395.089571 C448.064904,394.536186 447.873661,394.072319 447.50745,393.69797 C447.141239,393.323621 446.68551,393.050997 446.140262,392.880098 C445.595015,392.7092 444.99687,392.62782 444.345829,392.635958 C443.694787,392.644096 443.080366,392.741752 442.502567,392.928927 C441.924768,393.116101 441.428348,393.384656 441.013309,393.734591 C440.59827,394.084526 440.341922,394.51991 440.244266,395.040743 C440.260542,395.756889 440.407027,396.342826 440.683719,396.798555 C440.960412,397.254285 441.326623,397.612358 441.782352,397.872774 C442.238081,398.133191 442.754846,398.324434 443.332645,398.446505 C443.910445,398.568575 444.500451,398.662162 445.102665,398.727266 C445.704878,398.792371 446.290816,398.853406 446.860477,398.910372 C447.430139,398.967338 447.942834,399.069063 448.398563,399.215548 C448.854292,399.362032 449.216434,399.569552 449.484989,399.838106 C449.753544,400.106661 449.879683,400.476941 449.863407,400.948946 C449.863407,401.437227 449.708784,401.799369 449.39954,402.035372 C449.090295,402.271375 448.715946,402.434135 448.276493,402.523653 C447.83704,402.613171 447.373172,402.653861 446.884891,402.645723 C446.39661,402.637585 445.981571,402.633516 445.639774,402.633516 C445.200321,402.633516 444.842248,402.625378 444.565555,402.609102 C444.288863,402.592826 444.044722,402.552136 443.833133,402.487032 C443.621545,402.421928 443.389611,402.33241 443.137333,402.218477 C442.885054,402.104545 442.547326,401.958061 442.124149,401.779024 C441.977665,401.71392 441.839318,401.63254 441.70911,401.534884 C441.578902,401.437227 441.452762,401.335502 441.330692,401.229708 C441.208622,401.123914 441.074344,401.034395 440.92786,400.961153 C440.781376,400.887911 440.634891,400.85129 440.488407,400.85129 C440.358199,400.85129 440.240197,400.863497 440.134403,400.887911 C440.028609,400.912325 439.910607,400.97336 439.780399,401.071016 C439.991988,401.59185 440.26868,402.023165 440.610477,402.364962 C440.952274,402.706759 441.33883,402.98752 441.770145,403.207247 C442.20146,403.426973 442.669396,403.589734 443.173954,403.695528 C443.678511,403.801322 444.178999,403.878634 444.675419,403.927462 C445.171838,403.97629 445.660119,404.004773 446.140262,404.012911 C446.620406,404.021049 447.072066,404.025118 447.495243,404.025118 Z M466.782352,404.049532 C466.880008,404.049532 466.985803,403.858289 467.099735,403.475802 C467.213667,403.093315 467.335738,402.592826 467.465946,401.974337 C467.596154,401.355847 467.718225,400.647839 467.832157,399.850313 C467.946089,399.052787 468.06409,398.234916 468.186161,397.3967 C468.308231,396.558484 468.418094,395.728406 468.515751,394.906466 C468.613407,394.084526 468.698856,393.348035 468.772098,392.696993 C468.84534,392.045951 468.902307,391.504773 468.942997,391.073458 C468.983687,390.642143 469.004032,390.393933 469.004032,390.328829 L469.004032,390.328829 L469.004032,390.182345 C469.004032,390.100964 468.999963,390.015515 468.991825,389.925997 C468.983687,389.836479 468.979618,389.751029 468.979618,389.669649 L468.979618,389.669649 L468.979618,389.498751 C468.93079,389.384819 468.865685,389.319714 468.784305,389.303438 C468.702925,389.287162 468.613407,389.279024 468.515751,389.279024 C468.336714,389.279024 468.186161,389.352266 468.06409,389.498751 C467.94202,389.645235 467.844364,389.83241 467.771122,390.060274 C467.69788,390.288139 467.636844,390.544486 467.588016,390.829317 C467.539188,391.114148 467.486291,391.398979 467.429325,391.683809 C467.372359,391.96864 467.303185,392.233126 467.221805,392.477266 C467.140425,392.721407 467.034631,392.908582 466.904422,393.03879 L466.904422,393.03879 L462.436649,397.72629 C462.404097,397.758842 462.367476,397.803601 462.326786,397.860567 C462.286096,397.917533 462.241337,397.982638 462.192508,398.05588 C462.14368,398.129122 462.098921,398.198295 462.058231,398.263399 C462.017541,398.328503 461.98092,398.377332 461.948368,398.409884 L461.948368,398.409884 L461.948368,398.556368 C461.948368,398.963269 462.14368,399.16672 462.534305,399.16672 C462.68079,399.16672 462.859826,399.093477 463.071415,398.946993 C463.283003,398.800509 463.498661,398.617403 463.718387,398.397677 C463.938114,398.17795 464.170047,397.933809 464.414188,397.665255 C464.658329,397.3967 464.878055,397.140352 465.073368,396.896212 C465.26868,396.652071 465.447717,396.436414 465.610477,396.249239 C465.773238,396.062065 465.88717,395.935925 465.952274,395.870821 C466.082482,395.903373 466.188277,395.952201 466.269657,396.017305 C466.334761,396.098686 466.37952,396.180066 466.403934,396.261446 C466.428348,396.342826 466.440555,396.432345 466.440555,396.530001 L466.440555,396.530001 L466.440555,396.82297 C466.440555,397.002006 466.432417,397.242078 466.416141,397.543184 C466.399865,397.844291 466.375451,398.186088 466.342899,398.568575 C466.310347,398.951062 466.277795,399.353894 466.245243,399.777071 C466.212691,400.200248 466.180139,400.60308 466.147587,400.985567 C466.115034,401.368054 466.09062,401.71392 466.074344,402.023165 C466.058068,402.33241 466.04993,402.568412 466.04993,402.731173 L466.04993,402.731173 L466.04993,402.877657 C466.04993,402.959037 466.053999,403.044486 466.062137,403.134005 C466.070275,403.223523 466.074344,403.304903 466.074344,403.378145 L466.074344,403.378145 L466.074344,403.536837 C466.172001,403.732149 466.273726,403.866427 466.37952,403.939669 C466.485314,404.012911 466.619592,404.049532 466.782352,404.049532 Z M475.376102,404.049532 C476.092248,404.049532 476.718876,403.878634 477.255985,403.536837 C477.793094,403.19504 478.240685,402.759656 478.598758,402.230684 C478.956831,401.701713 479.225386,401.119845 479.404422,400.485079 C479.583459,399.850313 479.672977,399.223686 479.672977,398.605196 C479.672977,398.263399 479.611942,397.893119 479.489872,397.494356 C479.367801,397.095593 479.196903,396.69683 478.977176,396.298067 C478.75745,395.899304 478.501102,395.516817 478.208133,395.150606 C477.915165,394.784395 477.597782,394.458875 477.255985,394.174044 C476.914188,393.889213 476.560184,393.661348 476.193973,393.49045 C475.827762,393.319552 475.457482,393.234102 475.083133,393.234102 C474.48092,393.234102 473.878706,393.40907 473.276493,393.759005 C472.674279,394.10894 472.133101,394.548393 471.652958,395.077364 C471.172814,395.606335 470.782189,396.184135 470.481083,396.810763 C470.179976,397.43739 470.029422,398.027397 470.029422,398.580782 C470.029422,399.32948 470.1637,400.037488 470.432255,400.704805 C470.700809,401.372123 471.079227,401.953992 471.567508,402.450411 C472.05579,402.94683 472.625451,403.337455 473.276493,403.622286 C473.927534,403.907117 474.627404,404.049532 475.376102,404.049532 Z M474.985477,402.633516 C474.415816,402.633516 473.886844,402.519584 473.398563,402.29172 C472.910282,402.063855 472.491174,401.75461 472.141239,401.363985 C471.791304,400.97336 471.534956,400.525769 471.372196,400.021212 C471.209435,399.516654 471.160607,398.979545 471.225712,398.409884 C471.27454,398.019259 471.388472,397.616427 471.567508,397.201388 C471.746545,396.786348 471.978478,396.403861 472.263309,396.053927 C472.54814,395.703992 472.87773,395.419161 473.252079,395.199434 C473.626428,394.979708 474.025191,394.869845 474.448368,394.869845 C475.050581,394.869845 475.587691,394.987846 476.059696,395.223848 C476.531701,395.459851 476.930464,395.773165 477.255985,396.16379 C477.581506,396.554415 477.829715,397.002006 478.000614,397.506563 C478.171512,398.011121 478.256962,398.531954 478.256962,399.069063 C478.256962,399.475964 478.199995,399.809623 478.086063,400.07004 C477.972131,400.330457 477.845991,400.558321 477.707645,400.753634 C477.569299,400.948946 477.43909,401.132052 477.31702,401.30295 C477.19495,401.473848 477.117639,401.67323 477.085087,401.901095 C476.857222,402.031303 476.65784,402.145235 476.486942,402.242891 C476.316044,402.340548 476.153283,402.417859 475.998661,402.474825 C475.844038,402.531791 475.689416,402.572481 475.534794,402.596895 C475.380171,402.621309 475.197066,402.633516 474.985477,402.633516 Z M484.336063,404.049532 C484.466271,404.049532 484.645308,403.886772 484.873172,403.561251 C485.117313,403.23573 485.389937,402.820691 485.691044,402.316134 C485.99215,401.811576 486.305464,401.254122 486.630985,400.64377 C486.956506,400.033419 487.265751,399.45155 487.558719,398.898165 C487.851688,398.344779 488.103967,397.84836 488.315555,397.408907 C488.527144,396.969454 488.681766,396.668347 488.779422,396.505587 C489.104943,395.756889 489.471154,395.089571 489.878055,394.503634 C490.284956,393.917696 490.708133,393.360242 491.147587,392.83127 L491.147587,392.83127 L492.465946,391.244356 C492.905399,390.715385 493.320438,390.125378 493.711063,389.474337 L493.711063,389.474337 L493.711063,389.327852 C493.727339,389.246472 493.731408,389.169161 493.72327,389.095919 C493.715132,389.022677 493.686649,388.949434 493.637821,388.876192 C493.588993,388.80295 493.532027,388.766329 493.466922,388.766329 C493.369266,388.766329 493.14954,388.941296 492.807743,389.291231 C492.465946,389.641166 492.063114,390.109102 491.599247,390.69504 C491.13538,391.280977 490.618615,391.956433 490.048954,392.721407 C489.479292,393.486381 488.909631,394.283907 488.339969,395.113985 C487.770308,395.944063 487.212853,396.77821 486.667606,397.616427 C486.122359,398.454643 485.646284,399.244031 485.239383,399.984591 C484.832482,400.725151 484.502893,401.388399 484.250614,401.974337 C483.998335,402.560274 483.872196,403.007865 483.872196,403.31711 C483.872196,403.479871 483.900679,403.642631 483.957645,403.805391 C484.014611,403.968152 484.140751,404.049532 484.336063,404.049532 Z M483.628055,396.798555 C484.051232,396.798555 484.462202,396.704968 484.860965,396.517794 C485.259728,396.330619 485.613732,396.08241 485.922977,395.773165 C486.232222,395.46392 486.476363,395.105847 486.655399,394.698946 C486.834435,394.292045 486.923954,393.868868 486.923954,393.429415 C486.923954,393.006238 486.822228,392.611544 486.618778,392.245333 C486.415327,391.879122 486.154911,391.561739 485.837528,391.293184 C485.520145,391.02463 485.162072,390.813041 484.763309,390.658419 C484.364546,390.503796 483.97799,390.426485 483.603641,390.426485 C483.180464,390.426485 482.773563,390.532279 482.382938,390.743868 C482.024865,390.955457 481.707482,391.22808 481.43079,391.561739 C481.154097,391.895398 480.938439,392.273816 480.783817,392.696993 C480.629195,393.12017 480.551883,393.535209 480.551883,393.94211 C480.551883,394.332735 480.645471,394.698946 480.832645,395.040743 C481.01982,395.38254 481.259891,395.683647 481.55286,395.944063 C481.845829,396.20448 482.175419,396.412 482.54163,396.566622 C482.90784,396.721244 483.269982,396.798555 483.628055,396.798555 Z M483.750126,395.553438 C483.424605,395.634819 483.147912,395.642957 482.920047,395.577852 C482.724735,395.529024 482.570113,395.439506 482.45618,395.309298 C482.342248,395.179089 482.244592,395.028536 482.163212,394.857638 C482.081831,394.686739 482.028934,394.507703 482.00452,394.320528 C481.980106,394.133354 481.967899,393.966524 481.967899,393.82004 C481.967899,393.592175 482.008589,393.364311 482.089969,393.136446 C482.17135,392.908582 482.289351,392.696993 482.443973,392.50168 C482.598596,392.306368 482.789839,392.143608 483.017704,392.013399 C483.245568,391.883191 483.489709,391.818087 483.750126,391.818087 C483.97799,391.818087 484.209924,391.870984 484.445926,391.976778 C484.681929,392.082572 484.897587,392.224988 485.092899,392.404024 C485.288212,392.583061 485.442834,392.786511 485.556766,393.014376 C485.670699,393.24224 485.727665,393.478243 485.727665,393.722384 C485.727665,393.999076 485.625939,394.263562 485.422489,394.515841 C485.219038,394.768119 484.970829,394.983777 484.67786,395.162813 C484.384891,395.34185 484.075646,395.472058 483.750126,395.553438 Z M491.70911,403.829805 C492.197391,403.829805 492.673465,403.699597 493.137333,403.43918 C493.6012,403.178764 494.016239,402.841036 494.38245,402.425997 C494.748661,402.010958 495.045699,401.55116 495.273563,401.046602 C495.501428,400.542045 495.61536,400.053764 495.61536,399.581759 C495.61536,399.256238 495.546187,398.910372 495.40784,398.544161 C495.269494,398.17795 495.08232,397.844291 494.846317,397.543184 C494.610314,397.242078 494.333622,396.993868 494.016239,396.798555 C493.698856,396.603243 493.361128,396.505587 493.003055,396.505587 C492.661258,396.505587 492.331669,396.591036 492.014286,396.761934 C491.696903,396.932833 491.395796,397.152559 491.110965,397.421114 C490.826135,397.689669 490.569787,398.007052 490.341922,398.373263 C490.114058,398.739473 489.914676,399.105684 489.743778,399.471895 C489.57288,399.838106 489.442671,400.208386 489.353153,400.582735 C489.263635,400.957084 489.218876,401.290743 489.218876,401.583712 C489.218876,401.974337 489.28398,402.307996 489.414188,402.584688 C489.544396,402.861381 489.719364,403.089246 489.93909,403.268282 C490.158817,403.447319 490.419234,403.585665 490.72034,403.683321 C491.021447,403.780977 491.351037,403.829805 491.70911,403.829805 Z M491.367313,402.41379 C491.172001,402.41379 490.997033,402.405652 490.842411,402.389376 C490.687788,402.3731 490.545373,402.299858 490.415165,402.169649 C490.398889,402.104545 490.390751,402.00282 490.390751,401.864473 L490.390751,401.864473 L490.390751,401.583712 C490.390751,401.290743 490.455855,400.93267 490.586063,400.509493 C490.716271,400.086316 490.899377,399.683484 491.13538,399.300997 C491.371382,398.91851 491.652144,398.592989 491.977665,398.324434 C492.303185,398.05588 492.644982,397.921602 493.003055,397.921602 C493.214644,397.921602 493.39368,397.986707 493.540165,398.116915 C493.686649,398.247123 493.808719,398.405815 493.906376,398.592989 C494.004032,398.780164 494.077274,398.975476 494.126102,399.178927 C494.17493,399.382377 494.199344,399.565483 494.199344,399.728243 C494.199344,400.086316 494.117964,400.436251 493.955204,400.778048 C493.792443,401.103569 493.576786,401.388399 493.308231,401.63254 C493.039676,401.87668 492.73857,402.067924 492.404911,402.20627 C492.071252,402.344617 491.725386,402.41379 491.367313,402.41379 Z" id="Wehelpyoucrossthis10%" fill="#FFFFFF" fill-rule="nonzero" transform="translate(422.495243, 379.802294) rotate(-12.000000) translate(-422.495243, -379.802294) "></path>
            <g id="ulu" transform="translate(331.000000, 129.000000) scale(-1, 1) translate(-331.000000, -129.000000) translate(294.000000, 39.000000)" fill-rule="nonzero">
                <path d="M25.1535935,5.16531198 C25.1535935,5.16531198 29.7256326,0.172669001 31.1394522,0.00737901712 C32.5532719,-0.157910966 38.370889,2.6284059 38.7029448,3.72787945 C39.0350005,4.827353 32.3038611,2.6284059 31.9290071,3.72787945 C31.554153,4.827353 31.1394522,5.57558533 29.2209078,5.65823032 C27.3023633,5.74087532 25.6465119,6.82263923 25.6465119,6.82263923 L25.1535935,5.16531198 Z" id="Path" fill="#FFB792"></path>
                <path d="M19.669508,179.986034 C21.1231744,179.100552 20.2967245,172.486001 20.2967245,172.486001 C20.2967245,172.486001 13.5272142,167.071278 12.597458,171.21681 C11.6677019,175.362342 6.16738251,177.224806 3.03720345,177.731006 C0.876627233,178.082247 0.206612479,179.279124 0,179.986034 L19.669508,179.986034 Z" id="Path" fill="#311A53"></path>
                <path d="M20.8826184,175.782946 C22.6166875,175.129165 32.2743451,151.947245 31.8729265,144.419171 C31.824225,143.52631 31.9983698,136.201898 32.2743451,134.678869 C32.4883366,133.498226 32.7761182,132.119826 33.1214562,130.592369 C33.6483181,128.266503 34.302099,125.58792 35.0400007,122.716006 C37.0928432,114.644837 39.7094427,105.047688 41.5128745,97.4074533 C38.2764376,90.1479763 34.1264784,83.791691 30.3203813,81.6163567 C27.604903,81.9469367 24.9868278,82.4487098 23.0476221,82.8693138 C21.8141504,83.5763336 20.6262547,84.360049 19.4909358,85.2158413 C19.1957751,86.7211608 18.7530341,89.2315024 18.3958897,92.4664635 C18.1671401,94.5812898 17.9738099,97.0089864 17.8837859,99.662481 C17.2388598,118.507015 20.5313772,138.966078 12.1370074,172.364985 C11.9023546,173.296217 18.1966562,176.80125 20.8826184,175.782946 Z" id="Path" fill="#754BD5"></path>
                <path d="M18.3958897,92.4767941 C19.7949513,99.4780056 23.1612589,114.439701 35.0400007,122.720434 C37.0928432,114.649265 39.7094427,105.052115 41.5128745,97.4118808 C38.2764376,90.1524037 34.1264784,83.7961184 30.3203813,81.6207841 C27.604903,81.9513641 24.9868278,82.4531373 23.0476221,82.8737412 C21.8141504,83.580761 20.6262547,84.3644764 19.4909358,85.2202687 C19.1854445,86.7314914 18.7500825,89.241833 18.3958897,92.4767941 Z" id="Path" fill="#683BAA"></path>
                <path d="M33.0004403,26.6072599 L33.0004403,27.7879027 C33.0004403,27.7879027 32.680191,31.4611774 37.2035285,31.996894 C41.726866,32.5326107 45.1522057,30.5638889 45.0252866,27.7303463 C44.6179649,25.5358266 44.1707965,24.0290313 44.1398046,22.2123173 C44.1305368,21.4760863 44.1843544,20.7404145 44.3006672,20.0133702 L35.5373464,19.8377496 L32.9561662,20.2598294 L33.0004403,26.6072599 Z" id="Path" fill="#FFB792"></path>
                <path d="M32.9679727,20.2539262 L33.0004403,26.5998809 C33.9882595,27.0632339 35.0660917,27.3030881 36.1571839,27.302365 C40.1846514,27.302365 42.7879687,24.3507565 44.1486594,22.2049383 C44.1393916,21.4687073 44.1932093,20.7330355 44.309522,20.0059912 L35.5462013,19.8303706 L32.9679727,20.2539262 Z" id="Path" fill="#F2AC8C"></path>
                <path d="M32.4558689,23.3413069 C32.4558689,23.3413069 43.6837813,25.608141 44.9854399,18.5951231 C46.2870986,11.5821053 48.6159164,7.154695 41.5054955,5.41029535 C34.3950746,3.6658957 32.5030946,6.08178591 31.4951209,8.31615229 C30.4871471,10.5505187 29.5706732,22.5709376 32.4558689,23.3413069 Z" id="Path" fill="#FFB792"></path>
                <path d="M40.5373684,179.986034 C40.5373684,179.986034 41.1498269,176.630057 42.1223813,174.6879 C43.0949358,172.745742 49.2741247,173.98099 49.2741247,173.98099 C49.2741247,173.98099 50.510848,175.040617 50.7764926,179.986034 L40.5373684,179.986034 Z" id="Path" fill="#311A53"></path>
                <path d="M28.4239739,85.3368571 C28.4239739,85.3368571 34.5780742,112.751382 36.5497476,125.124517 C37.2876493,129.754113 38.8254365,144.587413 39.0586134,149.270137 C39.3891934,155.695785 41.5069713,175.360866 41.5069713,175.360866 C41.5069713,175.360866 45.0813672,173.102887 50.3839289,175.213286 C50.3839289,175.213286 51.7239584,166.398312 52.575497,147.934535 C52.8249077,142.522764 51.7785631,134.392563 51.9054822,131.752351 C52.5312229,118.76528 56.6782305,85.1996074 53.3812856,83.0508376 C50.0843408,80.9020679 28.4239739,85.3368571 28.4239739,85.3368571 Z" id="Path" fill="#754BD5"></path>
                <path d="M29.3124076,3.10804201 C29.3124076,3.10804201 32.4425867,2.86748605 36.1350468,1.26181193 C39.1309278,-0.0398466924 42.9119361,1.39463424 44.1383288,2.04103613 C44.0957027,1.77627312 43.9948961,1.52425669 43.8431681,1.30313442 C43.8431681,1.30313442 44.3951186,1.69274653 44.4762878,2.23879379 C44.5323683,2.28159209 44.557457,2.30963236 44.5426989,2.31996298 C44.5279409,2.33029361 45.1684396,2.20485031 45.5757613,2.38637414 C45.5757613,2.38637414 45.2938829,2.34652744 45.1935282,2.52657546 C45.1820639,2.54594169 45.1670422,2.56296633 45.1492541,2.57675278 C49.8231236,4.83473201 50.2540582,12.2211281 48.7502145,13.9315843 C46.9408795,15.9873785 44.7655452,20.6184496 44.7655452,20.6184496 C44.7655452,20.6184496 43.9730388,19.5248793 44.302143,17.7155443 C44.6312471,15.9062093 43.0683713,15.9047335 41.0952221,15.082711 C39.1220729,14.2606885 40.7616906,11.9540077 39.0335247,10.5578977 C37.3053589,9.16178765 30.9726864,9.98233436 31.0553314,8.91385268 C28.7043766,8.05641089 29.3124076,3.34859797 29.3124076,3.10804201 Z" id="Path" fill="#4A2C76"></path>
                <path d="M26.3165266,2.73466374 C26.3165266,2.73466374 27.2610408,3.11837263 27.8292252,4.45397473 C28.5567962,6.1644309 27.9635233,7.09861447 27.9635233,7.09861447 C27.9635233,7.09861447 16.0847815,17.8719795 16.8581025,19.8318464 C17.2609968,20.8649088 26.464107,26.2530671 30.2879137,28.4623448 C31.8611201,28.3309983 33.0786579,28.3413289 33.1170288,28.3413289 L33.1170288,28.3413289 C33.1170288,28.3413289 35.7188703,36.2678691 45.0341415,27.7229673 C46.6722833,30.1063898 59.3568137,35.9505714 57.154915,46.0450668 C56.6373999,48.416191 56.1867879,50.6549848 55.803079,52.7614482 C53.1864796,67.0560801 53.3901404,75.4888209 53.9007684,80.1390775 C54.2977595,83.7695539 55.803079,84.1340774 54.4571463,85.0992528 C54.4571463,85.0992528 51.8375952,86.2798955 46.9305489,87.2893451 C43.2867902,88.0449564 38.3841712,88.7149712 32.3599417,88.7541623 C22.77755,88.81385 19.1500252,85.5065745 19.1500252,85.5065745 C16.6131191,83.025749 21.6308508,73.2574061 21.2294322,66.2148722 C21.0228198,62.5991538 21.2500935,50.2215905 21.2855128,44.5338441 L21.2855128,44.5338441 L21.2855128,44.5264651 C20.8250621,44.0217403 6.80640539,28.5981187 4.04665299,19.842177 C4.04665299,19.842177 4.04665299,19.842177 4.04665299,19.842177 C3.91342647,19.4251798 3.80404015,19.0009382 3.71902463,18.5715103 C2.87338927,14.2518337 26.3165266,2.73466374 26.3165266,2.73466374 Z" id="Path" fill="#FF7042"></path>
                <path d="M53.9007684,80.1361259 C53.3901404,75.4858693 53.1864796,67.0531285 55.803079,52.7584966 C55.6249988,52.1898203 55.4474104,51.644265 55.270314,51.1218306 C54.4763318,48.7605451 51.1041209,48.8845126 50.4813319,51.291548 C48.5539326,58.7679681 46.8051056,71.4820146 53.9007684,80.1361259 Z" id="Path" fill="#FF4A1E"></path>
                <path d="M56.7623513,72.3143677 C56.7623513,72.3143677 50.9358794,68.7931008 49.129496,69.2387934 C47.3231126,69.684486 43.4063303,71.3875632 43.6498379,72.4294804 C43.8933454,73.4713976 48.4432474,74.1812591 49.2357538,74.0528642 C50.0282602,73.9244693 51.3018786,74.0735254 51.824313,74.5206939 C52.3467474,74.9678623 56.471618,75.1361039 56.9763428,73.9303725 C57.4810675,72.7246411 56.7623513,72.3143677 56.7623513,72.3143677 Z" id="Path" fill="#FFB792"></path>
                <path d="M45.0370931,27.7244431 C45.0370931,27.7244431 52.1799816,28.2424501 56.0598688,30.5166632 C58.5687347,31.9924666 73.123108,55.172911 73.123108,58.5849685 C73.123108,61.997026 57.8426394,74.1030415 57.8426394,74.1030415 C57.8426394,74.1030415 55.0061452,75.0446041 54.8998873,70.5286456 C54.8998873,70.5286456 62.522412,59.2623623 62.1209935,57.9562762 C61.8686311,57.1372053 50.6348155,48.1259496 50.6348155,48.1259496 L45.0370931,27.7244431 Z" id="Path" fill="#FF7042"></path>
                <path d="M4.03927397,19.8362738 C6.79902637,28.5922155 20.8176831,44.0158371 21.2781338,44.5205619 L21.2781338,44.5279409 L21.2781338,44.5279409 L21.2781338,44.5279409 C21.3194563,44.3803605 22.4750103,39.9618051 19.7152579,36.8065374 C16.9186104,33.5951891 7.22110615,25.5446815 4.03927397,19.8362738 Z" id="Path" fill="#FF4A1E"></path>
                <path d="M47.7304343,29.0452872 C47.7614262,28.4254497 44.8290048,27.5694838 44.8290048,27.5694838 C44.8290048,27.5694838 41.4700762,32.2226919 35.946144,32.3038611 C35.946144,32.3038611 37.5208262,35.3691048 39.3773869,36.1630871 C39.3773869,36.1571839 47.5474347,32.7200377 47.7304343,29.0452872 Z" id="Path" fill="#FF4A1E"></path>
                <path d="M35.946144,32.1946517 C35.946144,32.1946517 33.0166742,30.4591069 33.0078194,28.5759817 C33.0078194,28.5759817 31.1158394,28.3398531 30.2893895,29.2563271 C30.2893895,29.2563271 29.5957619,32.4824333 30.5166632,34.3552279 C30.5166632,34.3552279 34.7330336,33.7132534 35.946144,32.1946517 Z" id="Path" fill="#FF4A1E"></path>
                <path d="M25.7645762,75.8946668 C25.8207737,77.414814 26.4410744,78.8595518 27.5045484,79.947223 L29.1766337,81.6576792 C29.3779077,81.8618457 29.6549744,81.9731879 29.9415565,81.9654864 C30.2281386,81.9569557 30.4984598,81.8301113 30.6878564,81.6148809 L33.0092952,78.9658138 C33.6302636,78.2547674 33.9541546,77.332233 33.9139627,76.389061 C33.8195112,74.2860411 33.6512697,70.2379123 33.550915,66.3329365 C33.46827,63.1702897 33.4298991,60.0991428 33.5125441,58.2366789 C33.7752371,52.2891911 35.9446682,33.3915283 35.9446682,33.3915283 L34.5160905,33.3915283 C34.5160905,33.3915283 30.5919292,40.5654087 28.2144098,50.4813319 C27.596822,53.0364969 27.1321036,55.6262059 26.8227272,58.2366789 C26.8227272,58.2366789 25.5136896,69.0248019 25.7645762,75.8946668 Z" id="Path" fill="#FFDD71"></path>
                <path d="M37.928148,31.9157248 L33.956761,30.9638316 C33.956761,30.9638316 33.438754,31.0081057 33.4520362,31.6559834 C33.4653184,32.3038611 34.5706952,34.1928895 35.0606619,34.3434215 C35.5506287,34.4939534 38.8726622,33.2247625 37.928148,31.9157248 Z" id="Path" fill="#FF9F23"></path>
                <path d="M47.7304343,28.1406197 C47.7614262,27.522258 44.8290048,26.6648163 44.8290048,26.6648163 C44.8290048,26.6648163 41.4700762,31.3195002 35.946144,31.4006694 C35.946144,31.4006694 37.5208262,34.4659131 39.3773869,35.2598954 C39.3773869,35.2598954 47.5474347,31.816846 47.7304343,28.1406197 Z" id="Path" fill="#FF7042"></path>
                <path d="M35.946144,31.4006694 C35.946144,31.4006694 33.0166742,29.6636488 33.0078194,27.7819994 C33.0078194,27.7819994 31.1158394,27.5443951 30.2893895,28.4623448 C30.2893895,28.4623448 29.5957619,31.6869753 30.5166632,33.5612456 C30.5166632,33.5612456 34.7330336,32.9192712 35.946144,31.4006694 Z" id="Path" fill="#FF7042"></path>
                <path d="M25.7645762,75.8946668 C25.8207737,77.414814 26.4410744,78.8595518 27.5045484,79.947223 L29.1766337,81.6576792 C29.3779077,81.8618457 29.6549744,81.9731879 29.9415565,81.9650718 C30.2281386,81.9569557 30.4984598,81.8301113 30.6878564,81.6148809 L33.0092952,78.9658138 C33.6302636,78.2547674 33.9541546,77.332233 33.9139627,76.389061 C33.8195112,74.2860411 33.6512697,70.2379123 33.550915,66.3329365 C29.842221,61.7033411 28.5671269,55.5049668 28.2144098,50.4813319 C27.596822,53.0364969 27.1321036,55.6262059 26.8227272,58.2366789 C26.8227272,58.2366789 25.5136896,69.0248019 25.7645762,75.8946668 Z" id="Path" fill="#FF9F23"></path>
            </g>
            <g id="ghjyf" transform="translate(262.000000, 0.000000)" fill-rule="nonzero">
                <path d="M33.1029994,12.1239998 C34.1910871,12.0848535 35.2689064,12.3464366 36.2179994,12.8799998 C37.2360546,13.4706465 38.0586366,14.3467694 38.5839993,15.3999997 C39.0320132,16.2098559 39.2453347,17.1285928 39.1999993,18.0529997 C39.0323876,19.4397157 38.7203607,20.8051267 38.2689993,22.1269996 C38.0402382,22.8285074 37.9545472,23.5687822 38.0169994,24.3039996 C38.1886106,25.1383601 38.4935169,25.9396254 38.9199993,26.6769995 L35.6999994,28.3779995 C35.0754665,27.2589173 34.6358038,26.0462992 34.3979994,24.7869996 C34.2494219,23.5347773 34.3809238,22.2651863 34.7829994,21.0699996 C35.0801814,20.1751968 35.3140913,19.2606091 35.4829994,18.3329997 C35.5626566,17.9281104 35.5187569,17.5086247 35.3569994,17.1289997 C34.8739994,16.2119997 34.2649994,15.7709997 33.5299994,15.7919997 C32.9050292,15.7958391 32.2885206,15.9368237 31.7239995,16.2049997 C30.9928612,16.5645689 30.4161608,17.1760702 30.0999995,17.9269997 C29.7973573,18.6573829 29.6702861,19.4485806 29.7289995,20.2369997 L26.0749996,20.4119997 C25.9699885,18.8790646 26.2794787,17.3461208 26.9709995,15.9739997 C28.1885036,13.6785322 30.5410558,12.209856 33.1379994,12.1239998 L33.1029994,12.1239998 Z M38.7029993,34.0689994 L36.9529994,30.7999995 L40.1799993,29.0989995 L41.8949993,32.3539994 L38.7029993,34.0689994 Z" id="Shape" fill="#4E72CF" opacity="0.371372768"></path>
                <path d="M64.8899989,0.300999995 C65.6736362,0.5741798 66.3664917,1.05869409 66.8919989,1.70099997 C67.4579523,2.38409572 67.8087268,3.21962101 67.8999988,4.10199993 C67.9966511,4.79285558 67.8946786,5.49695095 67.6059988,6.1319999 C67.1130691,7.0700002 66.5242573,7.95439076 65.8489989,8.77099985 C65.4999942,9.20369264 65.2449135,9.70431833 65.0999989,10.2409998 C64.9925654,10.8781696 64.9925654,11.52883 65.0999989,12.1659998 L62.2999989,12.5019998 C62.1620021,11.5395478 62.1785436,10.5612364 62.3489989,9.60399984 C62.5817057,8.67786959 63.0168083,7.8148363 63.6229989,7.07699988 C64.0761566,6.52316184 64.4901598,5.93841151 64.8619989,5.32699991 C65.0344394,5.06377867 65.1178626,4.75216875 65.0999989,4.43799992 C65.0960703,3.82759845 64.7303833,3.27769331 64.1689989,3.03799995 C63.7229648,2.86861467 63.2439816,2.80395194 62.7689989,2.84899995 C62.1549176,2.90277891 61.5808139,3.17616163 61.151999,3.61899994 C60.7412071,4.05715715 60.4369914,4.58414485 60.262999,5.15899991 L57.651999,4.26299993 C57.999445,3.15990022 58.6378433,2.17086647 59.499999,1.39999998 C60.9707897,0.0960086859 63.0260864,-0.323058291 64.8899989,0.300999995 L64.8899989,0.300999995 Z M62.9159989,17.3459997 L62.5799989,14.5459998 L65.3239989,14.2099998 L65.6599989,17.0099997 L62.9159989,17.3459997 Z" id="Shape" fill="#8FABF4" opacity="0.50297619"></path>
                <path d="M107.302998,3.39499994 C108.477168,4.59486637 109.300278,6.09341102 109.682998,7.72799987 C110.080153,9.51207651 109.936361,11.3740535 109.269998,13.0759998 C108.807854,14.4222241 107.975723,15.6109821 106.868998,16.5059997 C105.122286,17.7698115 103.244845,18.8422994 101.268998,19.7049997 C100.21984,20.1725948 99.2785236,20.8517722 98.5039983,21.6999996 C97.7301706,22.7633375 97.1343964,23.9454292 96.7399984,25.1999996 L91.4199984,23.2889996 C92.0425146,21.4033401 92.969431,19.6322678 94.1639984,18.0459997 C95.4376558,16.5693278 97.0226277,15.3931495 98.8049983,14.6019998 C100.14104,14.0129579 101.432449,13.3274814 102.668998,12.5509998 C103.217674,12.2246987 103.650816,11.7352727 103.907998,11.1509998 C104.446998,9.65299984 104.320998,8.49099986 103.522998,7.68599987 C102.869826,6.96957477 102.063489,6.40968451 101.163998,6.0479999 C99.9908916,5.58771455 98.6912473,5.56534973 97.5029983,5.9849999 C96.3605923,6.40427278 95.3321677,7.08509466 94.4999984,7.97299986 L90.4609985,3.98999993 C92.1012847,2.26919617 94.1728277,1.01950218 96.4599984,0.370999994 C100.354991,-0.627469098 104.486915,0.524881613 107.302998,3.39499994 L107.302998,3.39499994 Z M88.0599985,32.6689994 L89.9849985,27.2999995 L95.2979984,29.2039995 L93.3799984,34.5659994 L88.0599985,32.6689994 Z" id="Shape" fill="#2FD6F3" opacity="0.792945499"></path>
                <path d="M133.475998,38.5489993 C134.919194,40.3657184 135.144772,42.8663324 134.049998,44.9119992 C133.667744,45.7407199 133.061646,46.4462183 132.299998,46.9489992 C131.083092,47.6332497 129.797286,48.1869909 128.463998,48.6009992 C127.747402,48.8265101 127.086607,49.2010399 126.524998,49.6999992 C125.947786,50.3196431 125.474972,51.0288639 125.124998,51.7999991 L121.841998,50.1969991 C122.369679,49.0354726 123.07851,47.9651369 123.941998,47.0259992 C124.864938,46.1670918 125.967153,45.5239338 127.168998,45.1429992 C128.084273,44.8601456 128.97793,44.5115726 129.842998,44.0999992 C130.21836,43.9222949 130.532603,43.6372833 130.745998,43.2809993 C131.193998,42.3569993 131.193998,41.6009993 130.745998,41.0269993 C130.378497,40.5193878 129.899577,40.1027273 129.345998,39.8089993 C128.626805,39.427272 127.793283,39.3202827 127.000998,39.5079993 C126.225983,39.6896275 125.505838,40.0545006 124.900998,40.5719993 L122.604998,37.7299994 C123.775228,36.7432562 125.189888,36.0903359 126.699998,35.8399994 C129.27351,35.4748934 131.846862,36.506901 133.454998,38.5489993 L133.475998,38.5489993 Z M119.034998,55.999999 L120.651998,52.6959991 L123.934998,54.2919991 L122.317998,57.602999 L119.034998,55.999999 Z" id="Shape" fill="#2FD6F3" opacity="0.232119606"></path>
                <path d="M8.08499986,38.9899993 C9.17366811,39.0040337 10.2372303,39.3189838 11.1579998,39.8999993 C12.1569017,40.5284338 12.9463603,41.4397225 13.4259998,42.5179993 C13.8371281,43.3430512 14.0046684,44.2681652 13.9089998,45.1849992 C13.6936244,46.5641581 13.3298461,47.9160053 12.8239998,49.2169992 C12.5662024,49.9101147 12.4518911,50.6483756 12.4879998,51.3869991 C12.6314352,52.2159722 12.9055101,53.0169324 13.2999998,53.7599991 L10.0029998,55.3349991 C9.42003222,54.1905644 9.02755051,52.9587393 8.84099985,51.6879991 C8.74616248,50.429639 8.92773985,49.165765 9.37299984,47.9849992 C9.70975347,47.1055294 9.98115691,46.2024111 10.1849998,45.2829992 C10.2780436,44.8898244 10.2512252,44.4777956 10.1079998,44.0999992 C9.65999984,43.1689993 9.07199985,42.6999993 8.33699986,42.6999993 C7.70984757,42.6740104 7.08502195,42.7913148 6.50999989,43.0429993 C5.76370408,43.3700495 5.16167962,43.9571477 4.81599992,44.6949992 C4.48632737,45.4142453 4.32817396,46.2002199 4.35399993,46.9909992 L0.699999988,46.9909992 C0.652441161,45.456599 1.02004312,43.9378225 1.76399997,42.5949993 C2.48085871,41.3233641 3.57733464,40.3076554 4.89999992,39.6899993 C5.89295252,39.2126437 6.98339475,38.972986 8.08499986,38.9899993 L8.08499986,38.9899993 Z M12.7819998,61.137999 L11.1999998,57.812999 L14.4899998,56.237999 L16.0999997,59.562999 L12.7819998,61.137999 Z" id="Shape" fill="#2FD6F3" opacity="0.37390718"></path>
            </g>
            <g id="gykyt" transform="translate(424.500000, 311.500000) rotate(-120.000000) translate(-424.500000, -311.500000) translate(410.000000, 273.000000)" fill="#9CC1F7" fill-rule="nonzero">
                <path d="M25.7339985,0.0599999964 L14.8739991,2.80799983 C12.6359992,3.4079998 12.6239992,7.13999957 15.1679991,7.07399958 C16.6696724,7.03815015 18.1636151,6.84713459 19.6259988,6.50399961 C7.06199958,24.5459985 0.197999988,47.9339971 5.86199965,69.5999959 C4.9353842,68.9279368 3.96747953,68.3147301 2.96399982,67.763996 C2.30702289,67.3729292 1.46395114,67.5112549 0.966382117,68.0917521 C0.468813092,68.6722493 0.461055105,69.5265582 0.947999943,70.1159958 C2.52599985,72.3299957 4.92599971,74.1059956 7.00199958,75.8339955 C8.3639995,76.9619954 10.3139994,75.6239955 10.4579994,74.1119956 C10.675138,71.5536938 11.8035943,69.1583856 13.6379992,67.361996 C15.6779991,65.3099961 12.7319992,61.9619963 10.6019994,63.9959962 C9.53883896,65.0076589 8.63283315,66.1725235 7.91399953,67.451996 C6.51599961,56.9639966 6.50399961,46.5719972 8.96399947,36.1319978 C11.5019993,25.3319985 16.301999,14.6339991 23.4779986,6.08999964 C23.4479986,6.92999959 23.4479986,7.76999954 23.4779986,8.63399949 C23.7059986,12.2339993 28.9139983,11.9219993 28.4399983,8.28599951 C28.1939386,6.35298198 28.2060447,4.39582554 28.4759983,2.46599985 C28.5160442,1.75481392 28.2265997,1.06476054 27.6911836,0.594953427 C27.1557675,0.125146315 26.4339457,-0.0721477855 25.7339985,0.0599999964 Z" id="Path"></path>
            </g>
        </g>
    </g>
</svg>