<?xml version="1.0" encoding="UTF-8"?>
<svg width="142px" height="142px" viewBox="0 0 142 142" version="1.1" xmlns="http://www.w3.org/2000/svg" xmlns:xlink="http://www.w3.org/1999/xlink">
    <title>hjkh</title>
    <defs>
        <circle id="path-1" cx="71" cy="71" r="71"></circle>
        <circle id="path-3" cx="78.1000017" cy="78.1000017" r="78.1000017"></circle>
        <path d="M13.6537503,8.20710018 C13.5927003,8.83080019 12.7402003,15.3428003 6.04395013,15.3428003 C-0.985600021,15.3428003 0.191950004,8.38255018 0.191950004,8.38255018 L0.183150004,8.33910018 C0.868450019,8.19830018 1.60655003,8.14550018 2.38865005,8.23350018 L2.38865005,4.93845011 L10.3680502,0.47410001 L10.6579002,0.47410001 L10.6579002,8.16310018 C10.6579002,8.16310018 11.9229003,8.01350017 13.6537503,8.20710018" id="path-5"></path>
        <radialGradient cx="50.0016942%" cy="50%" fx="50.0016942%" fy="50%" r="52.5195531%" gradientTransform="translate(0.500017,0.500000),scale(1.000000,0.910366),translate(-0.500017,-0.500000)" id="radialGradient-7">
            <stop stop-color="#F5C3A9" offset="0%"></stop>
            <stop stop-color="#F2B495" offset="100%"></stop>
        </radialGradient>
        <path d="M17.4784504,3.36435007 C18.6103504,4.5116501 19.4656004,5.99610013 19.8770004,7.81055017 C20.6437004,11.1908502 19.9226504,14.7675003 18.9414504,18.0251504 C18.7742504,18.5828504 18.5834004,19.1449504 18.2391004,19.6141004 C17.9938004,19.9485004 17.6775504,20.2240504 17.3640504,20.4968504 C15.9450503,21.7327005 14.5260503,22.9691005 13.1103503,24.2088005 C12.1500503,25.0486505 6.24140014,25.7488006 5.11335011,24.9430505 C0.767800017,21.8355505 -0.0687500015,12.8331503 0.800800017,8.23020018 C2.24400005,0.595100013 12.0576503,-2.13455005 17.4784504,3.36435007" id="path-8"></path>
        <radialGradient cx="50.6447366%" cy="49.0184785%" fx="50.6447366%" fy="49.0184785%" r="56.8770633%" gradientTransform="translate(0.506447,0.490185),scale(1.000000,0.793629),rotate(-12.151648),translate(-0.506447,-0.490185)" id="radialGradient-10">
            <stop stop-color="#F5C3A9" offset="0%"></stop>
            <stop stop-color="#F2B495" offset="100%"></stop>
        </radialGradient>
        <path d="M14.5535503,2.06085004 L14.4391503,5.90975013 L0.378950008,5.90975013 C0.378950008,5.90975013 1.77650004,0.417450009 5.58140012,0.417450009 C9.3863002,0.417450009 10.8537002,2.42990005 10.8537002,2.42990005 L14.5535503,2.06085004" id="path-11"></path>
        <radialGradient cx="146.950178%" cy="-0.620869217%" fx="146.950178%" fy="-0.620869217%" r="415.023275%" gradientTransform="translate(1.469502,-0.006209),scale(0.387475,1.000000),rotate(9.120948),translate(-1.469502,0.006209)" id="radialGradient-13">
            <stop stop-color="#F5C3A9" offset="0%"></stop>
            <stop stop-color="#F2B495" offset="100%"></stop>
        </radialGradient>
        <path d="M37.0815508,5.25855011 L23.3117505,0.381150008 C22.3096505,2.25335005 21.2377005,3.65915008 20.1751004,3.94075009 C18.5669004,4.36205009 14.6822503,5.09135011 10.7629502,5.77665013 C10.2448502,5.87345013 9.72675021,5.96145013 9.2081002,6.05825013 C4.5419001,6.86620015 0.253550005,7.56085016 0.253550005,7.56085016 L0.244750005,7.78910017 L0.244750005,7.93870017 L0.139150003,11.4097502 L0.139150003,12.2908503 C0.139150003,12.2908503 4.8141501,12.0510503 10.7107002,12.4641003 C18.9623504,13.0526003 29.6037506,13.4046003 33.1270507,11.7441503 C34.7792508,10.9615002 36.0976008,8.39575018 37.1349008,5.23215011 L37.0815508,5.25855011" id="path-14"></path>
        <radialGradient cx="18.2977774%" cy="43.7651526%" fx="18.2977774%" fy="43.7651526%" r="181.307461%" gradientTransform="translate(0.182978,0.437652),scale(0.339826,1.000000),rotate(9.121014),translate(-0.182978,-0.437652)" id="radialGradient-16">
            <stop stop-color="#F5C3A9" offset="0%"></stop>
            <stop stop-color="#F2B495" offset="100%"></stop>
        </radialGradient>
    </defs>
    <g id="Page-1" stroke="none" stroke-width="1" fill="none" fill-rule="evenodd">
        <g id="Desktop-HD-Copy-8" transform="translate(-546.000000, -2684.000000)">
            <g id="hjkh" transform="translate(546.000000, 2684.000000)">
                <mask id="mask-2" fill="white">
                    <use xlink:href="#path-1"></use>
                </mask>
                <use id="Mask" fill="#E3F8FE" xlink:href="#path-1"></use>
                <g id="Group-6" mask="url(#mask-2)">
                    <g transform="translate(-10.000000, 5.000000)">
                        <mask id="mask-4" fill="white">
                            <use xlink:href="#path-3"></use>
                        </mask>
                        <use id="Mask" stroke="none" fill="#E3F8FE" fill-rule="evenodd" xlink:href="#path-3"></use>
                        <g id="Group-6" stroke="none" stroke-width="1" fill="none" fill-rule="evenodd" mask="url(#mask-4)">
                            <g transform="translate(2.200000, 15.400000)">
                                <g id="Group-47" stroke-width="1" fill="none" fill-rule="evenodd" transform="translate(96.616302, 20.763417)">
                                    <mask id="mask-6" fill="white">
                                        <use xlink:href="#path-5"></use>
                                    </mask>
                                    <g id="Clip-46"></g>
                                    <path d="M13.6537503,8.20710018 C13.5927003,8.83080019 12.7402003,15.3428003 6.04395013,15.3428003 C-0.985600021,15.3428003 0.191950004,8.38255018 0.191950004,8.38255018 L0.183150004,8.33910018 C0.868450019,8.19830018 1.60655003,8.14550018 2.38865005,8.23350018 L2.38865005,4.93845011 L10.3680502,0.47410001 L10.6579002,0.47410001 L10.6579002,8.16310018 C10.6579002,8.16310018 11.9229003,8.01350017 13.6537503,8.20710018" id="Fill-45" fill="url(#radialGradient-7)" mask="url(#mask-6)"></path>
                                </g>
                                <g id="Group-50" stroke-width="1" fill="none" fill-rule="evenodd" transform="translate(88.916302, 3.163417)">
                                    <mask id="mask-9" fill="white">
                                        <use xlink:href="#path-8"></use>
                                    </mask>
                                    <g id="Clip-49"></g>
                                    <path d="M17.4784504,3.36435007 C18.6103504,4.5116501 19.4656004,5.99610013 19.8770004,7.81055017 C20.6437004,11.1908502 19.9226504,14.7675003 18.9414504,18.0251504 C18.7742504,18.5828504 18.5834004,19.1449504 18.2391004,19.6141004 C17.9938004,19.9485004 17.6775504,20.2240504 17.3640504,20.4968504 C15.9450503,21.7327005 14.5260503,22.9691005 13.1103503,24.2088005 C12.1500503,25.0486505 6.24140014,25.7488006 5.11335011,24.9430505 C0.767800017,21.8355505 -0.0687500015,12.8331503 0.800800017,8.23020018 C2.24400005,0.595100013 12.0576503,-2.13455005 17.4784504,3.36435007" id="Fill-48" fill="url(#radialGradient-10)" mask="url(#mask-9)"></path>
                                </g>
                                <path d="M103.954402,16.2985171 C104.012152,15.5637171 104.767852,14.7590671 105.526302,15.2359171 C106.311702,15.7298171 106.126902,17.0349671 105.801302,17.7527171 C105.546102,18.3164672 104.693052,18.9330172 104.114452,18.4094172 C103.630452,17.9699671 104.382852,17.4524171 104.407602,17.0514671 C104.430152,16.6906671 103.708552,16.4321671 104.003902,16.0460671" id="Fill-51" fill="#EEAB8E" fill-rule="evenodd"></path>
                                <path d="M104.093552,19.6969672 C104.885552,19.9345672 106.227552,19.3306672 106.566902,18.2273672 C106.906252,17.1240671 106.869952,15.8645671 106.869952,15.8645671 C106.869952,15.8645671 107.268702,16.8633671 107.063552,18.4704672 C106.858402,20.0770172 106.295752,21.6076672 105.034602,21.6280172 C103.773452,21.6478172 104.093552,19.6969672 104.093552,19.6969672" id="Fill-52" fill="#EEAB8E" fill-rule="evenodd"></path>
                                <path d="M103.121702,18.5535172 L103.033152,18.5799172 C102.542552,18.6486672 102.346752,18.0552171 102.274152,17.6839671 C102.104202,16.8166171 102.130602,15.9388171 102.100902,15.0615671 C102.093752,14.8415671 102.110802,14.5671171 102.020602,14.3603171 C101.745052,13.7294671 101.010802,13.319717 100.786952,12.667967 C100.526252,11.910067 101.262152,11.153817 100.970102,10.324417 C100.523502,9.05336695 98.8911021,8.76131695 97.7108021,8.77506695 C95.9398021,8.79596695 94.212802,9.12431696 92.464902,9.39546696 C90.619652,9.68201697 88.2612519,9.95371697 86.6354519,8.78661695 C84.6752518,7.38026692 83.8568518,3.71451684 85.3193018,1.7081168 C86.1162519,0.613616772 87.6282019,0.031166759 88.9526019,0.000916758328 C90.356752,-0.0315332424 91.543102,0.805566776 92.831202,1.22686678 C93.856952,1.56236679 94.8491521,0.581166771 95.8078021,0.389766767 C97.0134021,0.148866762 97.5249021,1.46446679 98.5913521,1.50021679 C99.6270022,1.53541679 100.642852,0.726366774 101.649902,0.54266677 C103.657952,0.175816762 103.539702,2.19266681 104.886652,2.88126682 C105.724302,3.30971683 106.805602,3.05011682 107.652602,3.48516683 C108.296102,3.81571684 108.386302,4.39651685 108.526552,5.05431687 C108.648102,5.62356688 108.654702,6.28026689 108.842252,6.82091691 C109.010552,7.30711692 109.418652,7.61401692 109.737102,7.99406693 C110.084702,8.40931694 110.306902,8.89331695 110.482902,9.41361696 C110.873952,10.567517 110.960852,11.812167 110.854152,13.019967 C110.675402,15.0472671 110.022552,17.0432171 109.345502,18.9528172 C108.906052,20.1914172 108.742702,21.4817172 108.066752,22.6543172 C107.885252,22.9694673 107.078952,23.8901673 106.779202,23.2043173 C106.714852,23.0574673 106.724752,22.8902673 106.735752,22.7302173 C106.825402,21.4525672 108.014502,13.222367 104.896552,14.2107171 C104.242052,14.4186171 103.803152,14.9631171 103.558952,15.5840671 C103.267452,16.3276671 103.247102,17.0762171 103.283952,17.8616171 C103.289452,17.9738171 103.292202,18.0865672 103.287802,18.1987672 C103.282302,18.3439672 103.246002,18.4913672 103.121702,18.5535172" id="Fill-53" fill="#383767" fill-rule="evenodd"></path>
                                <path d="M99.0049521,28.2428674 C102.550252,27.6730674 104.889402,24.8724673 104.889402,24.8724673 C104.889402,24.8724673 103.933502,29.5920174 98.7921021,29.8417174 L99.0049521,28.2428674" id="Fill-54" fill="#EEAB8E" fill-rule="evenodd"></path>
                                <path d="M104.824502,92.5769188 L109.898802,92.5769188 L109.898802,141.26622 C109.898802,141.75957 109.498402,142.16052 109.004502,142.16052 L105.718802,142.16052 C105.224352,142.16052 104.824502,141.75957 104.824502,141.26622 L104.824502,92.5769188" id="Fill-55" fill="#121B25" fill-rule="evenodd"></path>
                                <path d="M93.407602,93.2732188 L121.315703,93.2732188 L121.315703,94.0349688 C121.315703,95.9528188 119.760853,97.5076689 117.843003,97.5076689 L96.8803021,97.5076689 C94.9624521,97.5076689 93.407602,95.9528188 93.407602,94.0349688 L93.407602,93.2732188" id="Fill-56" fill="#2D3F4E" fill-rule="evenodd"></path>
                                <polygon id="Fill-62" fill="#2D3F4E" fill-rule="evenodd" points="105.601652 131.80952 107.361652 131.80952 107.361652 98.5081189 105.601652 98.5081189"></polygon>
                                <path d="M127.298603,57.285068 C126.080903,57.246568 125.090903,58.254718 125.161303,59.470768 C125.509453,65.5152682 124.228503,80.2607685 118.598703,85.2916186 C111.714902,91.4433687 92.204752,90.6051687 92.204752,90.6051687 C92.204752,90.6051687 88.9823019,94.5596688 95.4266521,95.4380188 C101.871002,96.3169188 120.031453,95.7317188 124.425403,91.6309187 C128.678003,87.6610187 131.203053,77.2610684 129.300053,59.159468 C129.191153,58.121618 128.342503,57.317518 127.298603,57.285068" id="Fill-63" fill="#C979FF" fill-rule="nonzero"></path>
                                <path d="M124.268653,73.0128683 C123.829753,73.8923184 92.243252,73.0304683 89.2595019,73.3027183 C89.2595019,73.3027183 69.9275515,82.5300685 67.1506015,91.1678187 C66.8690014,92.0379188 66.7903514,93.1890688 66.8783514,94.5602188 C67.6511015,106.721819 81.5006518,135.84322 81.5006518,135.84322 L83.6269518,134.91207 L90.744502,131.80952 L91.755402,131.37062 C91.755402,131.37062 80.7708018,98.6373689 82.9680518,96.8801189 C85.1647518,95.1223188 110.059402,90.7289187 118.697153,88.3914187 C127.344253,86.0445686 124.268653,73.0128683 124.268653,73.0128683" id="Fill-67" fill="#3646A1" fill-rule="nonzero"></path>
                                <path d="M89.1016519,73.0304683 L88.8200519,73.1536683 C88.8200519,73.1536683 56.4558512,77.6972184 51.1841011,86.7744186 C47.756501,92.6792188 54.3900512,135.82837 54.3900512,135.82837 L65.8399514,135.85477 C65.8399514,135.85477 64.1278014,99.9111689 64.6987014,97.9080689 C65.3405514,95.6228188 66.4389014,94.7967188 66.8783514,94.5602188 C66.7903514,93.1890688 66.8690014,92.0379188 67.1506015,91.1678187 C69.9275515,82.5300685 89.2595019,73.3027183 89.2595019,73.3027183 C89.1984519,73.2592683 89.1451019,73.1624683 89.1016519,73.0304683" id="Fill-71" fill="#243282" fill-rule="nonzero"></path>
                                <path d="M120.361453,43.1269677 L118.191153,43.4256177 C118.191153,43.4256177 117.663703,49.2781678 116.371753,55.130718 L89.3332019,65.3942682 L88.9636019,67.3539182 C88.8497519,67.3451182 88.7353519,67.3363182 88.6297519,67.3275182 C88.6385519,67.7317682 88.6385519,68.1272182 88.6561519,68.4962682 C88.7177519,70.7551183 88.8668019,72.3803683 89.1044019,73.0304683 C89.1484019,73.1624683 89.2012019,73.2592683 89.2628019,73.3027183 C89.997052,73.9016684 99.5604522,72.7411683 109.898802,76.5372684 C118.865453,79.8301185 123.891353,83.4260186 124.123453,82.9431186 C126.941653,77.0845184 121.811253,54.0939679 120.361453,43.1269677" id="Fill-72" fill="#57F057" fill-rule="nonzero"></path>
                                <path d="M117.540503,56.536518 C116.820003,59.9987681 114.957152,66.8880682 111.301302,67.8109682 C106.529502,69.0237183 97.3032521,68.9621183 88.6561519,68.4962682 C88.6385519,68.1272182 88.6385519,67.7317682 88.6297519,67.3275182 C88.7353519,67.3363182 88.8497519,67.3451182 88.9636019,67.3539182 L89.3332019,65.3942682 L116.371753,55.130718 C117.663703,49.2781678 118.191153,43.4256177 118.191153,43.4256177 C118.191153,43.4256177 118.191153,43.4608177 118.199403,43.5224177 C118.252203,44.4277177 118.621253,51.4226179 117.540503,56.536518" id="Fill-73" fill="#31D332" fill-rule="nonzero"></path>
                                <path d="M90.437602,34.4892175 C89.9541519,35.3675675 89.2595019,44.7703677 88.8822019,54.1027679 L83.3547018,48.9443178 C85.7004519,44.4013177 90.437602,34.4892175 90.437602,34.4892175" id="Fill-74" fill="#31D332" fill-rule="nonzero"></path>
                                <path d="M87.1244019,60.9216681 C82.4582018,61.7296181 78.1698517,62.4242681 78.1698517,62.4242681 L78.1610517,62.6525181 C72.9679516,58.504968 65.0677514,46.7564178 65.0677514,46.7564178 C65.0677514,46.7564178 67.4316515,43.9178677 68.0207015,43.1709677 C68.1081515,43.0565677 80.9908018,51.9231179 81.6497018,51.8439179 C81.8169018,51.8268679 82.4758018,50.6669179 83.3547018,48.9443178 L88.8822019,54.1027679 C88.7936519,56.325868 88.7232519,58.540168 88.6792519,60.6400681 C88.1611519,60.7368681 87.6430519,60.8248681 87.1244019,60.9216681" id="Fill-75" fill="#EEAB8E" fill-rule="evenodd"></path>
                                <g id="Group-78" stroke-width="1" fill="none" fill-rule="evenodd" transform="translate(63.616301, 60.363418)">
                                    <mask id="mask-12" fill="white">
                                        <use xlink:href="#path-11"></use>
                                    </mask>
                                    <g id="Clip-77"></g>
                                    <path d="M14.5535503,2.06085004 L14.4391503,5.90975013 L0.378950008,5.90975013 C0.378950008,5.90975013 1.77650004,0.417450009 5.58140012,0.417450009 C9.3863002,0.417450009 10.8537002,2.42990005 10.8537002,2.42990005 L14.5535503,2.06085004" id="Fill-76" fill="url(#radialGradient-13)" mask="url(#mask-12)"></path>
                                </g>
                                <path d="M67.9145515,43.0829677 L68.0207015,43.1709677 C67.4316515,43.9178677 65.0677514,46.7564178 65.0677514,46.7564178 L63.6003514,45.7196677 C63.6003514,45.7196677 61.9833513,46.7036178 60.1029013,45.6751177 C58.1432513,44.6119677 59.3560013,42.0731677 59.4566513,41.7723177 C59.0766013,41.8795677 56.7286512,43.7770677 56.3596012,43.5752177 C55.9905512,43.3728177 55.7183012,42.7051177 58.3451013,40.1129676 C60.9642013,37.5208176 64.5315014,40.8510676 64.6371014,40.8510676 L67.9145515,43.0829677" id="Fill-79" fill="#EEAB8E" fill-rule="evenodd"></path>
                                <path d="M60.4087013,45.2345677 C60.4087013,45.2345677 59.8422013,46.2949678 60.8492513,46.7564178 C61.8563013,47.2173178 63.8154014,47.5500678 64.6574514,47.4692178 C65.4989514,47.3878178 66.1683014,46.2102678 66.1683014,46.2102678 L63.6190514,43.8183177 L61.5813013,43.8183177 L60.4087013,45.2345677" id="Fill-80" fill="#EEAB8E" fill-rule="evenodd"></path>
                                <path d="M60.2580013,45.7554178 C60.4087013,45.2345677 61.8563013,45.5123177 62.7533514,45.5337677 C63.4144514,45.5491677 63.7763514,45.3759177 63.9804014,44.8721177 C64.1850014,44.3688677 63.2252514,43.5664177 63.0366014,43.8183177 C62.8479514,44.0696677 63.3825514,44.4244177 63.3985014,44.7582677 C63.4144514,45.0926677 62.4547014,45.2032177 61.7149513,45.2032177 C60.9752013,45.2032177 59.6992013,45.3957177 59.6992013,45.3957177 L60.2580013,45.7554178" id="Fill-81" fill="#DE9175" fill-rule="evenodd"></path>
                                <g id="Group-84" stroke-width="1" fill="none" fill-rule="evenodd" transform="translate(77.916302, 54.863418)">
                                    <mask id="mask-15" fill="white">
                                        <use xlink:href="#path-14"></use>
                                    </mask>
                                    <g id="Clip-83"></g>
                                    <path d="M37.0815508,5.25855011 L23.3117505,0.381150008 C22.3096505,2.25335005 21.2377005,3.65915008 20.1751004,3.94075009 C18.5669004,4.36205009 14.6822503,5.09135011 10.7629502,5.77665013 C10.2448502,5.87345013 9.72675021,5.96145013 9.2081002,6.05825013 C4.5419001,6.86620015 0.253550005,7.56085016 0.253550005,7.56085016 L0.244750005,7.78910017 L0.244750005,7.93870017 L0.139150003,11.4097502 L0.139150003,12.2908503 C0.139150003,12.2908503 4.8141501,12.0510503 10.7107002,12.4641003 C18.9623504,13.0526003 29.6037506,13.4046003 33.1270507,11.7441503 C34.7792508,10.9615002 36.0976008,8.39575018 37.1349008,5.23215011 L37.0815508,5.25855011" id="Fill-82" fill="url(#radialGradient-16)" mask="url(#mask-15)"></path>
                                </g>
                                <polyline id="Fill-85" fill="#EEAB8E" fill-rule="evenodd" points="101.228052 55.244568 114.997852 60.1219681 114.374702 61.9617181 100.746252 56.115768 101.228052 55.244568"></polyline>
                                <path d="M101.228052,55.244568 C100.225952,57.116768 99.1540021,58.522568 98.0914021,58.804168 C96.4832021,59.225468 92.598552,59.9547681 88.6792519,60.6400681 C88.7232519,58.540168 88.7936519,56.325868 88.8816519,54.1027679 C89.2595019,44.7703677 89.9541519,35.3675675 90.437602,34.4892175 C91.227952,33.0212675 93.390002,29.8318174 96.7994521,29.1025174 L96.8082521,29.1459674 C96.8082521,29.1459674 95.6307021,36.1062175 102.660252,36.1062175 C109.356502,36.1062175 110.209002,29.5942174 110.270052,28.9705174 C113.715252,29.3571674 118.996353,31.0792174 119.725653,38.0037176 C119.875253,39.3748676 120.085903,41.1321176 120.358153,43.1269677 L118.187853,43.4256177 C118.187853,43.4256177 117.308953,53.1798679 115.051202,60.0955681 L114.997852,60.1219681 L101.228052,55.244568" id="Fill-86" fill="#57F057" fill-rule="nonzero"></path>
                                <polyline id="Fill-87" fill="#31D332" fill-rule="nonzero" points="102.533752 54.5136179 101.085602 53.9757179 106.583952 40.6657176 102.533752 54.5136179"></polyline>
                                <path d="M110.270052,28.9705174 L107.274202,28.9705174 C107.274202,28.9705174 103.009502,33.6526675 100.268852,33.6526675 C97.5271021,33.6526675 99.0049521,28.9969174 99.0049521,28.9969174 L97.6673521,28.9969174 C93.826152,28.9969174 90.593252,31.8816674 90.158202,35.6986675 C90.108702,36.1359175 90.063052,36.5506176 90.024552,36.9257176 C89.7308519,39.7582176 101.205502,41.8196177 101.205502,41.8196177 L107.113602,41.4890677 L110.701252,34.4892175 L111.416252,31.6226174 L110.270052,28.9705174" id="Fill-88" fill="#57F057" fill-rule="nonzero"></path>
                                <polyline id="Fill-93" fill="#3C95F1" fill-rule="nonzero" points="30.2472507 67.1542682 19.8814004 39.5090676 49.3916511 39.5090676 59.7564013 67.1542682 30.2472507 67.1542682"></polyline>
                                <polyline id="Fill-94" fill="#005ADC" fill-rule="nonzero" points="61.5813013 67.1542682 59.7564013 67.1542682 49.3916511 39.5090676 51.0477011 39.5827676 60.6353013 64.6055682 61.5813013 67.1542682"></polyline>
                                <path d="M61.0087513,67.1542682 L80.5079017,67.1542682 L80.4545517,65.4113182 C80.4545517,65.4113182 60.9350513,65.4113182 60.6094513,65.4113182" id="Fill-95" fill="#005ADC" fill-rule="nonzero"></path>
                                <polygon id="Fill-96" fill="#C1D7DF" fill-rule="evenodd" points="139.387603 149.55472 144.082403 149.55472 144.082403 72.4265683 139.387603 72.4265683"></polygon>
                                <polygon id="Fill-97" fill="#C1D7DF" fill-rule="evenodd" points="113.903902 149.55472 118.598703 149.55472 118.598703 72.4265683 113.903902 72.4265683"></polygon>
                                <polygon id="Fill-98" fill="#C1D7DF" fill-rule="evenodd" points="32.2624507 149.55472 36.9567008 149.55472 36.9567008 72.4265683 32.2624507 72.4265683"></polygon>
                                <polygon id="Fill-99" fill="#A5AEAF" fill-rule="evenodd" points="6.77930015 149.55472 11.4741002 149.55472 11.4741002 72.4265683 6.77930015 72.4265683"></polygon>
                                <path d="M148.780503,72.7191683 L2.28195005,72.7191683 C1.02135002,72.7191683 -3.12638811e-14,71.6972683 -3.12638811e-14,70.4372183 L-3.12638811e-14,69.4356683 C-3.12638811e-14,68.1756182 1.02135002,67.1542682 2.28195005,67.1542682 L148.780503,67.1542682 C150.040553,67.1542682 151.061903,68.1756182 151.061903,69.4356683 L151.061903,70.4372183 C151.061903,71.6972683 150.040553,72.7191683 148.780503,72.7191683" id="Fill-100" fill="#174F5F" fill-rule="evenodd"></path>
                                <polyline id="Fill-101" fill="#D0FAFF" fill-rule="nonzero" points="24.8088505 42.4147177 25.3137505 43.7605677 31.1921507 43.7605677 30.6872507 42.4147177 24.8088505 42.4147177"></polyline>
                                <polyline id="Fill-102" fill="#DE9175" fill-rule="evenodd" points="83.3547018 48.9443178 82.9323018 49.7594178 88.8822019 55.907868 88.8822019 54.1027679 83.3547018 48.9443178"></polyline>
                            </g>
                        </g>
                    </g>
                </g>
            </g>
        </g>
    </g>
</svg>