<?xml version="1.0" encoding="UTF-8"?>
<svg width="673px" height="399px" viewBox="0 0 673 399" version="1.1" xmlns="http://www.w3.org/2000/svg" xmlns:xlink="http://www.w3.org/1999/xlink">
    <title>Group 39</title>
    <defs>
        <linearGradient x1="50%" y1="100%" x2="50%" y2="-8.79227629%" id="linearGradient-1">
            <stop stop-color="#D2EEF7" offset="0%"></stop>
            <stop stop-color="#FFFFFF" offset="100%"></stop>
        </linearGradient>
        <linearGradient x1="50%" y1="0%" x2="50%" y2="100%" id="linearGradient-2">
            <stop stop-color="#FFFFFF" offset="0%"></stop>
            <stop stop-color="#EFFBFE" offset="100%"></stop>
        </linearGradient>
        <linearGradient x1="50.7583092%" y1="-21.0096101%" x2="45.6087456%" y2="121.13664%" id="linearGradient-3">
            <stop stop-color="#CCE0F4" stop-opacity="0" offset="0%"></stop>
            <stop stop-color="#CDE0F4" stop-opacity="0.01" offset="22%"></stop>
            <stop stop-color="#CEE1F4" stop-opacity="0.04" offset="36%"></stop>
            <stop stop-color="#D1E3F5" stop-opacity="0.1" offset="47%"></stop>
            <stop stop-color="#D5E6F6" stop-opacity="0.18" offset="57%"></stop>
            <stop stop-color="#DAE9F7" stop-opacity="0.28" offset="66%"></stop>
            <stop stop-color="#E1EDF9" stop-opacity="0.41" offset="75%"></stop>
            <stop stop-color="#E9F1FA" stop-opacity="0.56" offset="83%"></stop>
            <stop stop-color="#F2F7FC" stop-opacity="0.74" offset="91%"></stop>
            <stop stop-color="#FCFDFE" stop-opacity="0.93" offset="98%"></stop>
            <stop stop-color="#FFFFFF" offset="100%"></stop>
        </linearGradient>
        <linearGradient x1="50%" y1="0%" x2="50%" y2="100%" id="linearGradient-4">
            <stop stop-color="#CEF3FD" offset="0%"></stop>
            <stop stop-color="#FFFFFF" offset="100%"></stop>
        </linearGradient>
        <linearGradient x1="100%" y1="49.8144979%" x2="-5.65725512%" y2="50%" id="linearGradient-5">
            <stop stop-color="#FFFFFF" offset="0%"></stop>
            <stop stop-color="#FFFFFF" stop-opacity="0" offset="50.5354021%"></stop>
            <stop stop-color="#FFFFFF" offset="100%"></stop>
            <stop stop-color="#FFFFFF" offset="100%"></stop>
        </linearGradient>
        <linearGradient x1="37.0664301%" y1="-8.93625155%" x2="76.2557019%" y2="95.0301061%" id="linearGradient-6">
            <stop stop-color="#CCE0F4" stop-opacity="0" offset="0%"></stop>
            <stop stop-color="#CDE0F4" stop-opacity="0.01" offset="22%"></stop>
            <stop stop-color="#CEE1F4" stop-opacity="0.04" offset="36%"></stop>
            <stop stop-color="#D1E3F5" stop-opacity="0.1" offset="47%"></stop>
            <stop stop-color="#D5E6F6" stop-opacity="0.18" offset="57%"></stop>
            <stop stop-color="#DAE9F7" stop-opacity="0.28" offset="66%"></stop>
            <stop stop-color="#E1EDF9" stop-opacity="0.41" offset="75%"></stop>
            <stop stop-color="#E9F1FA" stop-opacity="0.56" offset="83%"></stop>
            <stop stop-color="#F2F7FC" stop-opacity="0.74" offset="91%"></stop>
            <stop stop-color="#FCFDFE" stop-opacity="0.93" offset="98%"></stop>
            <stop stop-color="#FFFFFF" offset="100%"></stop>
        </linearGradient>
        <linearGradient x1="64.134911%" y1="-12.2240275%" x2="18.1580833%" y2="94.4040906%" id="linearGradient-7">
            <stop stop-color="#CCE0F4" stop-opacity="0" offset="0%"></stop>
            <stop stop-color="#CCE0F4" stop-opacity="0.01" offset="35%"></stop>
            <stop stop-color="#CEE1F4" stop-opacity="0.04" offset="48%"></stop>
            <stop stop-color="#D0E3F5" stop-opacity="0.08" offset="58%"></stop>
            <stop stop-color="#D4E5F6" stop-opacity="0.15" offset="66%"></stop>
            <stop stop-color="#D8E7F7" stop-opacity="0.24" offset="73%"></stop>
            <stop stop-color="#DEEBF8" stop-opacity="0.35" offset="80%"></stop>
            <stop stop-color="#E4EFF9" stop-opacity="0.48" offset="85%"></stop>
            <stop stop-color="#ECF3FB" stop-opacity="0.63" offset="90%"></stop>
            <stop stop-color="#F5F9FD" stop-opacity="0.8" offset="95%"></stop>
            <stop stop-color="#FEFEFF" stop-opacity="0.98" offset="100%"></stop>
            <stop stop-color="#FFFFFF" offset="100%"></stop>
        </linearGradient>
        <linearGradient x1="50.9677831%" y1="-19.5846681%" x2="49.0151216%" y2="120.877057%" id="linearGradient-8">
            <stop stop-color="#CCE0F4" stop-opacity="0" offset="0%"></stop>
            <stop stop-color="#CDE0F4" stop-opacity="0.01" offset="22%"></stop>
            <stop stop-color="#CEE1F4" stop-opacity="0.04" offset="36%"></stop>
            <stop stop-color="#D1E3F5" stop-opacity="0.1" offset="47%"></stop>
            <stop stop-color="#D5E6F6" stop-opacity="0.18" offset="57%"></stop>
            <stop stop-color="#DAE9F7" stop-opacity="0.28" offset="66%"></stop>
            <stop stop-color="#E1EDF9" stop-opacity="0.41" offset="75%"></stop>
            <stop stop-color="#E9F1FA" stop-opacity="0.56" offset="83%"></stop>
            <stop stop-color="#F2F7FC" stop-opacity="0.74" offset="91%"></stop>
            <stop stop-color="#FCFDFE" stop-opacity="0.93" offset="98%"></stop>
            <stop stop-color="#FFFFFF" offset="100%"></stop>
        </linearGradient>
        <linearGradient x1="51.1942563%" y1="-19.0986413%" x2="48.8033812%" y2="119.209102%" id="linearGradient-9">
            <stop stop-color="#CCE0F4" stop-opacity="0" offset="0%"></stop>
            <stop stop-color="#CDE0F4" stop-opacity="0.01" offset="24%"></stop>
            <stop stop-color="#CFE2F5" stop-opacity="0.04" offset="39%"></stop>
            <stop stop-color="#D2E4F5" stop-opacity="0.1" offset="51%"></stop>
            <stop stop-color="#D7E7F6" stop-opacity="0.18" offset="61%"></stop>
            <stop stop-color="#DEEBF8" stop-opacity="0.28" offset="71%"></stop>
            <stop stop-color="#E6F0FA" stop-opacity="0.41" offset="81%"></stop>
            <stop stop-color="#F0F6FC" stop-opacity="0.56" offset="89%"></stop>
            <stop stop-color="#FBFCFE" stop-opacity="0.73" offset="97%"></stop>
            <stop stop-color="#FFFFFF" stop-opacity="0.8" offset="100%"></stop>
        </linearGradient>
    </defs>
    <g id="Page-1" stroke="none" stroke-width="1" fill="none" fill-rule="evenodd">
        <g id="Desktop-HD-Copy-8" transform="translate(-414.000000, -5161.000000)">
            <g id="Group-39" transform="translate(414.000000, 5162.000000)">
                <g id="Group-11">
                    <g id="Group-9" transform="translate(21.000000, 4.000000)">
                        <rect id="Rectangle" fill-rule="nonzero" x="-4.09272581e-14" y="3.4487997" width="603.446348" height="302.407174"></rect>
                        <path d="M384.429567,275.306376 C384.429567,275.306376 392.443166,224.452781 448.833561,195.818383 C477.633559,181.202384 494.071157,185.817584 509.774356,154.655987 C521.690355,131.011189 501.134357,108.575991 522.482355,84.5135927 C541.331953,63.2951946 560.771952,82.5479929 584.95675,62.4599946 C609.141548,42.3719964 601.423148,-3.68345323e-13 601.423148,-3.68345323e-13 L0.921599921,-3.68345323e-13 C0.921599921,-3.68345323e-13 -3.72239968,42.3791964 19.2743983,62.4599946 C42.2711964,82.5407929 70.005594,66.4199943 84.7943927,90.2015922 C99.5831914,113.98319 68.0039941,131.961589 82.5839929,159.652786 C97.1639916,187.343984 112.36319,176.932785 139.463988,188.575184 C185.954384,208.555182 191.879983,247.859979 197.913583,275.306376" id="Path" fill="url(#linearGradient-1)"></path>
                        <path d="M375.422368,275.306376 C375.422368,275.306376 382.557567,224.452781 432.820763,195.818383 C458.488761,181.202384 473.140759,185.817584 487.137558,154.655987 C497.757557,131.011189 479.419159,108.575991 498.463157,84.5135927 C515.260756,63.2951946 532.591154,82.5479929 554.147952,62.4599946 C575.70475,42.3719964 568.799951,-3.68345323e-13 568.799951,-3.68345323e-13 L33.6095971,-3.68345323e-13 C33.6095971,-3.68345323e-13 29.4695975,42.3791964 49.9679957,62.4599946 C70.4663939,82.5407929 95.1839918,66.4199943 108.338391,90.2015922 C121.49279,113.98319 93.369592,131.961589 106.372791,159.652786 C119.37599,187.343984 132.904789,176.932785 157.053586,188.575184 C198.482383,208.555182 203.767182,247.859979 209.145582,275.306376" id="Path" fill="url(#linearGradient-2)" fill-rule="nonzero"></path>
                    </g>
                    <g id="Group" opacity="0.409793527" transform="translate(48.600000, 0.000000)" fill-rule="nonzero" stroke-width="1.39519994">
                        <circle id="Oval" stroke="#71ABBC" fill="#B2DEEB" cx="483.006378" cy="19.5487985" r="4.77439979"></circle>
                        <circle id="Oval" stroke="#A3CDD9" fill="#E8F9FE" opacity="0.52" cx="465.982379" cy="233.449589" r="4.77439979"></circle>
                        <g opacity="0.52" id="Oval">
                            <circle stroke="#71ABBC" fill="#B2DEEB" cx="4.93919973" cy="14.7743987" r="4.77439979"></circle>
                            <circle stroke="#FF5CA8" fill="#FFC9E3" cx="138.007994" cy="188.124791" r="2.98239987"></circle>
                            <circle stroke="#71ABBC" fill="#B2DEEB" cx="620.055972" cy="3.19039923" r="2.98239987"></circle>
                            <circle stroke="#71ABBC" fill="#B2DEEB" cx="537.252776" cy="167.388792" r="2.98239987"></circle>
                            <circle stroke="#71ABBC" fill="#B2DEEB" cx="69.8607968" cy="79.2351958" r="2.98239987"></circle>
                            <circle stroke="#71ABBC" fill="#B2DEEB" cx="236.529589" cy="22.5311984" r="2.98239987"></circle>
                            <circle stroke="#FF5CA8" fill="#FFC9E3" cx="190.820791" cy="294.582386" r="7.62879966"></circle>
                            <circle stroke="#FF5CA8" fill="#FFC9E3" cx="332.529585" cy="247.657588" r="7.62879966"></circle>
                            <circle stroke="#71ABBC" fill="#B2DEEB" cx="564.811175" cy="271.747187" r="2.98239987"></circle>
                            <circle stroke="#71ABBC" fill="#B2DEEB" cx="75.8383966" cy="252.086388" r="2.98239987"></circle>
                            <circle stroke="#71ABBC" fill="#B2DEEB" cx="372.807976" cy="107.151995" r="7.53919966"></circle>
                            <circle stroke="#71ABBC" fill="#B2DEEB" cx="164.836793" cy="107.151995" r="7.53919966"></circle>
                            <circle stroke="#FF5CA8" fill="#FFC9E3" cx="437.16958" cy="344.822384" r="7.53919966"></circle>
                        </g>
                    </g>
                    <g id="Group-46" transform="translate(82.800001, 20.400001)">
                        <line x1="204.677698" y1="144.352002" x2="212.181698" y2="147.232002" id="Path" stroke="#FF5F8F" stroke-width="1.92000003" stroke-linecap="round" stroke-linejoin="round"></line>
                        <line x1="225.797698" y1="147.792002" x2="232.325698" y2="142.992002" id="Path" stroke="#FF5F8F" stroke-width="1.92000003" stroke-linecap="round" stroke-linejoin="round"></line>
                        <circle id="Oval" fill="#FFFFFF" fill-rule="nonzero" cx="229.045698" cy="150.928002" r="1"></circle>
                        <circle id="Oval" fill="#FFFFFF" fill-rule="nonzero" cx="210.325698" cy="150.928002" r="1"></circle>
                        <polyline id="Path" stroke="#FFFFFF" stroke-width="2.09600003" opacity="0.5" points="154.357697 214.736003 173.141697 191.120003 188.197698 218.832003 214.549698 198.128003 225.797698 230.000003 248.597698 217.136003 255.045699 242.112004 270.757699 241.104004"></polyline>
                        <line x1="111.509696" y1="135.248002" x2="103.445696" y2="153.632002" id="Path" stroke="#FF5F8F" stroke-width="1.92000003" stroke-linecap="round" stroke-linejoin="round"></line>
                        <path d="M283.477699,172.112003 C254.197699,157.312002 216.997698,139.712002 175.493697,127.856002 L141.317697,156.560002 L171.157697,289.696004 L263.669699,289.696004 L268.021699,250.208004 L270.757699,241.104004 L283.477699,172.112003 Z" id="Path" fill="#A953FE" fill-rule="nonzero"></path>
                        <path d="M294.597699,182.064003 L340.1977,251.568004 C345.1699,259.129719 345.590293,268.810423 341.292322,276.774703 C336.994351,284.738983 328.671688,289.701445 319.6217,289.696009 L214.021698,289.696009 L214.021698,268.992004 L283.957699,254.448004 L270.757699,241.104004 L294.597699,182.064003 Z" id="Path" fill="#FEC6C1" fill-rule="nonzero"></path>
                        <path d="M146.933697,181.568003 L141.317697,156.560002 L175.493697,127.856002 L115.637696,106.864002 C109.276047,104.625512 102.206387,105.888819 97.0136962,110.192002 L20.6616951,173.296003 L43.6056954,182.896003 L103.381696,154.848002 L146.933697,181.568003 Z" id="Path" fill="#FEC6C1" fill-rule="nonzero"></path>
                        <path d="M16.869695,206.096003 C16.869695,206.096003 20.6616951,220.224003 16.357695,220.752003 C12.053695,221.280003 4.62969484,190.768003 4.62969484,190.768003 L14.133695,184.816003 L16.869695,206.096003 Z" id="Path" fill="#DF9F99" fill-rule="nonzero"></path>
                        <path d="M3.46169482,249.344004 C2.43769481,249.136004 0.853694784,236.928004 0.853694784,236.928004 L10.8856949,239.056004 C10.8856949,239.056004 4.48569484,249.568004 3.46169482,249.344004 Z" id="Path" fill="#FFCEB8" fill-rule="nonzero"></path>
                        <rect id="Rectangle" fill="#F7C153" fill-rule="nonzero" transform="translate(15.416873, 192.821069) rotate(11.970000) translate(-15.416873, -192.821069) " x="10.2888725" y="146.645068" width="10.2560002" height="92.3520014"></rect>
                        <rect id="Rectangle" fill="#DDA73A" fill-rule="nonzero" transform="translate(17.308861, 193.219941) rotate(11.970000) translate(-17.308861, -193.219941) " x="16.4528607" y="147.043941" width="1.71200003" height="92.3520014"></rect>
                        <rect id="Rectangle" fill="#DDA73A" fill-rule="nonzero" transform="translate(13.390652, 192.393026) rotate(11.970000) translate(-13.390652, -192.393026) " x="12.5346522" y="146.217025" width="1.71200003" height="92.3520014"></rect>
                        <rect id="Rectangle" fill="#7360C7" fill-rule="nonzero" transform="translate(23.982072, 152.489634) rotate(11.970000) translate(-23.982072, -152.489634) " x="18.8540724" y="150.369634" width="10.2560002" height="4.24000006"></rect>
                        <path d="M23.5447903,144.521019 L26.5367904,144.521019 C28.5426886,144.521019 30.1687904,146.14712 30.1687904,148.153019 L30.1687904,150.473019 L19.9127903,150.473019 L19.9127903,148.153019 C19.9127903,147.189752 20.2954463,146.265939 20.9765784,145.584807 C21.6577106,144.903675 22.581524,144.521019 23.5447903,144.521019 Z" id="Path" fill="#FF87C1" fill-rule="nonzero" transform="translate(25.040790, 147.497019) rotate(11.970000) translate(-25.040790, -147.497019) "></path>
                        <path d="M44.9176954,179.696003 C44.9176954,179.696003 37.4136953,198.320003 35.0456953,199.520003 C32.6776953,200.720003 20.7256951,202.976003 20.3576951,203.312003 C19.0342361,204.973236 17.5960505,206.539736 16.053695,208.000003 C15.621695,208.000003 8.05369489,210.640003 14.245695,199.120003 L20.6456951,193.328003 L24.7416951,174.000003 L44.9176954,179.696003 Z" id="Path" fill="#FEC6C1" fill-rule="nonzero"></path>
                        <path d="M13.813695,175.792003 C13.813695,175.792003 2.70969481,179.888003 2.1496948,182.192003 C1.5896948,184.496003 -0.394305234,196.144003 0.0696947725,197.664003 C0.533694779,199.184003 5.70169486,215.264003 5.70169486,215.264003 C5.70169486,215.264003 10.8856949,214.576003 9.47769491,206.816003 C8.06969489,199.056003 7.62169488,193.104003 7.62169488,193.104003 L10.8216949,189.808003 L13.813695,175.792003 Z" id="Path" fill="#FEC6C1" fill-rule="nonzero"></path>
                        <line x1="111.509696" y1="135.248002" x2="103.445696" y2="153.632002" id="Path" stroke="#DF9F99" stroke-width="1.92000003" stroke-linecap="round" stroke-linejoin="round"></line>
                        <path d="M284.021699,254.448004 C303.765699,252.848004 319.3977,247.168004 329.6057,235.424004 L294.597699,182.064003 C291.829795,177.827283 287.994369,174.394715 283.477699,172.112003 L283.477699,172.112003 L270.677699,208.784003 L270.677699,241.104004 L284.021699,254.448004 Z" id="Path" fill="#A953FE" fill-rule="nonzero"></path>
                        <path d="M146.933697,181.568003 L175.493697,127.856002 L142.629697,116.304002 C129.461697,111.680002 111.061696,142.144002 107.349696,157.600002 L146.933697,181.568003 Z" id="Path" fill="#A953FE" fill-rule="nonzero"></path>
                        <ellipse id="Oval" fill="#FFAAA2" fill-rule="nonzero" transform="translate(214.066104, 163.581533) rotate(-71.120000) translate(-214.066104, -163.581533) " cx="214.066104" cy="163.581533" rx="19.6640003" ry="29.3280004"></ellipse>
                        <path d="M235.909698,149.904002 C236.661698,150.048002 238.421698,150.448002 243.541698,148.496002 C250.331025,145.377597 255.939644,140.161581 259.541699,133.616002 C262.517699,128.448002 265.941699,114.288002 261.925699,115.152002 C253.925699,116.896002 251.685699,107.232002 251.685699,107.232002 L233.557698,136.032002 L235.909698,149.904002 Z" id="Path" fill="#5C4F78" fill-rule="nonzero"></path>
                        <path d="M237.829698,149.904002 C237.829698,149.904002 250.965699,148.304002 255.509699,131.664002 C258.469699,120.864002 255.717699,107.424002 256.421699,101.856002 C257.189699,95.6160014 257.461699,93.6800014 255.749699,91.6160014 C254.037699,89.5520013 245.461698,91.2960014 240.709698,96.1760014 C229.589698,107.648002 228.245698,128.672002 228.245698,128.672002 L237.829698,149.904002 Z" id="Path" fill="#54486E" fill-rule="nonzero"></path>
                        <path d="M200.725698,126.800002 C200.725698,126.800002 199.749698,115.136002 195.925698,111.024002 C188.357698,102.800002 176.645697,102.064002 177.045697,104.464002 C180.581697,125.264002 178.645697,125.952002 180.485697,133.104002 C184.229698,147.056002 198.325698,148.240002 198.325698,148.240002 L200.725698,126.800002 Z" id="Path" fill="#54486E" fill-rule="nonzero"></path>
                        <path d="M204.613698,132.384002 C200.158959,130.505865 196.314366,127.425759 193.509698,123.488002 C189.421548,117.244093 187.644403,109.767633 188.485698,102.352002 C190.885698,88.0480013 199.237698,80.2560012 202.421698,79.5680012 C206.693698,78.6400012 222.421698,92.0000014 223.221698,96.7040014 C224.021698,101.408002 220.933698,122.144002 220.933698,122.144002 L204.613698,132.384002 Z" id="Path" fill="#584C73" fill-rule="nonzero"></path>
                        <path d="M235.813698,131.072002 C236.469698,130.864002 244.981698,126.944002 245.797698,108.672002 C246.597698,90.7680014 241.509698,76.3840011 236.629698,75.5680011 C228.069698,74.1120011 211.941698,89.2480013 209.429698,94.0800014 C203.477698,105.792002 207.829698,117.280002 208.277698,117.264002 C208.725698,117.248002 235.813698,131.072002 235.813698,131.072002 Z" id="Path" fill="#5C4F78" fill-rule="nonzero"></path>
                        <rect id="Rectangle" fill="#FEC6C1" fill-rule="nonzero" x="195.973698" y="114.656002" width="46.0480007" height="56.2240008" rx="23.0240003"></rect>
                        <circle id="Oval" fill="#5C4F78" fill-rule="nonzero" cx="209.749698" cy="152.416002" r="2.44800004"></circle>
                        <circle id="Oval" fill="#5C4F78" fill-rule="nonzero" cx="228.245698" cy="152.416002" r="2.44800004"></circle>
                        <path d="M195.797698,135.200002 L195.973698,135.200002 L195.973698,149.904002 L195.797698,149.904002 C191.715209,149.904002 188.405698,146.594491 188.405698,142.512002 L188.405698,142.512002 C188.405698,138.429513 191.715209,135.120002 195.797698,135.120002 L195.797698,135.200002 Z" id="Path" fill="#FEC6C1" fill-rule="nonzero"></path>
                        <path d="M249.413698,135.280002 L249.589698,135.280002 L249.589698,149.984002 L249.413698,149.984002 C245.33121,149.984002 242.021698,146.674491 242.021698,142.592002 L242.021698,142.592002 C242.065545,138.540789 245.362249,135.279765 249.413698,135.280002 Z" id="Path" fill="#FEC6C1" fill-rule="nonzero" transform="translate(245.805698, 142.632002) rotate(180.000000) translate(-245.805698, -142.632002) "></path>
                        <path d="M237.301698,134.288002 L236.693698,130.016002 C236.693698,130.016002 232.629698,133.216002 230.437698,132.864002 C228.245698,132.512002 225.797698,126.944002 225.797698,126.944002 C225.797698,126.944002 221.237698,132.128002 219.029698,132.224002 C216.821698,132.320002 212.517698,126.944002 212.517698,126.944002 L208.117698,132.992002 L201.381698,130.704002 L201.381698,130.704002 L201.173698,134.480002 L198.933698,125.104002 L207.285698,114.640002 L226.117698,113.168002 L238.261698,121.280002 L239.861698,127.840002 L237.301698,134.288002 Z" id="Path" fill="#5C4F78" fill-rule="nonzero"></path>
                        <path d="M198.933698,125.120002 C201.957698,128.688002 201.509698,131.520002 201.173698,134.496002 C199.861698,142.096002 196.581698,145.600002 195.973698,144.096002 C195.365698,142.592002 195.973698,135.200002 195.973698,135.200002 C195.973698,135.200002 196.437698,125.296002 198.933698,125.120002 Z" id="Path" fill="#54486E" fill-rule="nonzero"></path>
                        <path d="M239.813698,127.856002 C237.301698,131.392002 237.301698,132.784002 237.301698,134.256002 C238.629698,141.904002 241.397698,145.344002 242.021698,144.336002 C242.645698,143.328002 242.021698,135.168002 242.021698,135.168002 C242.021698,135.168002 243.189698,129.104002 239.813698,127.856002 Z" id="Path" fill="#54486E" fill-rule="nonzero"></path>
                        <path d="M197.125698,127.504002 C194.773698,122.864002 207.285698,114.592002 207.285698,114.592002 C208.275136,118.969764 210.047622,123.132667 212.517698,126.880002 C212.517698,126.880002 209.957698,132.176002 208.165698,132.928002 C206.373698,133.680002 201.381698,130.656002 201.381698,130.656002 L197.125698,127.504002 Z" id="Path" fill="#584C73" fill-rule="nonzero"></path>
                        <line x1="204.677698" y1="144.352002" x2="212.181698" y2="147.232002" id="Path" stroke="#DE9F9B" stroke-width="1.92000003" stroke-linecap="round" stroke-linejoin="round"></line>
                        <line x1="225.797698" y1="147.792002" x2="232.325698" y2="142.992002" id="Path" stroke="#DE9F9B" stroke-width="1.92000003" stroke-linecap="round" stroke-linejoin="round"></line>
                        <path d="M214.085698,289.696004 L162.789697,289.696004 C162.789697,289.696004 157.781697,283.184004 164.533697,280.096004 C171.285697,277.008004 195.013698,270.496004 195.013698,270.496004 L215.813698,268.352004 L214.085698,289.696004 Z" id="Path" fill="#FEC6C1" fill-rule="nonzero"></path>
                        <circle id="Oval" fill="#FFFFFF" fill-rule="nonzero" cx="229.045698" cy="150.928002" r="1"></circle>
                        <circle id="Oval" fill="#FFFFFF" fill-rule="nonzero" cx="210.325698" cy="150.928002" r="1"></circle>
                        <path d="M151.797697,203.280003 L156.437697,207.376003 C157.669537,208.534219 159.589857,208.534219 160.821697,207.376003 L173.829697,195.200003 C174.577188,194.463696 175.63815,194.140607 176.669158,194.335317 C177.700166,194.530028 178.570223,195.217798 178.997697,196.176003 L186.549698,212.176003 C186.950998,213.076052 187.744613,213.741003 188.701015,213.978541 C189.657417,214.216079 190.669923,213.999707 191.445698,213.392003 L210.469698,199.088003 C211.255274,198.470992 212.283917,198.256222 213.250751,198.507348 C214.217586,198.758473 215.011688,199.446684 215.397698,200.368003 L227.029698,226.544003 C227.404766,227.439556 228.166146,228.116388 229.099476,228.383943 C230.032806,228.651497 231.037134,228.480835 231.829698,227.920003 L244.357698,219.472003 C245.180104,218.921371 246.211019,218.782272 247.14995,219.095249 C248.088881,219.408226 248.830153,220.138054 249.157698,221.072003 L256.565699,240.544004 C257.080697,241.967513 258.522728,242.835402 260.021699,242.624004 L270.693699,241.248004" id="Path" stroke="#FFFFFF" stroke-width="2.80000004" opacity="0.5" stroke-linecap="round" stroke-linejoin="round"></path>
                        <polygon id="Path" fill="url(#linearGradient-3)" fill-rule="nonzero" opacity="0.66" points="160.229697 289.696004 87.0456961 0 347.0137 0 266.613699 289.696004"></polygon>
                    </g>
                    <polygon id="Rectangle" fill="url(#linearGradient-4)" points="48.3951521 307.798395 622.395152 307.798395 622.395152 397.817591 337.907697 397.817591 48.3951521 397.817591"></polygon>
                    <polygon id="Rectangle" fill="url(#linearGradient-5)" opacity="0.990513393" points="48.3951521 307.798395 622.395152 307.798395 622.395152 383.798395 337.907697 383.798395 48.3951521 383.798395"></polygon>
                    <path d="M541.580769,286.015996 L536.780769,286.015996 L536.780769,284.028796 C536.780769,281.876211 535.035754,280.131196 532.883169,280.131196 L510.94717,280.131196 C508.794585,280.131196 507.04957,281.876211 507.04957,284.028796 L507.04957,305.590395 C507.04957,309.738063 510.409105,313.101897 514.55677,313.107194 L529.244769,313.107194 C532.873378,313.106268 535.983341,310.513286 536.636769,306.943995 L540.476769,306.943995 C544.475979,306.938698 547.715168,303.695209 547.715168,299.695995 L547.715168,292.150395 C547.709882,288.764652 544.966512,286.021282 541.580769,286.015996 L541.580769,286.015996 Z M542.540768,299.705595 C542.540768,300.840209 541.620982,301.759995 540.486369,301.759995 L536.771169,301.759995 L536.771169,291.199995 L541.571169,291.199995 C542.101362,291.199995 542.531168,291.629802 542.531168,292.159995 L542.540768,299.705595 Z" id="Shape" fill="#605760" fill-rule="nonzero"></path>
                    <rect id="Rectangle" fill-rule="nonzero" x="528.102369" y="280.131196" width="29.7119987" height="32.9759985"></rect>
                    <path d="M519.27997,289.222396 L517.13917,294.022395 C517.030469,294.358644 517.115288,294.727425 517.35997,294.982395 C518.169807,295.87486 518.338342,297.177179 517.78237,298.246395 L515.32477,302.921595 C515.730969,303.133452 516.181849,303.245349 516.63997,303.247995 C519.18397,303.247995 521.238369,299.763195 521.238369,295.462395 C521.28639,293.224075 520.598374,291.031868 519.27997,289.222396 Z" id="Path" fill="#877B87" fill-rule="nonzero"></path>
                    <path d="M516.39997,297.401595 C516.606176,297.03339 516.547741,296.573699 516.25597,296.268795 C515.491038,295.42485 515.295357,294.209371 515.75677,293.167995 L518.04157,288.089596 C517.605556,287.84113 517.112999,287.7089 516.61117,287.705596 C514.07677,287.705596 512.01277,291.190395 512.01277,295.491195 C511.920426,297.803859 512.632899,300.076986 514.02877,301.923195 L516.39997,297.401595 Z" id="Path" fill="#877B87" fill-rule="nonzero"></path>
                    <path d="M217.983983,321.478394 L210.678383,327.238394 C210.480302,327.399467 210.232889,327.487587 209.977583,327.487994 L193.609584,327.487994 C193.120202,327.494985 192.681671,327.18689 192.522322,326.724125 C192.362974,326.261359 192.518848,325.748587 192.908784,325.452794 L200.204784,319.692794 C200.408883,319.537104 200.658481,319.45278 200.915184,319.452794 L217.235183,319.452794 C217.72223,319.442335 218.162325,319.741884 218.33124,320.198821 C218.500155,320.655758 218.360722,321.169539 217.983983,321.478394 Z" id="Path" fill="#C04B9B" fill-rule="nonzero"></path>
                    <path d="M205.062384,332.211194 L192.927984,341.811193 C192.685291,341.996686 192.388644,342.097815 192.083184,342.099193 L176.425585,342.099193 C175.847307,342.096915 175.333394,341.730029 175.143416,341.183843 C174.953439,340.637658 175.128743,340.031043 175.580785,339.670393 L187.715184,330.070394 C187.962129,329.886012 188.261411,329.78513 188.569584,329.782394 L204.217584,329.782394 C204.795861,329.784672 205.309774,330.151558 205.499752,330.697744 C205.68973,331.243929 205.514425,331.850544 205.062384,332.211194 L205.062384,332.211194 Z" id="Path" fill="#F7B500" fill-rule="nonzero"></path>
                    <polygon id="Path" fill="url(#linearGradient-6)" fill-rule="nonzero" points="249.203182 307.817595 203.756784 134.000003 119.564787 134.000003 222.812783 334.889594 229.407982 333.583994"></polygon>
                    <path d="M150.037196,295.73 L119.227196,274.09 C119.597196,250.09 128.697196,232.44 143.457196,223.82 L168.127196,244.43 C155.747196,250.49 152.747196,270.09 150.037196,295.73 Z" id="Path" fill="#E8F6FB" fill-rule="nonzero"></path>
                    <path d="M77.9471955,120.12 L32.9971955,137.69 C10.5471955,120.59 -2.06280448,102.36 0.277195523,82.49 L44.0471955,70 C40.9771955,85.95 58.6271955,109.68 77.9471955,120.12 Z" id="Path" fill="#DDF1F8" fill-rule="nonzero"></path>
                    <polygon id="Path" fill="url(#linearGradient-7)" fill-rule="nonzero" points="311.497579 307.817595 359.737577 134.000003 459.807972 134.000003 340.671978 334.889594 340.671978 334.889594"></polygon>
                    <polygon id="Path" fill="url(#linearGradient-8)" fill-rule="nonzero" points="298.239979 307.817595 310.902379 134.000003 358.019177 134.000003 311.737579 307.817595"></polygon>
                    <polygon id="Path" fill="url(#linearGradient-9)" fill-rule="nonzero" points="262.124781 337.769593 196.537584 163.952001 255.039981 163.952001 270.889581 337.769593"></polygon>
                    <path d="M474.96,234.438845 L496.47,262.938845 C486.32,282.028845 467.47,296.578845 452.09,297.428845 L439,270.008845 C451.75,267.228845 469.2,250.438845 474.96,234.438845 Z" id="Path" fill="#E8F6FB" fill-rule="nonzero"></path>
                    <path d="M557.03,121.338845 L574.22,88.558845 C599.64,86.358845 620.01,90.468845 632.69,104.198845 L615.5,136.978845 C606.05,125.308845 584.75,121.258845 557.03,121.338845 Z" id="Path" fill="#DDEFF5" fill-rule="nonzero"></path>
                    <path d="M387.692775,317.955194 C388.076775,317.523194 393.740775,319.126394 393.740775,319.126394 L390.015975,323.321594 C390.015975,323.321594 387.308775,318.377594 387.692775,317.955194 Z" id="Path" fill="#E6D5B6" fill-rule="nonzero"></path>
                    <polygon id="Path" fill="#B3EA4E" fill-rule="nonzero" points="390.025575 323.321594 393.740775 319.126394 427.100774 345.151993 423.375974 349.347193"></polygon>
                    <polygon id="Path" fill="#9CCD41" fill-rule="nonzero" points="390.870375 322.361594 391.494375 321.660794 424.844774 347.686393 424.230374 348.387193"></polygon>
                    <polygon id="Path" fill="#9CCD41" fill-rule="nonzero" points="392.319975 320.719994 392.943975 320.019194 426.303974 346.044793 425.679974 346.755193"></polygon>
                    <polygon id="Path" fill="#9CCD41" fill-rule="nonzero" points="420.822374 347.359993 424.547174 343.164793 426.083174 344.355193 422.358374 348.559993"></polygon>
                    <path d="M425.823974,348.742393 L426.908774,347.523193 C427.260511,347.199618 427.460664,346.743526 427.460664,346.265593 C427.460664,345.78766 427.260511,345.331568 426.908774,345.007993 L426.073574,344.355193 L422.319974,348.550393 L423.155174,349.203193 C424.027923,349.773425 425.192969,349.572266 425.823974,348.742393 L425.823974,348.742393 Z" id="Path" fill="#BE5CE1" fill-rule="nonzero"></path>
                    <path d="M357.999977,317.062394 C358.383977,316.630394 364.047976,318.233594 364.047976,318.233594 L360.323177,322.428794 C360.323177,322.428794 357.635177,317.455994 357.999977,317.062394 Z" id="Path" fill="#E6D5B6" fill-rule="nonzero"></path>
                    <polygon id="Path" fill="#66D0FF" fill-rule="nonzero" points="360.342377 322.390394 364.067176 318.195194 397.427175 344.220793 393.702375 348.415993"></polygon>
                    <polygon id="Path" fill="#4AB2E0" fill-rule="nonzero" points="361.196777 321.430394 361.820777 320.729594 395.171175 346.755193 394.547175 347.455993"></polygon>
                    <polygon id="Path" fill="#4AB2E0" fill-rule="nonzero" points="362.646377 319.798394 363.270376 319.097594 396.630375 345.123193 396.006375 345.823993"></polygon>
                    <polygon id="Path" fill="#66E9FF" fill-rule="nonzero" points="391.148775 346.428793 394.873575 342.233593 396.409575 343.433593 392.684775 347.628793"></polygon>
                    <path d="M396.150375,347.782393 L397.235175,346.563193 C397.583765,346.239838 397.781869,345.785865 397.781869,345.310393 C397.781869,344.834921 397.583765,344.380948 397.235175,344.057593 L396.399975,343.404793 L392.675175,347.599993 L393.510375,348.252793 C394.380428,348.798101 395.522217,348.594655 396.150375,347.782393 Z" id="Path" fill="#ED9450" fill-rule="nonzero"></path>
                    <path d="M304.547179,352.889593 C304.547179,353.465593 299.036779,355.673593 299.036779,355.673593 L299.411179,350.076793 C299.411179,350.076793 304.585579,352.313593 304.547179,352.889593 Z" id="Path" fill="#E6D5B6" fill-rule="nonzero"></path>
                    <polygon id="Path" fill-rule="nonzero" points="305.411179 350.940793 305.151979 354.876793 302.051179 354.867193 302.319979 350.931193"></polygon>
                    <polygon id="Path" fill="#44D7B6" fill-rule="nonzero" points="299.411179 350.076793 299.036779 355.673593 256.739181 355.548793 257.103981 349.942393"></polygon>
                    <polygon id="Path" fill="#76F4D8" fill-rule="nonzero" points="299.324779 351.353593 299.267179 352.294393 256.959981 352.159993 257.027181 351.228793"></polygon>
                    <polygon id="Path" fill="#76F4D8" fill-rule="nonzero" points="299.180779 353.532793 299.123179 354.473593 256.815981 354.348793 256.883181 353.407993"></polygon>
                    <polygon id="Path" fill="#B9DFE9" fill-rule="nonzero" points="260.339181 349.951993 259.964781 355.558393 258.025581 355.548793 258.390381 349.951993"></polygon>
                    <path d="M255.539181,351.929593 L255.433581,353.561593 C255.354064,354.030411 255.473492,354.511161 255.763154,354.888269 C256.052816,355.265376 256.486513,355.504731 256.959981,355.548793 L258.025581,355.548793 L258.390381,349.951993 L257.334381,349.951993 C256.31615,350.050835 255.539337,350.906576 255.539181,351.929593 Z" id="Path" fill="#C04B9B" fill-rule="nonzero"></path>
                    <g id="Group-45" transform="translate(207.474919, 284.700795)" fill-rule="nonzero">
                        <path d="M114.09947,60.2017184 L16.0642744,60.2017184 C15.3711858,60.210105 14.7520829,59.769629 14.5328926,59.112058 C14.3137022,58.4544869 14.5446989,57.7306444 15.1042744,57.3215974 L54.3010727,26.6975988 C54.5739051,26.4824735 54.9137882,26.370312 55.2610726,26.3807988 L154.304268,26.3807988 C154.997357,26.3722911 155.61646,26.8127671 155.83565,27.4703382 C156.05484,28.1279092 155.823844,28.8517518 155.264268,29.2607987 L116.96987,59.2127974 C116.152602,59.8578482 115.14062,60.2064573 114.09947,60.2017184 L114.09947,60.2017184 Z" id="Path" fill="#202A81"></path>
                        <path d="M112.16027,57.3792157 L18.2626743,57.3792157 C17.6369515,57.3819708 17.0800715,56.9829315 16.8815443,56.3895314 C16.6830171,55.7961313 16.8876562,55.1423191 17.3890743,54.7679976 L54.8866726,26.6783988 C55.1369932,26.4854016 55.4441899,26.3807988 55.7602726,26.3807988 L150.675468,26.3807988 C151.300042,26.3848682 151.852768,26.7859934 152.05028,27.3785282 C152.247791,27.9710631 152.046285,28.6235992 151.549068,29.0015987 L114.86747,56.4863975 C114.085261,57.0687298 113.135439,57.3819689 112.16027,57.3792157 Z" id="Path" fill="#7380E1"></path>
                        <path d="M109.41467,57.3792472 L16.4098744,57.3792472 C14.9254472,57.3873711 13.6247603,56.3871468 13.2514745,54.9503975 L0.147475079,5.55839975 C-0.203837271,4.23162869 0.0803058706,2.81694584 0.916676461,1.72872433 C1.75304705,0.640502817 3.04698148,0.00191171183 4.41947489,4.43378674e-13 L93.9298709,4.43378674e-13 C96.5871504,0.00210754898 98.9110679,1.79034237 99.5938706,4.35839981 L112.57307,53.3183976 C112.81837,54.2928309 112.601177,55.3259385 111.984268,56.1191068 C111.367359,56.9122752 110.419502,57.3770893 109.41467,57.3792472 L109.41467,57.3792472 Z" id="Path" fill="#29369F"></path>
                        <ellipse id="Oval" fill="#7C86DA" transform="translate(50.134857, 8.925035) rotate(-47.180000) translate(-50.134857, -8.925035) " cx="50.1348566" cy="8.92503514" rx="2.1599999" ry="2.52479989"></ellipse>
                    </g>
                    <polygon id="Path" fill="#B2DEEB" fill-rule="nonzero" points="521.142369 338.739193 479.622371 306.876795 426.361574 306.876795 426.361574 328.668794 465.135972 360.531192 521.142369 360.531192"></polygon>
                    <polygon id="Path" fill="#DCF7FF" fill-rule="nonzero" points="426.361574 306.876795 465.135972 338.739193 521.142369 338.739193 479.622371 306.876795"></polygon>
                    <path d="M486.572771,346.169593 L520.796769,346.169593 L525.251169,350.268793 C521.219169,349.654393 474.668772,349.836793 463.542372,350.326393 L465.318372,346.169593 L486.572771,346.169593 Z" id="Path" fill="#C9F1FD" fill-rule="nonzero"></path>
                    <path d="M463.542372,350.326393 C450.659173,340.726394 421.302374,316.726394 421.302374,316.726394 L426.390374,316.851194 L465.347172,346.169593 L463.542372,350.326393 Z" id="Path" fill="#C9F1FD" fill-rule="nonzero"></path>
                </g>
                <path d="M317.855469,59.0146484 L317.925781,59 C318.101562,58.9609375 318.233398,58.8974609 318.321289,58.8095703 C318.40918,58.7216797 318.462891,58.6240234 318.482422,58.5166016 C318.501953,58.4091797 318.511719,58.296875 318.511719,58.1796875 L318.511719,58.1796875 L318.511719,57.828125 C318.511719,57.4765625 318.472656,56.9589844 318.394531,56.2753906 C318.316406,55.5917969 318.21875,54.8105469 318.101562,53.9316406 C317.984375,53.0527344 317.842773,52.1152344 317.676758,51.1191406 C317.510742,50.1230469 317.334961,49.15625 317.149414,48.21875 C316.963867,47.28125 316.758789,46.3974609 316.53418,45.5673828 C316.30957,44.7373047 316.080078,44.0537109 315.845703,43.5166016 C315.611328,42.9794922 315.376953,42.6132813 315.142578,42.4179688 C314.908203,42.2226563 314.673828,42.28125 314.439453,42.59375 C314.439453,43.0625 314.493164,43.5800781 314.600586,44.1464844 C314.708008,44.7128906 314.830078,45.2744141 314.966797,45.8310547 C315.103516,46.3876953 315.245117,46.9101563 315.391602,47.3984375 C315.538086,47.8867188 315.640625,48.2773438 315.699219,48.5703125 C315.816406,49.2734375 315.923828,50.0351563 316.021484,50.8554688 C316.119141,51.6367188 316.207031,52.4277344 316.285156,53.2285156 C316.363281,54.0292969 316.446289,54.8251953 316.53418,55.6162109 C316.62207,56.4072266 316.714844,57.1640625 316.8125,57.8867188 C316.832031,57.9257813 316.875977,58.0087891 316.944336,58.1357422 C317.012695,58.2626953 317.105469,58.3945313 317.222656,58.53125 C317.339844,58.6679688 317.457031,58.7900391 317.574219,58.8974609 C317.691406,59.0048828 317.808594,59.0390625 317.925781,59 L317.855469,59.0146484 Z M338.814453,59.0292969 C339.087891,59.0292969 339.405273,59.0146484 339.766602,58.9853516 C340.12793,58.9560547 340.494141,58.921875 340.865234,58.8828125 C341.236328,58.84375 341.578125,58.7753906 341.890625,58.6777344 C342.203125,58.5800781 342.466797,58.453125 342.681641,58.296875 C342.896484,58.140625 343.003906,57.9550781 343.003906,57.7402344 C343.003906,57.7207031 342.999023,57.7109375 342.989258,57.7109375 C342.979492,57.7109375 342.974609,57.6914063 342.974609,57.6523438 L342.974609,57.6523438 L342.974609,57.5644531 C342.916016,57.5449219 342.818359,57.4960938 342.681641,57.4179688 C342.544922,57.3398438 342.447266,57.3007813 342.388672,57.3007813 C341.705078,57.3398438 340.992188,57.3691406 340.25,57.3886719 C339.507812,57.4082031 338.765625,57.3886719 338.023438,57.3300781 C337.28125,57.2714844 336.578125,57.1542969 335.914062,56.9785156 C335.25,56.8027344 334.664062,56.5341797 334.15625,56.1728516 C333.648438,55.8115234 333.248047,55.3378906 332.955078,54.7519531 C332.662109,54.1660156 332.515625,53.4238281 332.515625,52.5253906 C332.515625,51.8613281 332.618164,51.2119141 332.823242,50.5771484 C333.02832,49.9423828 333.326172,49.3710938 333.716797,48.8632813 C334.107422,48.3554688 334.595703,47.9453125 335.181641,47.6328125 C335.767578,47.3203125 336.431641,47.1640625 337.173828,47.1640625 C338.150391,47.1640625 338.892578,47.4716797 339.400391,48.0869141 C339.908203,48.7021484 340.162109,49.46875 340.162109,50.3867188 C340.240234,50.3867188 340.333008,50.2939453 340.44043,50.1083984 C340.547852,49.9228516 340.640625,49.7128906 340.71875,49.4785156 C340.796875,49.2441406 340.860352,49.0097656 340.90918,48.7753906 C340.958008,48.5410156 340.982422,48.3847656 340.982422,48.3066406 C340.982422,47.8183594 340.855469,47.4130859 340.601562,47.0908203 C340.347656,46.7685547 340.025391,46.5097656 339.634766,46.3144531 C339.244141,46.1191406 338.829102,45.9775391 338.389648,45.8896484 C337.950195,45.8017578 337.535156,45.7578125 337.144531,45.7578125 C336.285156,45.7578125 335.474609,45.9433594 334.712891,46.3144531 C333.951172,46.6855469 333.282227,47.1835938 332.706055,47.8085938 C332.129883,48.4335938 331.675781,49.1513672 331.34375,49.9619141 C331.011719,50.7724609 330.845703,51.6074219 330.845703,52.4667969 C330.845703,53.5996094 331.021484,54.5810547 331.373047,55.4111328 C331.724609,56.2412109 332.217773,56.9248047 332.852539,57.4619141 C333.487305,57.9990234 334.258789,58.3945313 335.166992,58.6484375 C336.075195,58.9023438 337.095703,59.0292969 338.228516,59.0292969 L338.228516,59.0292969 L338.814453,59.0292969 Z M352.085938,59 C352.242188,59 352.510742,58.9658203 352.891602,58.8974609 C353.272461,58.8291016 353.682617,58.7460938 354.12207,58.6484375 C354.561523,58.5507813 355.020508,58.4287109 355.499023,58.2822266 C355.977539,58.1357422 356.412109,57.9941406 356.802734,57.8574219 C357.193359,57.7207031 357.510742,57.5839844 357.754883,57.4472656 C357.999023,57.3105469 358.121094,57.1835938 358.121094,57.0664063 C358.121094,56.9492188 358.111328,56.8320313 358.091797,56.7148438 C358.072266,56.5976563 357.984375,56.5097656 357.828125,56.4511719 L357.828125,56.4511719 L357.637695,56.4511719 C357.549805,56.4511719 357.452148,56.4462891 357.344727,56.4365234 C357.237305,56.4267578 357.134766,56.421875 357.037109,56.421875 L357.037109,56.421875 L356.832031,56.421875 C356.324219,56.421875 355.816406,56.4511719 355.308594,56.5097656 C354.800781,56.5683594 354.288086,56.6367188 353.770508,56.7148438 C353.25293,56.7929688 352.730469,56.8613281 352.203125,56.9199219 C351.675781,56.9785156 351.138672,57.0078125 350.591797,57.0078125 C350.259766,57.0078125 349.820312,56.96875 349.273438,56.890625 C348.726562,56.8125 348.189453,56.6708984 347.662109,56.4658203 C347.134766,56.2607422 346.685547,55.9970703 346.314453,55.6748047 C345.943359,55.3525391 345.757812,54.9570313 345.757812,54.4882813 C345.757812,54.0585938 345.860352,53.6826172 346.06543,53.3603516 C346.270508,53.0380859 346.543945,52.7597656 346.885742,52.5253906 C347.227539,52.2910156 347.618164,52.0908203 348.057617,51.9248047 C348.49707,51.7587891 348.931641,51.6269531 349.361328,51.5292969 C349.791016,51.4316406 350.206055,51.3632813 350.606445,51.3242188 C351.006836,51.2851563 351.353516,51.265625 351.646484,51.265625 C351.919922,51.3242188 352.271484,51.4169922 352.701172,51.5439453 C353.130859,51.6708984 353.594727,51.8955078 354.092773,52.2177734 C354.59082,52.5400391 355.09375,52.984375 355.601562,53.5507813 C356.109375,54.1171875 356.568359,54.859375 356.978516,55.7773438 L356.978516,55.7773438 L357.125,55.8066406 C357.203125,55.8261719 357.300781,55.8408203 357.417969,55.8505859 C357.535156,55.8603516 357.642578,55.8701172 357.740234,55.8798828 C357.837891,55.8896484 357.896484,55.8945313 357.916016,55.8945313 C358.013672,55.1132813 358.003906,54.2734375 357.886719,53.375 C357.789062,52.515625 357.588867,51.6611328 357.286133,50.8115234 C356.983398,49.9619141 356.607422,49.1416016 356.158203,48.3505859 C355.708984,47.5595703 355.186523,46.8613281 354.59082,46.2558594 C353.995117,45.6503906 353.34082,45.1474609 352.62793,44.7470703 C351.915039,44.3466797 351.167969,44.1074219 350.386719,44.0292969 C350.074219,44.0292969 349.776367,44.0732422 349.493164,44.1611328 C349.209961,44.2490234 348.956055,44.3710938 348.731445,44.5273438 C348.506836,44.6835938 348.331055,44.8886719 348.204102,45.1425781 C348.077148,45.3964844 348.013672,45.6992188 348.013672,46.0507813 C348.013672,46.0703125 348.047852,46.109375 348.116211,46.1679688 L348.179688,46.2233073 C348.21875,46.2580295 348.251302,46.2884115 348.277344,46.3144531 C348.296875,46.3339844 348.316406,46.3535156 348.335938,46.3730469 C348.335938,46.3925781 348.355469,46.4023438 348.394531,46.4023438 C348.570312,46.4023438 348.72168,46.3681641 348.848633,46.2998047 C348.975586,46.2314453 349.107422,46.1533203 349.244141,46.0654297 C349.380859,45.9775391 349.522461,45.9042969 349.668945,45.8457031 C349.81543,45.7871094 349.986328,45.7578125 350.181641,45.7578125 C350.669922,45.7578125 351.177734,45.8896484 351.705078,46.1533203 C352.232422,46.4169922 352.725586,46.7587891 353.18457,47.1787109 C353.643555,47.5986328 354.019531,48.0722656 354.3125,48.5996094 C354.605469,49.1269531 354.751953,49.6445313 354.751953,50.1523438 L354.751953,50.1523438 L354.78125,50.4160156 L354.78125,50.4160156 L354.78125,50.7089844 C353.570312,50.2402344 352.47168,49.9472656 351.485352,49.8300781 C350.499023,49.7128906 349.620117,49.7226563 348.848633,49.859375 C348.077148,49.9960938 347.408203,50.2255859 346.841797,50.5478516 C346.275391,50.8701172 345.806641,51.2363281 345.435547,51.6464844 C345.064453,52.0566406 344.791016,52.4765625 344.615234,52.90625 C344.439453,53.3359375 344.341797,53.7167969 344.322266,54.0488281 C344.322266,55.0644531 344.571289,55.8945313 345.069336,56.5390625 C345.567383,57.1835938 346.197266,57.6865234 346.958984,58.0478516 C347.720703,58.4091797 348.560547,58.6582031 349.478516,58.7949219 C350.396484,58.9316406 351.265625,59 352.085938,59 Z M362.925781,59.1171875 C362.925781,58.4921875 362.867188,57.8671875 362.75,57.2421875 C362.632812,56.6171875 362.500977,55.9970703 362.354492,55.3818359 C362.208008,54.7666016 362.076172,54.1513672 361.958984,53.5361328 C361.841797,52.9208984 361.783203,52.3007813 361.783203,51.6757813 C361.783203,51.0507813 361.895508,50.4746094 362.120117,49.9472656 C362.344727,49.4199219 362.652344,48.9707031 363.042969,48.5996094 C363.433594,48.2285156 363.892578,47.9453125 364.419922,47.75 C364.947266,47.5546875 365.513672,47.4570313 366.119141,47.4570313 C366.763672,47.4570313 367.369141,47.75 367.935547,48.3359375 C368.501953,48.921875 368.980469,49.7128906 369.371094,50.7089844 C369.761719,51.7050781 370.044922,52.8623047 370.220703,54.1806641 C370.396484,55.4990234 370.396484,56.9101563 370.220703,58.4140625 C370.220703,58.4921875 370.254883,58.5507813 370.323242,58.5898438 C370.391602,58.6289063 370.474609,58.6630859 370.572266,58.6923828 C370.669922,58.7216797 370.767578,58.7412109 370.865234,58.7509766 C370.962891,58.7607422 371.03125,58.765625 371.070312,58.765625 C371.304688,58.765625 371.5,58.6337891 371.65625,58.3701172 C371.8125,58.1064453 371.924805,57.7988281 371.993164,57.4472656 C372.061523,57.0957031 372.110352,56.7441406 372.139648,56.3925781 C372.168945,56.0410156 372.183594,55.7773438 372.183594,55.6015625 C372.183594,55.09375 372.134766,54.4931641 372.037109,53.7998047 C371.939453,53.1064453 371.783203,52.3935547 371.568359,51.6611328 C371.353516,50.9287109 371.089844,50.2109375 370.777344,49.5078125 C370.464844,48.8046875 370.088867,48.1699219 369.649414,47.6035156 C369.209961,47.0371094 368.711914,46.5830078 368.155273,46.2412109 C367.598633,45.8994141 366.988281,45.7285156 366.324219,45.7285156 C365.816406,45.7285156 365.303711,45.8359375 364.786133,46.0507813 C364.268555,46.265625 363.780273,46.5 363.321289,46.7539063 C362.862305,47.0078125 362.4375,47.2421875 362.046875,47.4570313 C361.65625,47.671875 361.324219,47.7792969 361.050781,47.7792969 C360.953125,47.7792969 360.884766,47.7451172 360.845703,47.6767578 C360.806641,47.6083984 360.777344,47.5351563 360.757812,47.4570313 C360.738281,47.3789063 360.704102,47.3105469 360.655273,47.2519531 C360.606445,47.1933594 360.523438,47.1640625 360.40625,47.1640625 C360.25,47.1640625 360.108398,47.1884766 359.981445,47.2373047 C359.854492,47.2861328 359.791016,47.3984375 359.791016,47.5742188 L359.791016,47.5742188 L359.791016,49.3466797 C359.791016,50.0986328 359.81543,50.8994141 359.864258,51.7490234 C359.913086,52.5986328 360.000977,53.4628906 360.12793,54.3417969 C360.254883,55.2207031 360.430664,56.0117188 360.655273,56.7148438 C360.879883,57.4179688 361.177734,57.9941406 361.548828,58.4433594 C361.919922,58.8925781 362.378906,59.1171875 362.925781,59.1171875 Z M389.029297,59 C389.693359,59 390.352539,58.8925781 391.006836,58.6777344 C391.661133,58.4628906 392.286133,58.1748047 392.881836,57.8134766 C393.477539,57.4521484 394.024414,57.0322266 394.522461,56.5537109 C395.020508,56.0751953 395.455078,55.5820313 395.826172,55.0742188 C395.826172,55.0546875 395.860352,55.0400391 395.928711,55.0302734 C395.99707,55.0205078 396.050781,55.015625 396.089844,55.015625 C396.246094,55.015625 396.373047,55.0839844 396.470703,55.2207031 C396.568359,55.3574219 396.65625,55.5283203 396.734375,55.7333984 C396.8125,55.9384766 396.885742,56.1630859 396.954102,56.4072266 C397.022461,56.6513672 397.095703,56.8710938 397.173828,57.0664063 C397.251953,57.2617188 397.359375,57.4326172 397.496094,57.5791016 C397.632812,57.7255859 397.798828,57.7988281 397.994141,57.7988281 C398.228516,57.7988281 398.458008,57.7597656 398.682617,57.6816406 C398.907227,57.6035156 399.019531,57.4082031 399.019531,57.0957031 C398.882812,56.8417969 398.780273,56.4072266 398.711914,55.7919922 C398.643555,55.1767578 398.570312,54.4345703 398.492188,53.5654297 C398.414062,52.6962891 398.34082,51.7441406 398.272461,50.7089844 C398.204102,49.6738281 398.111328,48.609375 397.994141,47.515625 C397.876953,46.421875 397.730469,45.3427734 397.554688,44.2783203 C397.378906,43.2138672 397.154297,42.2128906 396.880859,41.2753906 C396.607422,40.3378906 396.280273,39.5126953 395.899414,38.7998047 C395.518555,38.0869141 395.064453,37.5351563 394.537109,37.1445313 C394.146484,37.2421875 393.912109,37.4765625 393.833984,37.8476563 C393.755859,38.21875 393.765625,38.6875 393.863281,39.2539063 C393.960938,39.8203125 394.12207,40.4599609 394.34668,41.1728516 C394.571289,41.8857422 394.791016,42.6425781 395.005859,43.4433594 C395.220703,44.2441406 395.396484,45.0595703 395.533203,45.8896484 C395.669922,46.7197266 395.699219,47.5253906 395.621094,48.3066406 C395.015625,47.8964844 394.444336,47.5205078 393.907227,47.1787109 C393.370117,46.8369141 392.852539,46.5390625 392.354492,46.2851563 C391.856445,46.03125 391.373047,45.8359375 390.904297,45.6992188 C390.435547,45.5625 389.966797,45.4941406 389.498047,45.4941406 C388.599609,45.4941406 387.842773,45.7138672 387.227539,46.1533203 C386.612305,46.5927734 386.104492,47.1542969 385.704102,47.8378906 C385.303711,48.5214844 385.010742,49.2636719 384.825195,50.0644531 C384.639648,50.8652344 384.546875,51.6269531 384.546875,52.3496094 C384.546875,52.9160156 384.639648,53.5800781 384.825195,54.3417969 C385.010742,55.1035156 385.293945,55.8261719 385.674805,56.5097656 C386.055664,57.1933594 386.524414,57.7792969 387.081055,58.2675781 C387.637695,58.7558594 388.287109,59 389.029297,59 Z M389.498047,57.0078125 C388.990234,57.0078125 388.580078,56.9248047 388.267578,56.7587891 C387.955078,56.5927734 387.686523,56.34375 387.461914,56.0117188 C387.237305,55.6796875 387.046875,55.25 386.890625,54.7226563 C386.734375,54.1953125 386.558594,53.5800781 386.363281,52.8769531 C386.34375,52.3105469 386.412109,51.7148438 386.568359,51.0898438 C386.724609,50.4648438 386.96875,49.8984375 387.300781,49.390625 C387.632812,48.8828125 388.052734,48.4726563 388.560547,48.1601563 C389.068359,47.8476563 389.664062,47.6962891 390.347656,47.7060547 C391.03125,47.7158203 391.807617,47.9404297 392.676758,48.3798828 C393.545898,48.8193359 394.498047,49.546875 395.533203,50.5625 L395.533203,50.5625 L395.533203,51.265625 C395.533203,51.890625 395.337891,52.5400391 394.947266,53.2138672 C394.556641,53.8876953 394.058594,54.5078125 393.453125,55.0742188 C392.847656,55.640625 392.193359,56.1044922 391.490234,56.4658203 C390.787109,56.8271484 390.123047,57.0078125 389.498047,57.0078125 Z M406.490234,59.0292969 C407.369141,59.0292969 408.228516,58.8876953 409.068359,58.6044922 C409.908203,58.3212891 410.660156,57.9111328 411.324219,57.3740234 C411.988281,56.8369141 412.515625,56.1777344 412.90625,55.3964844 C413.296875,54.6152344 413.492188,53.7265625 413.492188,52.7304688 C413.492188,52.3007813 413.433594,51.8564453 413.316406,51.3974609 C413.199219,50.9384766 413.02832,50.484375 412.803711,50.0351563 C412.579102,49.5859375 412.310547,49.1513672 411.998047,48.7314453 C411.685547,48.3115234 411.329102,47.9404297 410.928711,47.6181641 C410.52832,47.2958984 410.108398,47.0419922 409.668945,46.8564453 C409.229492,46.6708984 408.755859,46.578125 408.248047,46.578125 C407.291016,46.578125 406.338867,46.7099609 405.391602,46.9736328 C404.444336,47.2373047 403.589844,47.6425781 402.828125,48.1894531 C402.066406,48.7363281 401.451172,49.4101563 400.982422,50.2109375 C400.513672,51.0117188 400.279297,51.9492188 400.279297,53.0234375 C400.279297,53.9414063 400.435547,54.7763672 400.748047,55.5283203 C401.060547,56.2802734 401.495117,56.9101563 402.051758,57.4179688 C402.608398,57.9257813 403.262695,58.3212891 404.014648,58.6044922 C404.766602,58.8876953 405.591797,59.0292969 406.490234,59.0292969 Z M406.314752,57.3411392 L406.167969,57.3300781 C405.542969,57.3300781 404.957031,57.2080078 404.410156,56.9638672 C403.863281,56.7197266 403.389648,56.3925781 402.989258,55.9824219 C402.588867,55.5722656 402.276367,55.0888672 402.051758,54.5322266 C401.827148,53.9755859 401.714844,53.3945313 401.714844,52.7890625 C401.714844,52.046875 401.900391,51.3925781 402.271484,50.8261719 C402.642578,50.2597656 403.111328,49.7910156 403.677734,49.4199219 C404.244141,49.0488281 404.874023,48.7705078 405.567383,48.5849609 C406.260742,48.3994141 406.929688,48.3066406 407.574219,48.3066406 C408.707031,48.7167969 409.595703,49.1611328 410.240234,49.6396484 C410.884766,50.1181641 411.329102,50.6162109 411.573242,51.1337891 C411.817383,51.6513672 411.905273,52.1689453 411.836914,52.6865234 C411.768555,53.2041016 411.587891,53.7021484 411.294922,54.1806641 C411.001953,54.6591797 410.635742,55.0986328 410.196289,55.4990234 C409.756836,55.8994141 409.297852,56.2412109 408.819336,56.5244141 C408.34082,56.8076172 407.862305,57.0224609 407.383789,57.1689453 C406.905273,57.3154297 406.5,57.3691406 406.167969,57.3300781 L406.314752,57.3411392 Z M427.583984,42.8867188 C427.896484,42.8476563 428.042969,42.7109375 428.023438,42.4765625 C428.003906,42.28125 427.920898,42.0664063 427.774414,41.8320313 C427.62793,41.5976563 427.442383,41.3876953 427.217773,41.2021484 C426.993164,41.0166016 426.8125,40.9335938 426.675781,40.953125 C426.460938,40.953125 426.285156,40.9873047 426.148438,41.0556641 C426.011719,41.1240234 425.943359,41.2753906 425.943359,41.5097656 C425.943359,41.8222656 425.967773,42.0664063 426.016602,42.2421875 C426.06543,42.4179688 426.143555,42.5498047 426.250977,42.6376953 C426.358398,42.7255859 426.509766,42.7890625 426.705078,42.828125 C426.900391,42.8671875 427.144531,42.8867188 427.4375,42.8867188 L427.4375,42.8867188 L427.583984,42.8867188 Z M429.283203,59.0292969 C429.615234,59.0292969 429.864258,58.8925781 430.030273,58.6191406 C430.196289,58.3457031 430.279297,58.0722656 430.279297,57.7988281 C430.279297,56.7832031 430.196289,55.8066406 430.030273,54.8691406 C429.864258,53.9316406 429.688477,52.9990234 429.50293,52.0712891 C429.317383,51.1435547 429.151367,50.2060547 429.004883,49.2587891 C428.858398,48.3115234 428.814453,47.3300781 428.873047,46.3144531 C428.755859,46.1191406 428.628906,45.9726563 428.492188,45.875 C428.355469,45.7773438 428.189453,45.7285156 427.994141,45.7285156 C427.564453,45.7285156 427.388672,46.03125 427.466797,46.6367188 L427.466797,46.6367188 L427.466797,47.0761719 C427.466797,47.2910156 427.461914,47.515625 427.452148,47.75 C427.442383,47.984375 427.4375,48.2089844 427.4375,48.4238281 L427.4375,48.4238281 L427.437958,48.952774 C427.440094,49.1824188 427.449707,49.5578613 427.466797,50.0791016 C427.486328,50.6748047 427.520508,51.3486328 427.569336,52.1005859 C427.618164,52.8525391 427.691406,53.6386719 427.789062,54.4589844 C427.886719,55.2792969 428.003906,56.0263672 428.140625,56.7001953 C428.277344,57.3740234 428.438477,57.9306641 428.624023,58.3701172 C428.80957,58.8095703 429.029297,59.0292969 429.283203,59.0292969 Z M435.845703,58.9267578 C436.119141,59.2490234 436.480469,59.2734375 436.929688,59 C436.929688,58.9414063 436.924805,58.6679688 436.915039,58.1796875 C436.905273,57.6914063 436.890625,57.1005859 436.871094,56.4072266 C436.851562,55.7138672 436.827148,54.9570313 436.797852,54.1367188 C436.768555,53.3164063 436.744141,52.5449219 436.724609,51.8222656 C436.705078,51.0996094 436.685547,50.4746094 436.666016,49.9472656 C436.646484,49.4199219 436.636719,49.0976563 436.636719,48.9804688 C436.910156,48.8046875 437.222656,48.7119141 437.574219,48.7021484 C437.925781,48.6923828 438.282227,48.6923828 438.643555,48.7021484 C439.004883,48.7119141 439.351562,48.6923828 439.683594,48.6435547 C440.015625,48.5947266 440.298828,48.4433594 440.533203,48.1894531 C440.513672,47.7402344 440.362305,47.4326172 440.079102,47.2666016 C439.795898,47.1005859 439.488281,47.0371094 439.15625,47.0761719 L439.15625,47.0761719 L436.636719,46.9589844 L436.402344,41.4804688 C436.402344,41.3632813 436.373047,41.2412109 436.314453,41.1142578 C436.255859,40.9873047 436.177734,40.8652344 436.080078,40.7480469 C435.982422,40.6308594 435.870117,40.5332031 435.743164,40.4550781 C435.616211,40.3769531 435.494141,40.3378906 435.376953,40.3378906 C435.318359,40.3378906 435.235352,40.3476563 435.12793,40.3671875 C435.020508,40.3867188 434.922852,40.4160156 434.834961,40.4550781 C434.74707,40.4941406 434.673828,40.5527344 434.615234,40.6308594 C434.556641,40.7089844 434.527344,40.8164063 434.527344,40.953125 C434.546875,41.65625 434.571289,42.2275391 434.600586,42.6669922 C434.629883,43.1064453 434.654297,43.5263672 434.673828,43.9267578 C434.693359,44.3271484 434.683594,44.7568359 434.644531,45.2158203 C434.605469,45.6748047 434.546875,46.265625 434.46875,46.9882813 L434.46875,46.9882813 L431.451172,47.2519531 C431.294922,47.2519531 431.202148,47.3251953 431.172852,47.4716797 C431.143555,47.6181641 431.128906,47.7304688 431.128906,47.8085938 C431.128906,48.1015625 431.299805,48.3261719 431.641602,48.4824219 C431.983398,48.6386719 432.364258,48.7509766 432.78418,48.8193359 C433.204102,48.8876953 433.609375,48.921875 434,48.921875 L434,48.921875 L434.820312,48.921875 C434.78125,49.234375 434.751953,49.7421875 434.732422,50.4453125 C434.712891,51.1484375 434.708008,51.9150391 434.717773,52.7451172 C434.727539,53.5751953 434.766602,54.4150391 434.834961,55.2646484 C434.90332,56.1142578 435.020508,56.8564453 435.186523,57.4912109 C435.352539,58.1259766 435.572266,58.6044922 435.845703,58.9267578 Z M454.068359,51.3242188 C454.302734,51.3242188 454.46875,51.2607422 454.566406,51.1337891 C454.664062,51.0068359 454.727539,50.8457031 454.756836,50.6503906 C454.786133,50.4550781 454.795898,50.2548828 454.786133,50.0498047 C454.776367,49.8447266 454.771484,49.6640625 454.771484,49.5078125 L454.771484,49.5078125 L454.771484,49.1855469 C454.771484,49.0488281 454.766602,48.9072266 454.756836,48.7607422 C454.74707,48.6142578 454.742188,48.4873047 454.742188,48.3798828 L454.742188,48.3798828 L454.742188,48.1601563 C454.722656,47.9257813 454.708008,47.5400391 454.698242,47.0029297 C454.688477,46.4658203 454.673828,45.8457031 454.654297,45.1425781 C454.634766,44.4394531 454.625,43.6826172 454.625,42.8720703 C454.625,42.0615234 454.615234,41.2558594 454.595703,40.4550781 C454.576172,39.6542969 454.561523,38.8828125 454.551758,38.140625 C454.541992,37.3984375 454.532227,36.7441406 454.522461,36.1777344 C454.512695,35.6113281 454.507812,35.1523438 454.507812,34.8007813 L454.507812,34.8007813 L454.478516,34.2734375 L453.042969,34.5078125 C453.082031,35.015625 453.101562,35.71875 453.101562,36.6171875 L453.101562,36.6171875 L453.101562,39.4736328 C453.101562,40.5185547 453.09668,41.6123047 453.086914,42.7548828 C453.077148,43.8974609 453.077148,44.9912109 453.086914,46.0361328 C453.09668,47.0810547 453.116211,48.0380859 453.145508,48.9072266 C453.174805,49.7763672 453.228516,50.4648438 453.306641,50.9726563 C453.365234,51.1679688 453.472656,51.2753906 453.628906,51.2949219 C453.785156,51.3144531 453.931641,51.3242188 454.068359,51.3242188 Z M453.746094,59.0292969 C453.921875,59.0292969 454.136719,58.9951172 454.390625,58.9267578 C454.644531,58.8583984 454.878906,58.7558594 455.09375,58.6191406 C455.308594,58.4824219 455.494141,58.3261719 455.650391,58.1503906 C455.806641,57.9746094 455.884766,57.7792969 455.884766,57.5644531 C455.884766,57.3886719 455.860352,57.2080078 455.811523,57.0224609 C455.762695,56.8369141 455.679688,56.6611328 455.5625,56.4951172 C455.445312,56.3291016 455.308594,56.1875 455.152344,56.0703125 C454.996094,55.953125 454.820312,55.8945313 454.625,55.8945313 C454.039062,55.8945313 453.511719,56.03125 453.042969,56.3046875 C452.613281,56.5585938 452.398438,56.9785156 452.398438,57.5644531 C452.398438,58.0136719 452.500977,58.3701172 452.706055,58.6337891 C452.911133,58.8974609 453.257812,59.0292969 453.746094,59.0292969 Z" id="Icandoit!" stroke="#4C9BB3" stroke-width="0.5" fill="#4C9BB3" fill-rule="nonzero" transform="translate(385.162109, 46.730853) rotate(-10.000000) translate(-385.162109, -46.730853) "></path>
            </g>
        </g>
    </g>
</svg>