<?xml version="1.0" encoding="UTF-8"?>
<svg width="142px" height="142px" viewBox="0 0 142 142" version="1.1" xmlns="http://www.w3.org/2000/svg" xmlns:xlink="http://www.w3.org/1999/xlink">
    <!-- Generator: Sketch 56.3 (81716) - https://sketch.com -->
    <title>Group</title>
    <desc>Created with Sketch.</desc>
    <g id="Page-1" stroke="none" stroke-width="1" fill="none" fill-rule="evenodd">
        <g id="Group" fill-rule="nonzero">
            <g id="refer" fill="#E3F8FE">
                <g id="fghgfd">
                    <g id="Mask">
                        <circle id="path-1" cx="71" cy="71" r="71"></circle>
                    </g>
                </g>
            </g>
            <g id="iconfinder_youtube_1220360" transform="translate(34.000000, 45.000000)">
                <path d="M37.6016784,57.1854882 C29.5729002,57.2344654 21.544122,57.1201854 13.5304072,56.6467394 C10.9244435,56.4834822 8.3184799,56.2385964 5.95353023,54.85091 C4.37187599,53.9203439 3.15174272,52.6306119 2.38351066,50.8021311 C1.08806052,47.7655468 0.681349434,44.5657054 0.440335455,41.300561 C-0.0718192511,34.5580379 -0.101945998,27.8155149 0.169194728,21.0893175 C0.304765091,17.5139845 0.410208707,13.906 1.19350414,10.3959698 C1.49477161,9.02460919 1.93160945,7.6859 2.51908103,6.41249371 C3.90491141,3.42488664 6.3150512,1.93924596 9.22228232,1.31886854 C11.6625489,0.79644544 14.1630689,0.812771162 16.6485256,0.69849111 C25.0689515,0.322999511 33.5044407,0.12709085 41.93993,0.22504518 C48.4322441,0.306673789 54.9396215,0.486256728 61.4319356,0.845422606 C63.4353643,0.959702658 65.4538563,0.992354101 67.3669048,1.75966302 C69.9578051,2.80450921 71.8859169,4.56768716 72.9252897,7.42468846 C73.9345357,10.1674097 74.3261835,13.0080853 74.5370707,15.9303895 C75.1245423,23.8646902 75.1396056,31.798991 74.6575777,39.7332917 C74.4918806,42.4107101 74.3261835,45.0881285 73.6784584,47.7165697 C72.2173111,53.7570867 68.7376718,56.1243163 63.6311881,56.4998079 C58.1782468,56.8916253 52.7102422,57.1038596 47.2422375,57.1854882 C44.0337389,57.2181397 40.810177,57.1854882 37.6016784,57.1854882 Z M29.6934072,40.4842749 C36.9840801,36.1579587 44.1843727,31.8806196 51.5051723,27.5379776 C44.1693093,23.1790099 36.9690167,18.9179965 29.6934072,14.5916803 C29.6934072,23.29329 29.6934072,31.8316424 29.6934072,40.4842749 Z" id="Shape" fill="#DD2C28"></path>
                <path d="M29,41.2 C29,32.5059937 29,23.9268139 29,15.2 C36.6719613,19.5305994 44.2645028,23.8283912 52,28.2082019 C44.2803867,32.5716088 36.6878453,36.8529968 29,41.2 Z" id="Path" fill="#FEFDFD"></path>
            </g>
        </g>
    </g>
</svg>